# Blender 5.0.1
# www.blender.org
mtllib hat elegant 4.mtl
o Object_0
v -0.064700 0.732723 0.865631
v -0.083853 0.733686 0.928063
v -0.014744 0.732129 0.907685
v -0.083853 0.733686 0.928063
v -0.096115 0.709631 0.987521
v -0.032442 0.719164 0.976351
v -0.083853 0.733686 0.928063
v -0.032442 0.719164 0.976351
v -0.014744 0.732129 0.907685
v -0.014744 0.732129 0.907685
v -0.032442 0.719164 0.976351
v 0.026560 0.706833 0.951348
v -0.064700 0.732723 0.865631
v -0.123561 0.705660 0.874725
v -0.083853 0.733686 0.928063
v -0.123561 0.705660 0.874725
v -0.166600 0.659784 0.892841
v -0.141258 0.692650 0.943391
v -0.123561 0.705660 0.874725
v -0.141258 0.692650 0.943391
v -0.083853 0.733686 0.928063
v -0.083853 0.733686 0.928063
v -0.141258 0.692650 0.943391
v -0.096115 0.709631 0.987521
v -0.064700 0.732723 0.865631
v -0.078990 0.686747 0.821309
v -0.123561 0.705660 0.874725
v -0.078990 0.686747 0.821309
v -0.089165 0.642461 0.834973
v -0.136395 0.645657 0.836638
v -0.078990 0.686747 0.821309
v -0.136395 0.645657 0.836638
v -0.123561 0.705660 0.874725
v -0.123561 0.705660 0.874725
v -0.136395 0.645657 0.836638
v -0.166600 0.659784 0.892841
v -0.064700 0.732723 0.865631
v -0.011740 0.703140 0.841752
v -0.078990 0.686747 0.821309
v -0.011740 0.703140 0.841752
v 0.031892 0.655317 0.834322
v -0.025874 0.655677 0.832181
v -0.011740 0.703140 0.841752
v -0.025874 0.655677 0.832181
v -0.078990 0.686747 0.821309
v -0.078990 0.686747 0.821309
v -0.025874 0.655677 0.832181
v -0.089165 0.642461 0.834973
v -0.064700 0.732723 0.865631
v -0.014744 0.732129 0.907685
v -0.011740 0.703140 0.841752
v -0.014744 0.732129 0.907685
v 0.026560 0.706833 0.951348
v 0.039671 0.688520 0.890041
v -0.014744 0.732129 0.907685
v 0.039671 0.688520 0.890041
v -0.011740 0.703140 0.841752
v -0.011740 0.703140 0.841752
v 0.039671 0.688520 0.890041
v 0.031892 0.655317 0.834322
v 0.026560 0.706833 0.951348
v -0.032442 0.719164 0.976351
v 0.011035 0.667482 1.001146
v -0.032442 0.719164 0.976351
v -0.096115 0.709631 0.987521
v -0.058073 0.669040 1.021525
v -0.032442 0.719164 0.976351
v -0.058073 0.669040 1.021525
v 0.011035 0.667482 1.001146
v 0.011035 0.667482 1.001146
v -0.058073 0.669040 1.021525
v -0.018939 0.617897 1.031534
v -0.096115 0.709631 0.987521
v -0.141258 0.692650 0.943391
v -0.125326 0.652680 1.001154
v -0.141258 0.692650 0.943391
v -0.166600 0.659784 0.892841
v -0.165034 0.624555 0.947816
v -0.141258 0.692650 0.943391
v -0.165034 0.624555 0.947816
v -0.125326 0.652680 1.001154
v -0.125326 0.652680 1.001154
v -0.165034 0.624555 0.947816
v -0.138318 0.588812 0.995375
v -0.166600 0.659784 0.892841
v -0.136395 0.645657 0.836638
v -0.162030 0.595567 0.881884
v -0.136395 0.645657 0.836638
v -0.089165 0.642461 0.834973
v -0.118757 0.589193 0.856983
v -0.136395 0.645657 0.836638
v -0.118757 0.589193 0.856983
v -0.162030 0.595567 0.881884
v -0.162030 0.595567 0.881884
v -0.118757 0.589193 0.856983
v -0.132986 0.537307 0.878350
v -0.089165 0.642461 0.834973
v -0.025874 0.655677 0.832181
v -0.050577 0.596596 0.856979
v -0.025874 0.655677 0.832181
v 0.031892 0.655317 0.834322
v 0.017604 0.603999 0.856975
v -0.025874 0.655677 0.832181
v 0.017604 0.603999 0.856975
v -0.050577 0.596596 0.856979
v -0.050577 0.596596 0.856979
v 0.017604 0.603999 0.856975
v -0.011988 0.550724 0.878986
v 0.031892 0.655317 0.834322
v 0.039671 0.688520 0.890041
v 0.058608 0.619516 0.881871
v 0.039671 0.688520 0.890041
v 0.026560 0.706833 0.951348
v 0.055604 0.648508 0.947803
v 0.039671 0.688520 0.890041
v 0.055604 0.648508 0.947803
v 0.058608 0.619516 0.881871
v 0.058608 0.619516 0.881871
v 0.055604 0.648508 0.947803
v 0.060174 0.584287 0.936846
v 0.026560 0.706833 0.951348
v 0.011035 0.667482 1.001146
v 0.055604 0.648508 0.947803
v 0.011035 0.667482 1.001146
v -0.018939 0.617897 1.031534
v 0.029972 0.598380 0.992976
v 0.011035 0.667482 1.001146
v 0.029972 0.598380 0.992976
v 0.055604 0.648508 0.947803
v 0.055604 0.648508 0.947803
v 0.029972 0.598380 0.992976
v 0.060174 0.584287 0.936846
v -0.096115 0.709631 0.987521
v -0.125326 0.652680 1.001154
v -0.058073 0.669040 1.021525
v -0.125326 0.652680 1.001154
v -0.138318 0.588812 0.995375
v -0.081848 0.600957 1.025949
v -0.125326 0.652680 1.001154
v -0.081848 0.600957 1.025949
v -0.058073 0.669040 1.021525
v -0.058073 0.669040 1.021525
v -0.081848 0.600957 1.025949
v -0.018939 0.617897 1.031534
v -0.166600 0.659784 0.892841
v -0.162030 0.595567 0.881884
v -0.165034 0.624555 0.947816
v -0.162030 0.595567 0.881884
v -0.132986 0.537307 0.878350
v -0.146097 0.555551 0.939646
v -0.162030 0.595567 0.881884
v -0.146097 0.555551 0.939646
v -0.165034 0.624555 0.947816
v -0.165034 0.624555 0.947816
v -0.146097 0.555551 0.939646
v -0.138318 0.588812 0.995375
v -0.089165 0.642461 0.834973
v -0.050577 0.596596 0.856979
v -0.118757 0.589193 0.856983
v -0.050577 0.596596 0.856979
v -0.011988 0.550724 0.878986
v -0.075280 0.537512 0.881778
v -0.050577 0.596596 0.856979
v -0.075280 0.537512 0.881778
v -0.118757 0.589193 0.856983
v -0.118757 0.589193 0.856983
v -0.075280 0.537512 0.881778
v -0.132986 0.537307 0.878350
v 0.031892 0.655317 0.834322
v 0.058608 0.619516 0.881871
v 0.017604 0.603999 0.856975
v 0.058608 0.619516 0.881871
v 0.060174 0.584287 0.936846
v 0.034836 0.551448 0.886222
v 0.058608 0.619516 0.881871
v 0.034836 0.551448 0.886222
v 0.017604 0.603999 0.856975
v 0.017604 0.603999 0.856975
v 0.034836 0.551448 0.886222
v -0.011988 0.550724 0.878986
v 0.060174 0.584287 0.936846
v 0.029972 0.598380 0.992976
v 0.017135 0.538415 0.954962
v 0.029972 0.598380 0.992976
v -0.018939 0.617897 1.031534
v -0.027433 0.557294 1.008305
v 0.029972 0.598380 0.992976
v -0.027433 0.557294 1.008305
v 0.017135 0.538415 0.954962
v 0.017135 0.538415 0.954962
v -0.027433 0.557294 1.008305
v -0.041725 0.511351 0.964056
v -0.018939 0.617897 1.031534
v -0.081848 0.600957 1.025949
v -0.027433 0.557294 1.008305
v -0.081848 0.600957 1.025949
v -0.138318 0.588812 0.995375
v -0.094685 0.540931 0.987935
v -0.081848 0.600957 1.025949
v -0.094685 0.540931 0.987935
v -0.027433 0.557294 1.008305
v -0.027433 0.557294 1.008305
v -0.094685 0.540931 0.987935
v -0.041725 0.511351 0.964056
v -0.138318 0.588812 0.995375
v -0.146097 0.555551 0.939646
v -0.094685 0.540931 0.987935
v -0.146097 0.555551 0.939646
v -0.132986 0.537307 0.878350
v -0.091681 0.511938 0.922003
v -0.146097 0.555551 0.939646
v -0.091681 0.511938 0.922003
v -0.094685 0.540931 0.987935
v -0.094685 0.540931 0.987935
v -0.091681 0.511938 0.922003
v -0.041725 0.511351 0.964056
v -0.132986 0.537307 0.878350
v -0.075280 0.537512 0.881778
v -0.091681 0.511938 0.922003
v -0.075280 0.537512 0.881778
v -0.011988 0.550724 0.878986
v -0.022569 0.510359 0.901551
v -0.075280 0.537512 0.881778
v -0.022569 0.510359 0.901551
v -0.091681 0.511938 0.922003
v -0.091681 0.511938 0.922003
v -0.022569 0.510359 0.901551
v -0.041725 0.511351 0.964056
v -0.011988 0.550724 0.878986
v 0.034836 0.551448 0.886222
v -0.022569 0.510359 0.901551
v 0.034836 0.551448 0.886222
v 0.060174 0.584287 0.936846
v 0.017135 0.538415 0.954962
v 0.034836 0.551448 0.886222
v 0.017135 0.538415 0.954962
v -0.022569 0.510359 0.901551
v -0.022569 0.510359 0.901551
v 0.017135 0.538415 0.954962
v -0.041725 0.511351 0.964056
vn 0.0198 0.9998 -0.0093
vn -0.0760 0.9297 0.3605
vn 0.0825 0.9752 0.2054
vn 0.2987 0.9208 0.2508
vn -0.4318 0.8900 -0.1462
vn -0.7403 0.6692 -0.0640
vn -0.5807 0.8141 0.0046
vn -0.5267 0.8202 0.2232
vn -0.4109 0.6957 -0.5892
vn -0.0529 -0.2833 -0.9576
vn -0.5506 0.5281 -0.6465
vn -0.7196 0.4752 -0.5062
vn 0.0543 0.6842 -0.7273
vn 0.0376 0.1868 -0.9817
vn 0.2632 0.1148 -0.9579
vn 0.0204 -0.2990 -0.9540
vn 0.3209 0.8723 -0.3689
vn 0.6000 0.7926 -0.1084
vn 0.5263 0.7870 -0.3220
vn 0.6170 0.6351 -0.4646
vn 0.4076 0.6504 0.6410
vn 0.0329 0.6598 0.7508
vn 0.2428 0.5780 0.7791
vn 0.2695 0.3795 0.8851
vn -0.6979 0.4843 0.5276
vn -0.9116 0.3339 0.2399
vn -0.8330 0.3202 0.4513
vn -0.8253 0.1179 0.5522
vn -0.8787 0.0189 -0.4770
vn -0.0569 -0.3541 -0.9335
vn -0.4974 -0.4274 -0.7550
vn -0.5107 -0.2039 -0.8352
vn 0.0436 -0.4021 -0.9146
vn 0.0312 -0.4109 -0.9111
vn 0.9112 0.2853 -0.2972
vn 0.8950 0.4421 0.0594
vn 0.9592 0.2722 -0.0760
vn 0.9975 0.0684 0.0154
vn 0.7757 0.3546 0.5220
vn 0.6374 0.0841 0.7659
vn 0.7840 0.1434 0.6040
vn 0.8785 -0.0189 0.4774
vn -0.3520 0.3848 0.8532
vn -0.4790 0.0180 0.8776
vn -0.3239 0.1735 0.9300
vn -0.1159 0.1047 0.9877
vn -0.9975 -0.0684 -0.0154
vn -0.8948 -0.4425 -0.0597
vn -0.9592 -0.2722 0.0760
vn -0.9111 -0.2853 0.2974
vn 0.0559 -0.3933 -0.9177
vn 0.5815 -0.4585 -0.6720
vn 0.9117 -0.3337 -0.2398
vn 0.5697 -0.2490 -0.7832
vn 0.1435 -0.4449 -0.8840
vn 0.7196 -0.4751 0.5065
vn 0.4786 -0.3719 0.7954
vn 0.5505 -0.5279 0.6468
vn 0.4109 -0.6955 0.5894
vn 0.0140 -0.3596 0.9330
vn -0.3498 -0.4467 0.8235
vn -0.1334 -0.5097 0.8499
vn -0.0540 -0.6839 0.7275
vn -0.6172 -0.6347 0.4650
vn -0.6003 -0.7925 0.1075
vn -0.5263 -0.7869 0.3221
vn -0.3208 -0.8723 0.3690
vn 0.0343 -0.8497 -0.5262
vn 0.0663 -0.5001 -0.8634
vn -0.1899 -0.7916 -0.5807
vn -0.0200 -0.9998 0.0098
vn 0.1390 -0.5107 -0.8484
vn 0.7402 -0.6693 0.0637
vn 0.5812 -0.8137 -0.0046
vn 0.4318 -0.8900 0.1465
s 1
usemtl VRayMtl2SG
f 1//1 2//1 3//1
f 4//2 5//2 6//2
f 7//3 8//3 9//3
f 10//4 11//4 12//4
f 13//5 14//5 15//5
f 16//6 17//6 18//6
f 19//7 20//7 21//7
f 22//8 23//8 24//8
f 25//9 26//9 27//9
f 28//10 29//10 30//10
f 31//11 32//11 33//11
f 34//12 35//12 36//12
f 37//13 38//13 39//13
f 40//14 41//14 42//14
f 43//15 44//15 45//15
f 46//16 47//16 48//16
f 49//17 50//17 51//17
f 52//18 53//18 54//18
f 55//19 56//19 57//19
f 58//20 59//20 60//20
f 61//21 62//21 63//21
f 64//22 65//22 66//22
f 67//23 68//23 69//23
f 70//24 71//24 72//24
f 73//25 74//25 75//25
f 76//26 77//26 78//26
f 79//27 80//27 81//27
f 82//28 83//28 84//28
f 85//29 86//29 87//29
f 88//30 89//30 90//30
f 91//31 92//31 93//31
f 94//32 95//32 96//32
f 97//33 98//33 99//33
f 100//34 101//34 102//34
f 103//33 104//33 105//33
f 106//33 107//33 108//33
f 109//35 110//35 111//35
f 112//36 113//36 114//36
f 115//37 116//37 117//37
f 118//38 119//38 120//38
f 121//39 122//39 123//39
f 124//40 125//40 126//40
f 127//41 128//41 129//41
f 130//42 131//42 132//42
f 133//43 134//43 135//43
f 136//44 137//44 138//44
f 139//45 140//45 141//45
f 142//46 143//46 144//46
f 145//47 146//47 147//47
f 148//48 149//48 150//48
f 151//49 152//49 153//49
f 154//50 155//50 156//50
f 157//33 158//33 159//33
f 160//33 161//33 162//33
f 163//33 164//33 165//33
f 166//51 167//51 168//51
f 169//52 170//52 171//52
f 172//53 173//53 174//53
f 175//54 176//54 177//54
f 178//55 179//55 180//55
f 181//56 182//56 183//56
f 184//57 185//57 186//57
f 187//58 188//58 189//58
f 190//59 191//59 192//59
f 193//60 194//60 195//60
f 196//61 197//61 198//61
f 199//62 200//62 201//62
f 202//63 203//63 204//63
f 205//64 206//64 207//64
f 208//65 209//65 210//65
f 211//66 212//66 213//66
f 214//67 215//67 216//67
f 217//68 218//68 219//68
f 220//69 221//69 222//69
f 223//70 224//70 225//70
f 226//71 227//71 228//71
f 229//72 230//72 231//72
f 232//73 233//73 234//73
f 235//74 236//74 237//74
f 238//75 239//75 240//75
