# Blender 5.0.1
# www.blender.org
mtllib hat elegant 3.mtl
o Object_2
v 0.248971 1.554921 -0.873267
v 0.222932 1.644793 -0.802372
v 0.285135 1.536149 -0.588672
v 0.315343 1.444683 -0.659293
v 0.310853 1.479540 -0.472471
v 0.343546 1.385574 -0.538570
v 0.327351 1.421984 -0.344779
v 0.362024 1.324600 -0.404187
v 0.334429 1.365289 -0.209601
v 0.370161 1.264708 -0.261947
v 0.339738 1.256320 0.061136
v 0.375021 1.152840 0.016327
v 0.358670 1.093490 0.457887
v 0.393952 0.990012 0.413079
v 0.265893 1.463169 -0.928409
v 0.332978 1.351635 -0.711752
v 0.361829 1.291250 -0.587995
v 0.380883 1.228685 -0.450070
v 0.389401 1.167312 -0.304526
v 0.394502 1.054198 -0.023103
v 0.413433 0.891363 0.373650
v 0.303061 1.247817 -0.740462
v 0.238117 1.359789 -0.960582
v 0.330916 1.187313 -0.615929
v 0.349250 1.125368 -0.478195
v 0.357476 1.064475 -0.333500
v 0.363184 0.951933 -0.053830
v 0.382115 0.789101 0.342922
v 0.405619 2.668677 -1.544533
v 0.416737 2.715176 -1.428403
v 0.465834 2.366257 -1.105562
v 0.458220 2.315537 -1.221353
v 0.485562 2.183895 -0.929902
v 0.479977 2.124705 -1.038881
v 0.497326 1.994397 -0.736660
v 0.493313 1.924310 -0.835529
v 0.501072 1.803580 -0.531891
v 0.497845 1.722977 -0.620073
v 0.501402 1.429555 -0.121545
v 0.497670 1.339380 -0.198296
v 0.511657 0.873431 0.479684
v 0.507925 0.783255 0.402935
v 0.386792 2.609657 -1.636564
v 0.439962 2.252208 -1.309327
v 0.462228 2.056726 -1.122265
v 0.476004 1.851080 -0.913553
v 0.480818 1.644918 -0.693091
v 0.480807 1.256963 -0.266543
v 0.491060 0.700899 0.334690
v 0.374930 2.177141 -1.361961
v 0.323603 2.537223 -1.694492
v 0.396356 1.981650 -1.173703
v 0.409539 1.777096 -0.965264
v 0.414130 1.572391 -0.746082
v 0.414675 1.186298 -0.322198
v 0.424930 0.630381 0.279033
v 0.310412 2.650176 -0.263113
v 0.225223 2.634935 -0.180443
v 0.284898 2.323847 -0.063500
v 0.374430 2.337587 -0.144382
v 0.309132 2.157135 -0.003428
v 0.401137 2.163945 -0.081357
v 0.323517 1.977634 0.057843
v 0.417413 1.974746 -0.016398
v 0.327852 1.791083 0.118606
v 0.422674 1.778291 0.047836
v 0.326804 1.421672 0.237285
v 0.420995 1.398691 0.169556
v 0.336266 0.878638 0.416377
v 0.430457 0.855598 0.348649
v 0.385373 2.646417 -0.342283
v 0.450051 2.330800 -0.222091
v 0.477344 2.152823 -0.157482
v 0.494117 1.958671 -0.090749
v 0.499680 1.757611 -0.024920
v 0.498159 1.373685 0.098269
v 0.507623 0.830525 0.277360
v 0.486032 2.291515 -0.320354
v 0.423691 2.610780 -0.441199
v 0.512251 2.113226 -0.255791
v 0.528262 1.919572 -0.189411
v 0.533524 1.719758 -0.124047
v 0.532648 1.338161 -0.001334
v 0.542110 0.794969 0.177759
v 0.057195 2.518407 -0.455138
v 0.021575 2.523688 -0.341043
v 0.137849 2.234774 -0.212305
v 0.178184 2.228504 -0.326598
v 0.192117 2.079960 -0.141872
v 0.236216 2.067268 -0.253534
v 0.238628 1.913419 -0.063461
v 0.286399 1.891754 -0.171081
v 0.276245 1.740461 0.020536
v 0.326743 1.709635 -0.082735
v 0.341497 1.398151 0.190127
v 0.393152 1.357944 0.091605
v 0.449321 0.894818 0.438424
v 0.500976 0.854613 0.339903
v 0.085957 2.496089 -0.558130
v 0.208323 2.203448 -0.427947
v 0.267736 2.038237 -0.353014
v 0.319331 1.858118 -0.268368
v 0.360819 1.671725 -0.177959
v 0.428180 1.316122 -0.001644
v 0.536006 0.812782 0.246652
v 0.194704 2.145571 -0.522756
v 0.073977 2.441427 -0.655327
v 0.253169 1.979909 -0.447228
v 0.303912 1.800313 -0.362618
v 0.344882 1.615167 -0.272697
v 0.412525 1.261694 -0.097500
v 0.520349 0.758360 0.150798
v 0.667925 2.011417 -0.576400
v 0.572702 2.042026 -0.515318
v 0.571957 1.850075 -0.358371
v 0.671001 1.818611 -0.417142
v 0.564198 1.746281 -0.277353
v 0.664312 1.710770 -0.332195
v 0.544704 1.633386 -0.194409
v 0.644813 1.592272 -0.244312
v 0.514309 1.515445 -0.111929
v 0.613457 1.468230 -0.157156
v 0.444710 1.281468 0.048973
v 0.541381 1.227653 0.007904
v 0.352557 0.938583 0.290893
v 0.449227 0.884572 0.249825
v 0.749987 1.968932 -0.632785
v 0.752974 1.773791 -0.471581
v 0.746039 1.663283 -0.384518
v 0.726088 1.541575 -0.294260
v 0.694163 1.414947 -0.204966
v 0.621430 1.171811 -0.037933
v 0.529278 0.828657 0.203987
v 0.793594 1.698023 -0.542883
v 0.793578 1.895896 -0.705016
v 0.785500 1.586998 -0.455871
v 0.764914 1.465668 -0.366086
v 0.732935 1.339806 -0.277430
v 0.661224 1.098385 -0.111089
v 0.569069 0.755190 0.130832
v 0.306609 2.267752 0.244856
v 0.226926 2.239535 0.326300
v 0.290943 2.000730 0.354581
v 0.374978 2.028045 0.274073
v 0.317517 1.871941 0.367819
v 0.404118 1.893993 0.288180
v 0.334465 1.732097 0.379736
v 0.423094 1.746711 0.301008
v 0.341513 1.585632 0.390145
v 0.431212 1.592519 0.312140
v 0.345929 1.294217 0.409742
v 0.435147 1.293013 0.332119
v 0.363450 0.866454 0.441846
v 0.452667 0.865250 0.364225
v 0.376403 2.280396 0.162964
v 0.445487 2.037728 0.192547
v 0.475276 1.900396 0.207027
v 0.494822 1.749236 0.220247
v 0.503309 1.591382 0.231713
v 0.507467 1.288525 0.251983
v 0.524990 0.860660 0.284085
v 0.476047 2.019504 0.086730
v 0.409229 2.265630 0.057355
v 0.504778 1.881576 0.101068
v 0.523558 1.730729 0.114139
v 0.531728 1.573901 0.125507
v 0.536499 1.272940 0.145837
v 0.554019 0.845010 0.177942
v 0.146998 2.017179 -0.543467
v 0.131947 2.072081 -0.440939
v 0.209962 1.887465 -0.294378
v 0.229108 1.830900 -0.397785
v 0.244443 1.789771 -0.212749
v 0.266384 1.728845 -0.313353
v 0.270840 1.686658 -0.120000
v 0.295256 1.620071 -0.216015
v 0.288640 1.581570 -0.019063
v 0.314660 1.509275 -0.109969
v 0.315666 1.375402 0.185767
v 0.341854 1.297603 0.100702
v 0.366220 1.070442 0.483496
v 0.392408 0.992645 0.398432
v 0.154441 1.954133 -0.631370
v 0.237466 1.765731 -0.483817
v 0.275621 1.661281 -0.397231
v 0.305342 1.549612 -0.297332
v 0.325388 1.436285 -0.188857
v 0.353071 1.222179 0.024161
v 0.403625 0.917271 0.321890
v 0.200403 1.681243 -0.547176
v 0.119190 1.871240 -0.697939
v 0.237650 1.576618 -0.459728
v 0.266653 1.465542 -0.359775
v 0.286346 1.352990 -0.251858
v 0.314485 1.140039 -0.040310
v 0.365038 0.835180 0.257420
v 0.195243 2.951381 -1.287588
v 0.152675 2.971524 -1.171256
v 0.243069 2.599493 -0.885297
v 0.290265 2.576557 -1.000460
v 0.283370 2.401438 -0.731523
v 0.333765 2.369959 -0.840402
v 0.314689 2.190174 -0.564864
v 0.367945 2.146991 -0.664776
v 0.336363 1.971827 -0.390442
v 0.391505 1.917420 -0.481095
v 0.369811 1.539505 -0.042581
v 0.425233 1.473577 -0.123680
v 0.430891 0.903665 0.469723
v 0.486313 0.837742 0.388626
v 0.229235 2.911733 -1.385344
v 0.325310 2.532150 -1.094628
v 0.369828 2.320459 -0.930548
v 0.404998 2.091693 -0.750264
v 0.429309 1.856698 -0.562266
v 0.463617 1.408343 -0.200762
v 0.524698 0.772390 0.311544
v 0.314261 2.452779 -1.173435
v 0.220202 2.836603 -1.468178
v 0.357753 2.240438 -1.008548
v 0.392104 2.012459 -0.828639
v 0.416000 1.779055 -0.641777
v 0.450788 1.333515 -0.282383
v 0.511867 0.697573 0.229922
vn 0.9408 0.3149 -0.1257
vn 0.9277 0.3612 -0.0941
vn 0.9314 0.3565 -0.0740
vn 0.9444 0.3107 -0.1072
vn 0.9427 0.3336 -0.0084
vn 0.9585 0.2821 -0.0419
vn 0.9500 0.3084 0.0482
vn 0.9668 0.2547 0.0185
vn 0.9530 0.2893 0.0895
vn 0.9699 0.2346 0.0654
vn 0.9534 0.2898 0.0838
vn 0.9695 0.2371 0.0621
vn 0.9533 0.2927 0.0746
vn 0.9692 0.2405 0.0524
vn 0.9629 0.0614 -0.2629
vn 0.9674 0.0416 -0.2498
vn 0.9840 0.0046 -0.1782
vn 0.9938 -0.0256 -0.1085
vn 0.9978 -0.0434 -0.0503
vn 0.9979 -0.0401 -0.0515
vn 0.9969 -0.0436 -0.0655
vn 0.9267 -0.1669 -0.3367
vn 0.9219 -0.1519 -0.3564
vn 0.9418 -0.2089 -0.2634
vn 0.9521 -0.2378 -0.1923
vn 0.9571 -0.2566 -0.1347
vn 0.9576 -0.2530 -0.1380
vn 0.9572 -0.2487 -0.1478
vn 0.9886 0.0076 -0.1504
vn 0.9936 0.0506 -0.1014
vn 0.9949 0.0444 -0.0901
vn 0.9909 0.0094 -0.1344
vn 0.9978 0.0211 -0.0622
vn 0.9937 -0.0196 -0.1104
vn 0.9992 -0.0016 -0.0398
vn 0.9952 -0.0453 -0.0862
vn 0.9996 -0.0182 -0.0230
vn 0.9958 -0.0641 -0.0660
vn 0.9995 -0.0178 -0.0263
vn 0.9958 -0.0620 -0.0669
vn 0.9994 -0.0150 -0.0309
vn 0.9955 -0.0602 -0.0727
vn 0.9139 -0.1933 -0.3570
vn 0.9175 -0.1967 -0.3457
vn 0.9171 -0.2348 -0.3223
vn 0.9182 -0.2648 -0.2945
vn 0.9205 -0.2842 -0.2682
vn 0.9213 -0.2817 -0.2680
vn 0.9176 -0.2840 -0.2783
vn 0.8033 -0.3465 -0.4844
vn 0.8056 -0.3331 -0.4899
vn 0.7998 -0.3862 -0.4594
vn 0.8005 -0.4163 -0.4312
vn 0.8024 -0.4368 -0.4067
vn 0.8038 -0.4338 -0.4071
vn 0.8041 -0.4296 -0.4110
vn 0.6422 0.3817 0.6647
vn 0.5960 0.3846 0.7049
vn 0.5952 0.3705 0.7131
vn 0.6385 0.3699 0.6749
vn 0.5974 0.3236 0.7337
vn 0.6460 0.3206 0.6928
vn 0.6009 0.2803 0.7486
vn 0.6506 0.2735 0.7084
vn 0.6025 0.2481 0.7586
vn 0.6518 0.2369 0.7204
vn 0.6040 0.2518 0.7561
vn 0.6510 0.2404 0.7200
vn 0.6048 0.2589 0.7531
vn 0.6520 0.2477 0.7166
vn 0.8319 0.3360 0.4417
vn 0.8348 0.3217 0.4468
vn 0.8476 0.2631 0.4608
vn 0.8532 0.2087 0.4779
vn 0.8531 0.1661 0.4946
vn 0.8515 0.1692 0.4963
vn 0.8537 0.1764 0.4900
vn 0.9338 0.2606 0.2452
vn 0.9289 0.2785 0.2442
vn 0.9460 0.1985 0.2564
vn 0.9511 0.1433 0.2735
vn 0.9519 0.1000 0.2896
vn 0.9511 0.1036 0.2910
vn 0.9507 0.1119 0.2892
vn 0.8695 0.4503 0.2030
vn 0.8480 0.4626 0.2586
vn 0.8514 0.4502 0.2690
vn 0.8714 0.4406 0.2158
vn 0.8641 0.4076 0.2952
vn 0.8877 0.3945 0.2374
vn 0.8754 0.3674 0.3142
vn 0.9004 0.3507 0.2574
vn 0.8823 0.3373 0.3281
vn 0.9081 0.3168 0.2739
vn 0.8824 0.3405 0.3247
vn 0.9070 0.3202 0.2735
vn 0.8814 0.3469 0.3205
vn 0.9061 0.3267 0.2688
vn 0.9320 0.3557 -0.0698
vn 0.9375 0.3420 -0.0645
vn 0.9571 0.2858 -0.0475
vn 0.9717 0.2349 -0.0253
vn 0.9806 0.1959 -0.0028
vn 0.9799 0.1994 -0.0011
vn 0.9787 0.2051 -0.0091
vn 0.9311 0.2414 -0.2736
vn 0.9257 0.2594 -0.2755
vn 0.9489 0.1814 -0.2582
vn 0.9632 0.1293 -0.2358
vn 0.9726 0.0898 -0.2144
vn 0.9725 0.0935 -0.2133
vn 0.9711 0.1014 -0.2162
vn 0.6083 0.5088 0.6092
vn 0.5618 0.5273 0.6375
vn 0.5575 0.5135 0.6523
vn 0.6046 0.4961 0.6232
vn 0.5463 0.4619 0.6987
vn 0.5985 0.4406 0.6691
vn 0.5370 0.4125 0.7358
vn 0.5894 0.3876 0.7088
vn 0.5289 0.3755 0.7611
vn 0.5792 0.3466 0.7378
vn 0.5318 0.3791 0.7572
vn 0.5792 0.3505 0.7360
vn 0.5349 0.3862 0.7515
vn 0.5819 0.3585 0.7300
vn 0.8102 0.3783 0.4478
vn 0.8171 0.3559 0.4536
vn 0.8140 0.2903 0.5032
vn 0.8033 0.2301 0.5494
vn 0.7875 0.1853 0.5878
vn 0.7865 0.1888 0.5880
vn 0.7939 0.1933 0.5766
vn 0.9271 0.2229 0.3014
vn 0.9255 0.2449 0.2891
vn 0.9244 0.1519 0.3497
vn 0.9129 0.0917 0.3978
vn 0.8988 0.0470 0.4359
vn 0.8989 0.0520 0.4350
vn 0.9011 0.0606 0.4293
vn 0.6721 0.2722 0.6886
vn 0.6321 0.2625 0.7290
vn 0.6337 0.2428 0.7345
vn 0.6736 0.2540 0.6941
vn 0.6420 0.1749 0.7465
vn 0.6869 0.1842 0.7030
vn 0.6496 0.1136 0.7518
vn 0.6957 0.1187 0.7085
vn 0.6534 0.0683 0.7539
vn 0.6990 0.0678 0.7119
vn 0.6545 0.0737 0.7525
vn 0.6980 0.0718 0.7125
vn 0.6547 0.0832 0.7513
vn 0.6980 0.0820 0.7114
vn 0.8417 0.2918 0.4543
vn 0.8524 0.2720 0.4465
vn 0.8705 0.1926 0.4529
vn 0.8798 0.1172 0.4606
vn 0.8806 0.0573 0.4704
vn 0.8792 0.0598 0.4726
vn 0.8827 0.0710 0.4645
vn 0.9365 0.2627 0.2321
vn 0.9291 0.2865 0.2338
vn 0.9554 0.1794 0.2347
vn 0.9642 0.1029 0.2442
vn 0.9662 0.0434 0.2539
vn 0.9655 0.0481 0.2558
vn 0.9651 0.0587 0.2553
vn 0.9372 0.3364 -0.0925
vn 0.9294 0.3665 -0.0441
vn 0.9346 0.3545 -0.0282
vn 0.9424 0.3253 -0.0779
vn 0.9511 0.3081 0.0209
vn 0.9613 0.2738 -0.0313
vn 0.9628 0.2629 0.0619
vn 0.9742 0.2253 0.0123
vn 0.9690 0.2294 0.0921
vn 0.9809 0.1885 0.0470
vn 0.9688 0.2322 0.0871
vn 0.9803 0.1922 0.0452
vn 0.9679 0.2384 0.0799
vn 0.9793 0.1991 0.0376
vn 0.9345 0.1576 -0.3193
vn 0.9392 0.1338 -0.3161
vn 0.9611 0.0719 -0.2668
vn 0.9763 0.0170 -0.2157
vn 0.9852 -0.0221 -0.1697
vn 0.9854 -0.0185 -0.1695
vn 0.9829 -0.0163 -0.1836
vn 0.8810 -0.0236 -0.4725
vn 0.8749 -0.0021 -0.4843
vn 0.9014 -0.0910 -0.4233
vn 0.9174 -0.1458 -0.3703
vn 0.9272 -0.1853 -0.3254
vn 0.9276 -0.1805 -0.3272
vn 0.9265 -0.1729 -0.3344
vn 0.8985 0.3860 0.2090
vn 0.8712 0.4161 0.2604
vn 0.8716 0.4086 0.2707
vn 0.8951 0.3851 0.2248
vn 0.8755 0.3826 0.2952
vn 0.9023 0.3548 0.2449
vn 0.8794 0.3576 0.3144
vn 0.9070 0.3268 0.2657
vn 0.8812 0.3390 0.3296
vn 0.9090 0.3055 0.2835
vn 0.8816 0.3407 0.3267
vn 0.9082 0.3081 0.2834
vn 0.8817 0.3445 0.3225
vn 0.9087 0.3113 0.2781
vn 0.9745 0.2223 -0.0289
vn 0.9757 0.2183 -0.0174
vn 0.9838 0.1791 0.0004
vn 0.9889 0.1464 0.0239
vn 0.9912 0.1238 0.0477
vn 0.9908 0.1264 0.0486
vn 0.9913 0.1257 0.0378
vn 0.9769 0.0727 -0.2009
vn 0.9752 0.0865 -0.2038
vn 0.9827 0.0307 -0.1828
vn 0.9873 -0.0023 -0.1589
vn 0.9902 -0.0257 -0.1372
vn 0.9904 -0.0224 -0.1367
vn 0.9900 -0.0174 -0.1397
vt 0.865542 0.045895
vt 0.865542 0.026430
vt 0.765061 0.026430
vt 0.765061 0.045895
vt 0.713497 0.026430
vt 0.713497 0.045895
vt 0.660930 0.026430
vt 0.660930 0.045895
vt 0.608468 0.026430
vt 0.608468 0.045895
vt 0.507994 0.026430
vt 0.507994 0.045895
vt 0.363303 0.026430
vt 0.363303 0.045895
vt 0.865542 0.070840
vt 0.765061 0.070840
vt 0.713497 0.070840
vt 0.660930 0.070840
vt 0.608468 0.070840
vt 0.507994 0.070840
vt 0.363303 0.070840
vt 0.765061 0.092039
vt 0.865542 0.092039
vt 0.713497 0.092039
vt 0.660930 0.092039
vt 0.608468 0.092039
vt 0.507994 0.092039
vt 0.363303 0.092039
vt 0.996450 0.177361
vt 0.996450 0.148999
vt 0.864431 0.148999
vt 0.864431 0.177361
vt 0.796363 0.148999
vt 0.796363 0.177361
vt 0.726973 0.148999
vt 0.726973 0.177361
vt 0.657721 0.148999
vt 0.657721 0.177361
vt 0.525091 0.148999
vt 0.525091 0.177361
vt 0.334093 0.148999
vt 0.334093 0.177361
vt 0.996450 0.202307
vt 0.864431 0.202307
vt 0.796363 0.202307
vt 0.726973 0.202307
vt 0.657721 0.202307
vt 0.525091 0.202307
vt 0.334093 0.202307
vt 0.864431 0.223195
vt 0.996450 0.223195
vt 0.796363 0.223195
vt 0.726973 0.223195
vt 0.657721 0.223195
vt 0.525091 0.223195
vt 0.334093 0.223195
vt 0.996450 0.104468
vt 0.996450 0.085003
vt 0.864431 0.085003
vt 0.864431 0.104468
vt 0.796363 0.085003
vt 0.796363 0.104468
vt 0.726973 0.085003
vt 0.726973 0.104468
vt 0.657721 0.085003
vt 0.657721 0.104468
vt 0.525091 0.085003
vt 0.525091 0.104468
vt 0.334093 0.085003
vt 0.334093 0.104468
vt 0.996450 0.129413
vt 0.864431 0.129413
vt 0.796363 0.129413
vt 0.726973 0.129413
vt 0.657721 0.129413
vt 0.525091 0.129413
vt 0.334093 0.129413
vt 0.864431 0.150612
vt 0.996450 0.150612
vt 0.796363 0.150612
vt 0.726973 0.150612
vt 0.657721 0.150612
vt 0.525091 0.150612
vt 0.334093 0.150612
vt 0.996450 0.082779
vt 0.864431 0.082779
vt 0.796363 0.082779
vt 0.726973 0.082779
vt 0.657721 0.082779
vt 0.525091 0.082779
vt 0.334093 0.082779
s 1
usemtl VRayMtl3SG
f 1/1/1 2/2/2 3/3/3
f 1/1/1 3/3/3 4/4/4
f 3/3/3 5/5/5 6/6/6
f 3/3/3 6/6/6 4/4/4
f 5/5/5 7/7/7 8/8/8
f 5/5/5 8/8/8 6/6/6
f 7/7/7 9/9/9 10/10/10
f 7/7/7 10/10/10 8/8/8
f 10/10/10 9/9/9 11/11/11
f 10/10/10 11/11/11 12/12/12
f 12/12/12 11/11/11 13/13/13
f 12/12/12 13/13/13 14/14/14
f 15/15/15 1/1/1 4/4/4
f 15/15/15 4/4/4 16/16/16
f 4/4/4 6/6/6 17/17/17
f 4/4/4 17/17/17 16/16/16
f 6/6/6 8/8/8 18/18/18
f 6/6/6 18/18/18 17/17/17
f 8/8/8 10/10/10 19/19/19
f 8/8/8 19/19/19 18/18/18
f 19/19/19 10/10/10 12/12/12
f 19/19/19 12/12/12 20/20/20
f 20/20/20 12/12/12 14/14/14
f 20/20/20 14/14/14 21/21/21
f 22/22/22 23/23/23 15/15/15
f 22/22/22 15/15/15 16/16/16
f 16/16/16 17/17/17 24/24/24
f 16/16/16 24/24/24 22/22/22
f 17/17/17 18/18/18 25/25/25
f 17/17/17 25/25/25 24/24/24
f 18/18/18 19/19/19 26/26/26
f 18/18/18 26/26/26 25/25/25
f 27/27/27 26/26/26 19/19/19
f 27/27/27 19/19/19 20/20/20
f 28/28/28 27/27/27 20/20/20
f 28/28/28 20/20/20 21/21/21
f 29/29/29 30/30/30 31/31/31
f 29/29/29 31/31/31 32/32/32
f 31/31/31 33/33/33 34/34/34
f 31/31/31 34/34/34 32/32/32
f 33/33/33 35/35/35 36/36/36
f 33/33/33 36/36/36 34/34/34
f 35/35/35 37/37/37 38/38/38
f 35/35/35 38/38/38 36/36/36
f 38/38/38 37/37/37 39/39/39
f 38/38/38 39/39/39 40/40/40
f 40/40/40 39/39/39 41/41/41
f 40/40/40 41/41/41 42/42/42
f 43/43/43 29/29/29 32/32/32
f 43/43/43 32/32/32 44/44/44
f 32/32/32 34/34/34 45/45/45
f 32/32/32 45/45/45 44/44/44
f 34/34/34 36/36/36 46/46/46
f 34/34/34 46/46/46 45/45/45
f 36/36/36 38/38/38 47/47/47
f 36/36/36 47/47/47 46/46/46
f 47/47/47 38/38/38 40/40/40
f 47/47/47 40/40/40 48/48/48
f 48/48/48 40/40/40 42/42/42
f 48/48/48 42/42/42 49/49/49
f 50/50/50 51/51/51 43/43/43
f 50/50/50 43/43/43 44/44/44
f 44/44/44 45/45/45 52/52/52
f 44/44/44 52/52/52 50/50/50
f 45/45/45 46/46/46 53/53/53
f 45/45/45 53/53/53 52/52/52
f 46/46/46 47/47/47 54/54/54
f 46/46/46 54/54/54 53/53/53
f 55/55/55 54/54/54 47/47/47
f 55/55/55 47/47/47 48/48/48
f 56/56/56 55/55/55 48/48/48
f 56/56/56 48/48/48 49/49/49
f 57/57/57 58/58/58 59/59/59
f 57/57/57 59/59/59 60/60/60
f 59/59/59 61/61/61 62/62/62
f 59/59/59 62/62/62 60/60/60
f 61/61/61 63/63/63 64/64/64
f 61/61/61 64/64/64 62/62/62
f 63/63/63 65/65/65 66/66/66
f 63/63/63 66/66/66 64/64/64
f 66/66/66 65/65/65 67/67/67
f 66/66/66 67/67/67 68/68/68
f 68/68/68 67/67/67 69/69/69
f 68/68/68 69/69/69 70/70/70
f 71/71/71 57/57/57 60/60/60
f 71/71/71 60/60/60 72/72/72
f 60/60/60 62/62/62 73/73/73
f 60/60/60 73/73/73 72/72/72
f 62/62/62 64/64/64 74/74/74
f 62/62/62 74/74/74 73/73/73
f 64/64/64 66/66/66 75/75/75
f 64/64/64 75/75/75 74/74/74
f 75/75/75 66/66/66 68/68/68
f 75/75/75 68/68/68 76/76/76
f 76/76/76 68/68/68 70/70/70
f 76/76/76 70/70/70 77/77/77
f 78/78/78 79/79/79 71/71/71
f 78/78/78 71/71/71 72/72/72
f 72/72/72 73/73/73 80/80/80
f 72/72/72 80/80/80 78/78/78
f 73/73/73 74/74/74 81/81/81
f 73/73/73 81/81/81 80/80/80
f 74/74/74 75/75/75 82/82/82
f 74/74/74 82/82/82 81/81/81
f 83/83/83 82/82/82 75/75/75
f 83/83/83 75/75/75 76/76/76
f 84/84/84 83/83/83 76/76/76
f 84/84/84 76/76/76 77/77/77
f 85/57/85 86/85/86 87/86/87
f 85/57/85 87/86/87 88/60/88
f 87/86/87 89/87/89 90/62/90
f 87/86/87 90/62/90 88/60/88
f 89/87/89 91/88/91 92/64/92
f 89/87/89 92/64/92 90/62/90
f 91/88/91 93/89/93 94/66/94
f 91/88/91 94/66/94 92/64/92
f 94/66/94 93/89/93 95/90/95
f 94/66/94 95/90/95 96/68/96
f 96/68/96 95/90/95 97/91/97
f 96/68/96 97/91/97 98/70/98
f 99/71/99 85/57/85 88/60/88
f 99/71/99 88/60/88 100/72/100
f 88/60/88 90/62/90 101/73/101
f 88/60/88 101/73/101 100/72/100
f 90/62/90 92/64/92 102/74/102
f 90/62/90 102/74/102 101/73/101
f 92/64/92 94/66/94 103/75/103
f 92/64/92 103/75/103 102/74/102
f 103/75/103 94/66/94 96/68/96
f 103/75/103 96/68/96 104/76/104
f 104/76/104 96/68/96 98/70/98
f 104/76/104 98/70/98 105/77/105
f 106/78/106 107/79/107 99/71/99
f 106/78/106 99/71/99 100/72/100
f 100/72/100 101/73/101 108/80/108
f 100/72/100 108/80/108 106/78/106
f 101/73/101 102/74/102 109/81/109
f 101/73/101 109/81/109 108/80/108
f 102/74/102 103/75/103 110/82/110
f 102/74/102 110/82/110 109/81/109
f 111/83/111 110/82/110 103/75/103
f 111/83/111 103/75/103 104/76/104
f 112/84/112 111/83/111 104/76/104
f 112/84/112 104/76/104 105/77/105
f 113/1/113 114/2/114 115/3/115
f 113/1/113 115/3/115 116/4/116
f 115/3/115 117/5/117 118/6/118
f 115/3/115 118/6/118 116/4/116
f 117/5/117 119/7/119 120/8/120
f 117/5/117 120/8/120 118/6/118
f 119/7/119 121/9/121 122/10/122
f 119/7/119 122/10/122 120/8/120
f 122/10/122 121/9/121 123/11/123
f 122/10/122 123/11/123 124/12/124
f 124/12/124 123/11/123 125/13/125
f 124/12/124 125/13/125 126/14/126
f 127/15/127 113/1/113 116/4/116
f 127/15/127 116/4/116 128/16/128
f 116/4/116 118/6/118 129/17/129
f 116/4/116 129/17/129 128/16/128
f 118/6/118 120/8/120 130/18/130
f 118/6/118 130/18/130 129/17/129
f 120/8/120 122/10/122 131/19/131
f 120/8/120 131/19/131 130/18/130
f 131/19/131 122/10/122 124/12/124
f 131/19/131 124/12/124 132/20/132
f 132/20/132 124/12/124 126/14/126
f 132/20/132 126/14/126 133/21/133
f 134/22/134 135/23/135 127/15/127
f 134/22/134 127/15/127 128/16/128
f 128/16/128 129/17/129 136/24/136
f 128/16/128 136/24/136 134/22/134
f 129/17/129 130/18/130 137/25/137
f 129/17/129 137/25/137 136/24/136
f 130/18/130 131/19/131 138/26/138
f 130/18/130 138/26/138 137/25/137
f 139/27/139 138/26/138 131/19/131
f 139/27/139 131/19/131 132/20/132
f 140/28/140 139/27/139 132/20/132
f 140/28/140 132/20/132 133/21/133
f 141/1/141 142/2/142 143/3/143
f 141/1/141 143/3/143 144/4/144
f 143/3/143 145/5/145 146/6/146
f 143/3/143 146/6/146 144/4/144
f 145/5/145 147/7/147 148/8/148
f 145/5/145 148/8/148 146/6/146
f 147/7/147 149/9/149 150/10/150
f 147/7/147 150/10/150 148/8/148
f 150/10/150 149/9/149 151/11/151
f 150/10/150 151/11/151 152/12/152
f 152/12/152 151/11/151 153/13/153
f 152/12/152 153/13/153 154/14/154
f 155/15/155 141/1/141 144/4/144
f 155/15/155 144/4/144 156/16/156
f 144/4/144 146/6/146 157/17/157
f 144/4/144 157/17/157 156/16/156
f 146/6/146 148/8/148 158/18/158
f 146/6/146 158/18/158 157/17/157
f 148/8/148 150/10/150 159/19/159
f 148/8/148 159/19/159 158/18/158
f 159/19/159 150/10/150 152/12/152
f 159/19/159 152/12/152 160/20/160
f 160/20/160 152/12/152 154/14/154
f 160/20/160 154/14/154 161/21/161
f 162/22/162 163/23/163 155/15/155
f 162/22/162 155/15/155 156/16/156
f 156/16/156 157/17/157 164/24/164
f 156/16/156 164/24/164 162/22/162
f 157/17/157 158/18/158 165/25/165
f 157/17/157 165/25/165 164/24/164
f 158/18/158 159/19/159 166/26/166
f 158/18/158 166/26/166 165/25/165
f 167/27/167 166/26/166 159/19/159
f 167/27/167 159/19/159 160/20/160
f 168/28/168 167/27/167 160/20/160
f 168/28/168 160/20/160 161/21/161
f 169/1/169 170/2/170 171/3/171
f 169/1/169 171/3/171 172/4/172
f 171/3/171 173/5/173 174/6/174
f 171/3/171 174/6/174 172/4/172
f 173/5/173 175/7/175 176/8/176
f 173/5/173 176/8/176 174/6/174
f 175/7/175 177/9/177 178/10/178
f 175/7/175 178/10/178 176/8/176
f 178/10/178 177/9/177 179/11/179
f 178/10/178 179/11/179 180/12/180
f 180/12/180 179/11/179 181/13/181
f 180/12/180 181/13/181 182/14/182
f 183/15/183 169/1/169 172/4/172
f 183/15/183 172/4/172 184/16/184
f 172/4/172 174/6/174 185/17/185
f 172/4/172 185/17/185 184/16/184
f 174/6/174 176/8/176 186/18/186
f 174/6/174 186/18/186 185/17/185
f 176/8/176 178/10/178 187/19/187
f 176/8/176 187/19/187 186/18/186
f 187/19/187 178/10/178 180/12/180
f 187/19/187 180/12/180 188/20/188
f 188/20/188 180/12/180 182/14/182
f 188/20/188 182/14/182 189/21/189
f 190/22/190 191/23/191 183/15/183
f 190/22/190 183/15/183 184/16/184
f 184/16/184 185/17/185 192/24/192
f 184/16/184 192/24/192 190/22/190
f 185/17/185 186/18/186 193/25/193
f 185/17/185 193/25/193 192/24/192
f 186/18/186 187/19/187 194/26/194
f 186/18/186 194/26/194 193/25/193
f 195/27/195 194/26/194 187/19/187
f 195/27/195 187/19/187 188/20/188
f 196/28/196 195/27/195 188/20/188
f 196/28/196 188/20/188 189/21/189
f 197/29/197 198/30/198 199/31/199
f 197/29/197 199/31/199 200/32/200
f 199/31/199 201/33/201 202/34/202
f 199/31/199 202/34/202 200/32/200
f 201/33/201 203/35/203 204/36/204
f 201/33/201 204/36/204 202/34/202
f 203/35/203 205/37/205 206/38/206
f 203/35/203 206/38/206 204/36/204
f 206/38/206 205/37/205 207/39/207
f 206/38/206 207/39/207 208/40/208
f 208/40/208 207/39/207 209/41/209
f 208/40/208 209/41/209 210/42/210
f 211/43/211 197/29/197 200/32/200
f 211/43/211 200/32/200 212/44/212
f 200/32/200 202/34/202 213/45/213
f 200/32/200 213/45/213 212/44/212
f 202/34/202 204/36/204 214/46/214
f 202/34/202 214/46/214 213/45/213
f 204/36/204 206/38/206 215/47/215
f 204/36/204 215/47/215 214/46/214
f 215/47/215 206/38/206 208/40/208
f 215/47/215 208/40/208 216/48/216
f 216/48/216 208/40/208 210/42/210
f 216/48/216 210/42/210 217/49/217
f 218/50/218 219/51/219 211/43/211
f 218/50/218 211/43/211 212/44/212
f 212/44/212 213/45/213 220/52/220
f 212/44/212 220/52/220 218/50/218
f 213/45/213 214/46/214 221/53/221
f 213/45/213 221/53/221 220/52/220
f 214/46/214 215/47/215 222/54/222
f 214/46/214 222/54/222 221/53/221
f 223/55/223 222/54/222 215/47/215
f 223/55/223 215/47/215 216/48/216
f 224/56/224 223/55/223 216/48/216
f 224/56/224 216/48/216 217/49/217
