# Blender 5.1.0
# www.blender.org
mtllib svechka.mtl
o defaultMaterial
v 0.032941 3.084257 0.015064
v 0.049870 3.078776 0.044026
v 0.060627 3.068370 0.036212
v 0.039084 2.870293 -0.019535
v 0.043240 2.866678 0.003221
v 0.052340 2.860121 -0.010225
v 0.093145 2.974820 0.061427
v 0.081063 3.017081 0.057632
v 0.087903 3.014246 0.063756
v 0.073936 2.945911 0.039607
v 0.071934 2.958743 0.047134
v 0.082456 2.972545 0.051859
v 0.067997 2.929050 0.034541
v 0.061620 2.935954 0.032017
v 0.073936 2.945911 0.039607
v 0.075095 3.000294 0.080451
v 0.071028 2.999738 0.076310
v 0.075037 2.971687 0.079647
v 0.077458 3.017569 0.077913
v 0.065128 3.021481 0.075882
v 0.003360 2.871170 0.013973
v 0.017507 2.866601 0.030015
v 0.021108 2.876938 0.022025
v 0.093145 2.974820 0.061427
v 0.087562 3.005930 0.073207
v 0.088020 2.967473 0.074698
v 0.053446 2.944942 0.064394
v 0.065386 2.956804 0.073875
v 0.063925 2.971424 0.071341
v 0.054064 3.049683 0.076208
v 0.041656 3.045615 0.064506
v 0.069391 2.984334 0.075302
v 0.060627 3.068370 0.036212
v 0.046655 3.068853 0.033030
v 0.023578 3.079785 0.021602
v 0.053806 2.914504 0.044883
v 0.059316 2.914616 0.035953
v 0.072679 2.933157 0.056746
v 0.072679 2.933157 0.056746
v 0.059316 2.914616 0.035953
v 0.030710 2.875759 0.024890
v 0.054454 2.930137 0.059274
v 0.030885 2.916184 0.032996
v 0.077458 3.017569 0.077913
v 0.080152 3.026669 0.069344
v 0.072679 2.933157 0.056746
v 0.081482 2.944270 0.051908
v 0.093145 2.974820 0.061427
v 0.068202 3.046248 0.047577
v 0.073751 3.047554 0.049341
v 0.055955 3.047481 0.047665
v 0.060627 3.068370 0.036212
v 0.068202 3.046248 0.047577
v 0.031806 3.049161 0.048342
v 0.033521 3.060761 0.036743
v 0.046655 3.068853 0.033030
v 0.088702 2.986609 0.057593
v 0.050761 3.037445 0.054125
v 0.055433 3.025773 0.064633
v -0.000001 2.863658 -0.019004
v 0.019719 2.899148 0.013958
v 0.019719 2.899148 0.013958
v 0.025507 2.900615 0.011425
v -0.000001 2.863658 -0.019004
v 0.023578 3.079785 0.021602
v 0.054454 2.930137 0.059274
v 0.040648 2.930731 0.050330
v 0.037452 2.915736 0.045614
v 0.068670 2.984368 0.065997
v 0.075977 2.984665 0.058470
v 0.065469 2.965793 0.056970
v 0.072830 3.049907 0.056122
v 0.037452 2.915736 0.045614
v 0.017507 2.866601 0.030015
v 0.048355 3.076574 0.054125
v 0.041759 3.072994 0.061690
v 0.061211 3.057326 0.074454
v 0.041413 2.872154 0.023740
v 0.017507 2.866601 0.030015
v 0.031908 2.854455 0.035754
v 0.071252 3.029801 0.080403
v 0.072114 3.042779 0.071804
v 0.071252 3.029801 0.080403
v 0.068538 2.941882 0.067897
v 0.066395 3.025733 0.059878
v 0.062244 3.070012 0.044995
v 0.062244 3.070012 0.044995
v 0.061528 3.065983 0.060390
v 0.072830 3.049907 0.056122
v 0.071403 3.025885 0.056673
v 0.081063 3.017081 0.057632
v 0.063925 2.971424 0.071341
v 0.056802 2.957998 0.062874
v 0.056802 2.957998 0.062874
v 0.087903 3.014246 0.063756
v 0.072830 3.049907 0.056122
v 0.087562 3.005930 0.073207
v 0.075037 2.971687 0.079647
v 0.069381 2.999363 0.068803
v 0.069391 2.984334 0.075302
v 0.066107 3.013092 0.067536
v 0.035718 2.877333 0.009091
v 0.037603 2.875783 0.013895
v 0.043240 2.866678 0.003221
v 0.052881 2.918908 0.019755
v 0.010994 3.079000 0.033245
v 0.031806 3.049161 0.048342
v 0.032225 3.067211 0.062314
v 0.031450 3.084481 0.035773
v 0.049870 3.078776 0.044026
v 0.041759 3.072994 0.061690
v 0.061211 3.057326 0.074454
v 0.051210 2.943266 0.049370
v 0.059189 2.943860 0.041156
v 0.042582 2.924466 0.030273
v 0.061620 2.935954 0.032017
v 0.073634 3.007197 0.062436
v 0.044457 2.918011 0.018791
v 0.088702 2.986609 0.057593
v 0.081107 2.999587 0.058295
v 0.081346 2.997872 0.079175
v 0.085628 2.959415 0.050330
v 0.081482 2.944270 0.051908
v 0.082456 2.972545 0.051859
v 0.041413 2.872154 0.023740
v 0.010994 3.079000 0.033245
v 0.031450 3.084481 0.035773
v 0.040648 2.930731 0.050330
v 0.030885 2.916184 0.032996
v 0.066107 3.013092 0.067536
v 0.031450 3.084481 0.035773
v 0.032941 3.084257 0.015064
v 0.023578 3.079785 0.021602
v 0.080152 3.026669 0.069344
v 0.087562 3.005930 0.073207
v 0.072830 3.049907 0.056122
v 0.055433 3.025773 0.064633
v 0.031450 3.084481 0.035773
v 0.052881 2.918908 0.019755
v 0.039084 2.870293 -0.019535
v 0.088020 2.967473 0.074698
v 0.072679 2.933157 0.056746
v 0.093145 2.974820 0.061427
v 0.087562 3.005930 0.073207
v 0.060627 3.068370 0.036212
v 0.023578 3.079785 0.021602
v 0.032941 3.084257 0.015064
v 0.068538 2.941882 0.067897
v 0.075095 3.000294 0.080451
v 0.031450 3.084481 0.035773
v 0.039084 2.870293 -0.019535
v 0.003360 2.871170 0.013973
v -0.006115 2.856575 0.025416
v 0.017507 2.866601 0.030015
v 0.041413 2.872154 0.023740
v 0.055955 3.047481 0.047665
v -0.000001 2.863658 -0.019004
v -0.016336 2.856000 -0.004296
v 0.003360 2.871170 0.013973
v 0.030710 2.875759 0.024890
v 0.048355 3.076574 0.054125
v 0.054064 3.049683 0.076208
v 0.065386 2.956804 0.073875
v 0.069381 2.999363 0.068803
v 0.035718 2.877333 0.009091
v 0.039084 2.870293 -0.019535
v 0.052881 2.918908 0.019755
v 0.081107 2.999587 0.058295
vn 0.8974 0.1501 0.4150
vn 0.6662 0.7412 -0.0826
vn -0.3545 0.4459 -0.8219
vn 0.3023 0.8724 -0.3841
vn 0.5995 0.5973 0.5328
vn 0.6572 0.6718 -0.3417
vn 0.8001 0.5488 -0.2423
vn 0.8036 -0.2598 -0.5354
vn 0.9211 -0.3404 -0.1888
vn 0.3891 0.6019 -0.6973
vn -0.1649 0.7035 -0.6914
vn -0.0231 -0.2231 -0.9745
vn 0.6252 0.1176 -0.7715
vn 0.3887 0.7145 -0.5817
vn 0.3892 0.6019 -0.6973
vn -0.6892 -0.0543 0.7225
vn -0.7268 -0.2849 0.6250
vn -0.0686 0.5417 0.8378
vn -0.0945 0.3914 0.9154
vn -0.3292 -0.6270 0.7060
vn -0.9538 -0.0161 0.3001
vn -0.3445 -0.2782 0.8966
vn -0.9098 0.1212 0.3969
vn 0.8115 -0.2663 0.5201
vn 0.9943 -0.0098 0.1063
vn -0.3891 0.2005 0.8991
vn -0.4119 0.1650 0.8962
vn -0.9369 -0.2962 0.1858
vn -0.7231 -0.0336 0.6899
vn -0.5673 -0.5289 0.6312
vn -0.5518 -0.3024 0.7772
vn -0.3545 0.4458 -0.8219
vn 0.1075 -0.5082 -0.8545
vn 0.7409 -0.2787 -0.6111
vn 0.6914 -0.6482 0.3191
vn 0.8693 -0.3292 0.3686
vn 0.2498 -0.9528 0.1728
vn 0.2498 -0.9528 0.1727
vn 0.3295 -0.0934 0.9395
vn -0.2744 -0.7577 0.5922
vn -0.9643 0.2633 -0.0267
vn 0.8391 0.1823 0.5125
vn 0.9921 -0.0669 0.1059
vn 0.8001 0.5487 -0.2423
vn 0.4069 -0.3075 -0.8602
vn 0.7914 -0.5687 -0.2241
vn -0.0073 -0.3816 -0.9243
vn -0.5790 -0.1109 -0.8078
vn 0.0811 -0.7152 -0.6942
vn 0.4566 0.6575 -0.5993
vn -0.0827 -0.7886 -0.6093
vn -0.9585 -0.1703 -0.2284
vn -0.6126 0.4805 -0.6276
vn -0.7476 0.5625 -0.3530
vn -0.7476 0.5626 -0.3530
vn -0.4373 0.5284 -0.7277
vn -0.6126 0.4805 -0.6275
vn -0.2743 -0.7577 0.5922
vn -0.9115 -0.3927 0.1224
vn -0.2864 0.0700 0.9555
vn -0.6841 0.2077 -0.6992
vn -0.6446 0.0154 -0.7644
vn -0.5465 0.7504 -0.3718
vn 0.9784 0.1586 0.1324
vn 0.1100 0.8055 0.5823
vn 0.1773 0.4929 0.8518
vn 0.0854 0.9349 0.3445
vn -0.1770 0.8935 0.4127
vn -0.4802 0.5204 0.7061
vn 0.2292 0.7984 0.5568
vn -0.2187 0.5856 0.7805
vn 0.7898 0.2515 0.5595
vn -0.2187 0.5855 0.7806
vn 0.1938 -0.0730 0.9783
vn -0.0821 -0.4591 -0.8846
vn 0.9251 0.3789 0.0239
vn 0.9251 0.3789 0.0240
vn 0.8179 0.4923 0.2979
vn 0.9784 0.1587 0.1324
vn -0.3712 -0.2467 -0.8952
vn 0.8036 -0.2599 -0.5355
vn -0.9369 -0.2962 0.1859
vn -0.6116 0.7604 0.2186
vn 0.9211 -0.3404 -0.1889
vn 0.9784 0.1586 0.1325
vn 0.8115 -0.2664 0.5201
vn -0.0687 0.5417 0.8378
vn -0.8237 -0.4802 -0.3016
vn -0.5517 -0.3024 0.7773
vn -0.4931 -0.8599 -0.1321
vn 0.9973 -0.0143 0.0720
vn 0.9047 -0.0021 -0.4260
vn 0.9728 0.0968 -0.2106
vn 0.7303 0.4638 -0.5016
vn -0.2402 -0.8612 0.4479
vn -0.5789 -0.1109 -0.8078
vn -0.9126 0.4056 0.0508
vn 0.2198 0.8272 0.5172
vn 0.6662 0.7412 -0.0825
vn -0.5772 0.6344 -0.5141
vn -0.5505 0.5334 -0.6422
vn -0.4554 0.8443 -0.2823
vn -0.7688 0.0293 -0.6388
vn -0.4092 0.5476 -0.7298
vn -0.2497 0.3700 -0.8948
vn 0.4241 -0.3954 0.8148
vn 0.7140 -0.4042 -0.5718
vn -0.0232 -0.2231 -0.9745
vn 0.6737 -0.7319 -0.1018
vn -0.2403 -0.8612 0.4480
vn -0.9115 -0.3926 0.1224
vn -0.9644 0.2633 -0.0267
vn -0.4931 -0.8599 -0.1322
vn 0.8974 0.1500 0.4150
vn 0.8391 0.1822 0.5125
vn 0.8116 -0.2664 0.5200
vn -0.9585 -0.1703 -0.2286
vn 0.2197 0.8271 0.5173
vn 0.5818 0.1134 -0.8054
vn 0.9943 -0.0098 0.1062
vn 0.8001 0.5488 -0.2422
vn -0.3544 0.4459 -0.8219
vn 0.7408 -0.2787 -0.6111
vn 0.8973 0.1501 0.4151
vn 0.1938 -0.0729 0.9783
vn -0.6893 -0.0543 0.7225
vn 0.2197 0.8272 0.5172
vn -0.3113 0.9305 0.1930
vn -0.2756 0.6306 0.7255
vn 0.1646 0.6738 0.7204
vn 0.6737 -0.7319 -0.1019
vn -0.4084 0.8364 -0.3656
vn -0.6547 0.7409 -0.1500
vn -0.4105 0.8640 0.2915
vn 0.3295 -0.0933 0.9395
vn 0.1099 0.8055 0.5823
vn -0.7232 -0.0336 0.6898
vn -0.4119 0.1650 0.8961
vn -0.8237 -0.4802 -0.3015
vn 0.9973 -0.0143 0.0721
vn 0.7303 0.4637 -0.5016
vt 0.048630 0.205851
vt 0.040523 0.206209
vt 0.040206 0.209328
vt 0.048630 0.264039
vt 0.043584 0.264099
vt 0.044684 0.266417
vt 0.028227 0.233266
vt 0.031812 0.222157
vt 0.029588 0.222690
vt 0.540589 0.236147
vt 0.540793 0.239991
vt 0.543625 0.242615
vt 0.035732 0.246389
vt 0.037310 0.244634
vt 0.034368 0.241736
vt 0.418744 0.260784
vt 0.419928 0.259952
vt 0.415866 0.253884
vt 0.420687 0.264966
vt 0.423078 0.264532
vt 0.425927 0.218076
vt 0.420837 0.219529
vt 0.422816 0.221791
vt 0.495246 0.227081
vt 0.495804 0.218245
vt 0.491834 0.227574
vt 0.418498 0.244263
vt 0.416555 0.248958
vt 0.418724 0.252127
vt 0.427465 0.270193
vt 0.430672 0.267157
vt 0.418689 0.256036
vt 0.464317 0.134853
vt 0.465705 0.132377
vt 0.466967 0.125593
vt 0.484719 0.239137
vt 0.486885 0.240177
vt 0.488209 0.235619
vt 0.030923 0.244426
vt 0.036312 0.250127
vt 0.479600 0.247665
vt 0.484442 0.234497
vt 0.423798 0.232921
vt 0.494599 0.214171
vt 0.497132 0.212733
vt 0.392708 0.121701
vt 0.391262 0.125349
vt 0.392708 0.133307
vt 0.036355 0.214770
vt 0.035261 0.214375
vt 0.548030 0.262553
vt 0.552595 0.266092
vt 0.550033 0.261062
vt 0.543933 0.265357
vt 0.546945 0.266978
vt 0.550598 0.267306
vt 0.029911 0.230275
vt 0.545208 0.261219
vt 0.543430 0.258870
vt 0.431201 0.213610
vt 0.426721 0.226390
vt 0.528916 0.228274
vt 0.530396 0.227849
vt 0.525413 0.219105
vt 0.549197 0.271196
vt 0.417674 0.240462
vt 0.421087 0.238597
vt 0.420730 0.234361
vt 0.540867 0.247912
vt 0.543080 0.246652
vt 0.539285 0.243094
vt 0.034157 0.213475
vt 0.481943 0.237264
vt 0.475727 0.248348
vt 0.498740 0.198530
vt 0.496226 0.198320
vt 0.496262 0.203170
vt 0.481228 0.249615
vt 0.476201 0.252301
vt 0.422376 0.267449
vt 0.497033 0.207900
vt 0.494422 0.210453
vt 0.415581 0.245282
vt 0.545907 0.257403
vt 0.038337 0.208546
vt 0.501700 0.201994
vt 0.499087 0.201958
vt 0.499995 0.207199
vt 0.547183 0.256687
vt 0.547749 0.253745
vt 0.537928 0.245755
vt 0.536179 0.242582
vt 0.419692 0.247609
vt 0.783112 0.160091
vt 0.784617 0.169840
vt 0.784617 0.157843
vt 0.489361 0.225027
vt 0.542358 0.251615
vt 0.539869 0.248597
vt 0.543500 0.255072
vt 0.043818 0.261005
vt 0.042589 0.261231
vt 0.040446 0.249615
vt 0.443583 0.269869
vt 0.435104 0.265879
vt 0.434574 0.271225
vt 0.499123 0.196157
vt 0.500588 0.198760
vt 0.434031 0.273511
vt 0.427626 0.272607
vt 0.535155 0.238537
vt 0.537601 0.237226
vt 0.533813 0.233368
vt 0.538225 0.234371
vt 0.544755 0.252528
vt 0.534787 0.230718
vt 0.545622 0.245799
vt 0.545690 0.249663
vt 0.493125 0.219260
vt 0.031010 0.237769
vt 0.030893 0.241707
vt 0.031522 0.234211
vt 0.040062 0.261812
vt 0.545515 0.273193
vt 0.441025 0.273395
vt 0.531776 0.236684
vt 0.530507 0.232775
vt 0.423485 0.262032
vt 0.492353 0.126093
vt 0.491089 0.129776
vt 0.492353 0.130500
vt 0.783112 0.132804
vt 0.783811 0.138738
vt 0.783811 0.125491
vt 0.426732 0.263795
vt 0.549397 0.272703
vt 0.536241 0.230188
vt 0.533039 0.216820
vt 0.782614 0.252221
vt 0.784877 0.263017
vt 0.784877 0.251458
vt 0.027604 0.224515
vt 0.525289 0.131696
vt 0.525289 0.125335
vt 0.523151 0.127600
vt 0.486860 0.232414
vt 0.492123 0.218005
vt 0.044883 0.204952
vt 0.423688 0.214457
vt 0.466967 0.139576
vt 0.416640 0.134800
vt 0.416640 0.128594
vt 0.413371 0.131350
vt 0.420932 0.222668
vt 0.434826 0.274487
vt 0.494035 0.204258
vt 0.487002 0.228111
vt 0.421386 0.259167
vt 0.027604 0.146301
vt 0.031856 0.149378
vt 0.031856 0.136210
vt 0.031209 0.226772
s 1
usemtl metal
f 1/1/1 2/2/2 3/3/3
f 4/4/4 5/5/5 6/6/6
f 7/7/7 8/8/8 9/9/9
f 10/10/10 11/11/11 12/12/12
f 13/13/13 14/14/14 15/15/15
f 16/16/16 17/17/17 18/18/18
f 19/19/19 20/20/20 16/16/16
f 21/21/21 22/22/22 23/23/23
f 24/24/7 25/25/24 26/26/25
f 27/27/26 28/28/27 29/29/28
f 30/30/29 31/31/30 20/20/20
f 17/17/17 32/32/31 18/18/18
f 33/33/32 34/34/33 35/35/34
f 36/36/35 37/37/36 38/38/37
f 13/13/13 39/39/38 40/40/36
f 41/41/39 36/36/35 42/42/40
f 38/38/37 42/42/40 36/36/35
f 23/23/23 43/43/41 21/21/21
f 44/44/19 25/25/24 45/45/42
f 46/46/38 47/47/43 48/48/44
f 49/49/45 50/50/46 8/8/8
f 51/51/47 52/52/3 53/53/45
f 51/51/47 54/54/48 55/55/49
f 55/55/49 56/56/33 51/51/47
f 7/7/7 57/57/50 8/8/8
f 58/58/51 59/59/52 54/54/48
f 60/60/53 21/21/21 61/61/54
f 62/62/55 63/63/56 64/64/57
f 55/55/49 54/54/48 65/65/34
f 66/66/58 67/67/59 68/68/60
f 69/69/61 70/70/62 71/71/63
f 12/12/12 71/71/63 70/70/62
f 50/50/46 72/72/64 8/8/8
f 41/41/39 73/73/60 74/74/22
f 75/75/65 76/76/66 77/77/67
f 78/78/68 79/74/69 80/79/70
f 81/80/71 30/30/29 20/20/20
f 68/68/60 23/23/23 22/22/22
f 82/81/72 83/82/73 44/44/19
f 84/83/74 28/28/27 66/66/58
f 85/84/75 58/58/51 51/51/47
f 86/85/76 50/50/46 3/3/3
f 87/86/77 88/87/78 89/88/79
f 77/77/67 89/88/79 88/87/78
f 90/89/80 53/53/45 91/90/81
f 92/91/82 71/71/63 93/92/83
f 94/93/83 27/27/26 29/29/28
f 95/94/84 96/95/85 97/96/86
f 26/26/25 98/97/87 38/38/37
f 99/98/88 100/99/89 101/100/90
f 102/101/91 103/102/92 104/5/93
f 102/101/91 105/103/94 13/13/13
f 9/9/9 8/8/8 72/72/64
f 25/25/24 98/97/87 26/26/25
f 106/104/95 107/105/96 108/106/97
f 109/107/98 75/75/65 110/108/99
f 111/109/66 30/30/29 112/110/67
f 113/111/100 114/112/101 115/113/102
f 116/114/14 115/113/102 114/112/101
f 11/11/11 114/112/101 71/71/63
f 117/115/103 101/100/90 85/84/75
f 118/116/104 63/63/56 115/113/102
f 119/117/50 120/118/105 91/90/81
f 25/25/24 121/119/106 98/97/87
f 122/120/107 123/121/43 13/13/13
f 124/122/108 7/7/7 122/120/107
f 2/2/2 86/85/76 3/3/3
f 103/102/92 40/40/36 125/123/109
f 125/123/109 104/5/93 103/102/92
f 107/105/96 31/31/30 108/106/97
f 65/65/34 54/54/48 126/124/110
f 108/106/97 127/125/98 106/104/95
f 99/98/88 69/69/61 92/91/82
f 91/90/81 117/115/103 90/89/80
f 85/84/75 90/89/80 117/115/103
f 75/75/65 88/87/78 110/108/99
f 128/126/111 115/113/102 129/127/112
f 20/20/20 130/128/113 17/17/17
f 131/129/98 132/130/114 133/131/34
f 82/81/72 45/45/42 89/88/79
f 134/132/115 135/133/116 136/134/79
f 29/29/28 18/18/18 32/32/31
f 120/118/105 70/70/62 117/115/103
f 137/135/117 31/31/30 107/105/96
f 65/65/34 126/124/110 138/136/118
f 118/116/104 139/137/94 140/138/119
f 141/139/120 142/140/38 143/141/121
f 144/142/24 7/7/7 9/9/9
f 145/143/122 146/144/123 147/145/124
f 43/43/41 61/61/54 21/21/21
f 113/111/100 93/92/83 71/71/63
f 122/120/107 15/15/15 124/122/108
f 98/97/87 148/146/125 38/38/37
f 149/147/126 121/119/106 44/44/19
f 1/1/1 150/148/127 2/2/2
f 151/4/119 102/101/91 104/5/93
f 10/10/10 116/114/14 11/11/11
f 13/13/13 105/103/94 14/14/14
f 16/16/16 20/20/20 17/17/17
f 19/19/19 81/80/71 20/20/20
f 152/21/128 153/149/129 154/22/130
f 27/27/26 66/66/58 28/28/27
f 30/30/29 108/106/97 31/31/30
f 17/17/17 130/128/113 32/32/31
f 36/36/35 155/78/131 37/37/36
f 13/13/13 123/121/43 39/39/38
f 41/41/39 155/78/131 36/36/35
f 38/38/37 148/146/125 42/42/40
f 23/23/23 67/67/59 43/43/41
f 44/44/19 121/119/106 25/25/24
f 49/49/45 3/3/3 50/50/46
f 156/150/47 34/34/33 33/33/32
f 51/51/47 58/58/51 54/54/48
f 55/55/49 65/65/34 56/56/33
f 58/58/51 101/100/90 59/59/52
f 64/64/57 63/63/56 140/138/119
f 157/151/132 158/152/133 159/153/134
f 62/62/55 115/113/102 63/63/56
f 66/66/58 27/27/26 67/67/59
f 69/69/61 117/115/103 70/70/62
f 12/12/12 11/11/11 71/71/63
f 160/154/135 66/66/58 68/68/60
f 161/155/136 127/125/98 111/109/66
f 155/78/131 41/41/39 74/74/22
f 83/82/73 77/77/67 162/156/137
f 68/68/60 67/67/59 23/23/23
f 82/81/72 77/77/67 83/82/73
f 148/146/125 98/97/87 163/157/138
f 85/84/75 101/100/90 58/58/51
f 86/85/76 72/72/64 50/50/46
f 87/86/77 110/108/99 88/87/78
f 77/77/67 82/81/72 89/88/79
f 90/89/80 51/51/47 53/53/45
f 92/91/82 69/69/61 71/71/63
f 94/93/83 67/67/59 27/27/26
f 164/158/139 29/29/28 32/32/31
f 102/101/91 13/13/13 103/102/92
f 165/159/140 166/160/119 167/161/141
f 111/109/66 108/106/97 30/30/29
f 113/111/100 71/71/63 114/112/101
f 116/114/14 118/116/104 115/113/102
f 11/11/11 116/114/14 114/112/101
f 117/115/103 99/98/88 101/100/90
f 118/116/104 140/138/119 63/63/56
f 57/57/50 124/122/108 168/162/105
f 122/120/107 7/7/7 123/121/43
f 124/122/108 57/57/50 7/7/7
f 103/102/92 13/13/13 40/40/36
f 108/106/97 111/109/66 127/125/98
f 99/98/88 117/115/103 69/69/61
f 91/90/81 120/118/105 117/115/103
f 85/84/75 51/51/47 90/89/80
f 75/75/65 77/77/67 88/87/78
f 128/126/111 113/111/100 115/113/102
f 20/20/20 137/135/117 130/128/113
f 82/81/72 44/44/19 45/45/42
f 29/29/28 28/28/27 18/18/18
f 120/118/105 12/12/12 70/70/62
f 137/135/117 20/20/20 31/31/30
f 118/116/104 116/114/14 139/137/94
f 129/127/112 115/113/102 62/62/55
f 113/111/100 128/126/111 93/92/83
f 122/120/107 13/13/13 15/15/15
f 149/147/126 98/97/87 121/119/106
o defaultMaterial.001
v 0.079178 2.848497 -0.057768
v 0.099731 2.840045 -0.105924
v 0.052125 2.845925 -0.084050
v -0.322301 2.560713 -0.172968
v -0.210925 2.856170 -0.213763
v -0.234426 2.527294 -0.272262
v -0.237943 2.858109 -0.126268
v -0.348223 2.600924 -0.039387
v -0.289534 2.863556 -0.061105
v 0.217558 2.653626 -0.303972
v 0.200175 2.613863 -0.360356
v 0.200438 2.653718 -0.363572
v 0.189857 2.770161 -0.297210
v 0.302432 2.668475 -0.221441
v 0.217558 2.653626 -0.303972
v -0.304593 2.523450 0.206813
v -0.265907 2.503082 0.241986
v -0.312982 2.568844 0.242965
v 0.219404 2.586864 -0.313496
v 0.228709 2.538966 -0.317115
v 0.195026 2.551004 -0.332067
v 0.257559 2.849900 0.000600
v 0.201004 2.837595 -0.027627
v 0.183032 2.825990 0.017607
v -0.052498 2.870863 0.347307
v -0.100289 2.825844 0.356032
v -0.007674 2.524756 0.395600
v 0.052125 2.845925 -0.084050
v 0.031606 2.853618 -0.058152
v 0.039084 2.870293 -0.019535
v -0.038916 2.839928 -0.042802
v -0.046818 2.840445 -0.011838
v -0.023546 2.850461 -0.017713
v 0.018984 2.854265 -0.052087
v 0.012689 2.858382 -0.037097
v 0.039084 2.870293 -0.019535
v -0.088768 2.823905 -0.027169
v -0.056522 2.830019 -0.032459
v -0.109653 2.819876 -0.069898
v 0.003667 2.846671 0.046890
v 0.019982 2.847796 0.046710
v 0.017507 2.866601 0.030015
v 0.059862 2.854787 -0.002854
v 0.052340 2.860121 -0.010225
v 0.043240 2.866678 0.003221
v -0.209054 2.833712 0.114738
v -0.143092 2.824461 0.115021
v -0.144724 2.826438 0.053258
v -0.025758 2.823530 -0.125532
v -0.038765 2.827783 -0.199694
v -0.058169 2.830799 -0.106416
v -0.023546 2.850461 -0.017713
v -0.016336 2.856000 -0.004296
v -0.000001 2.863658 -0.019004
v 0.147605 2.829946 -0.032104
v 0.137160 2.842505 -0.066844
v 0.117118 2.838832 -0.035061
v 0.401224 2.416064 0.033571
v 0.368813 2.448587 0.159977
v 0.414280 1.990690 0.085104
v 0.434649 1.244833 -0.004632
v 0.414280 1.990690 0.085104
v 0.451125 0.812862 0.197664
v -0.006125 2.844220 -0.072251
v -0.024944 2.844581 -0.057724
v -0.000001 2.863658 -0.019004
v 0.274381 0.875112 0.327826
v 0.516785 0.246555 0.290392
v 0.451125 0.812862 0.197664
v -0.339391 0.246555 0.574313
v -0.447902 0.805140 0.149493
v -0.596649 0.246555 -0.004631
v 0.263449 2.862659 0.224701
v 0.315205 2.817299 0.198721
v 0.293468 2.856467 0.150930
v 0.046484 2.849696 0.034010
v 0.031908 2.854455 0.035754
v 0.043654 2.837940 0.061900
v 0.162780 2.688185 -0.370645
v 0.188440 2.705222 -0.354900
v 0.200438 2.653718 -0.363572
v 0.063213 0.246555 -0.715963
v -0.089431 0.656423 -0.467284
v 0.015851 0.807712 -0.473568
v 0.103317 2.858109 -0.251689
v 0.163604 2.874108 -0.291798
v 0.091328 2.881157 -0.302028
v -0.183205 2.829050 0.300261
v -0.261020 2.863181 0.236384
v -0.216542 2.568255 0.266072
v -0.073325 0.807338 0.472860
v -0.134932 1.236142 0.419617
v -0.085207 2.450453 -0.342589
v 0.012251 1.994645 -0.389469
v 0.333903 2.849715 0.118684
v 0.265183 2.644935 0.275566
v 0.139202 2.598050 0.351798
v 0.088980 1.999902 0.400208
v 0.184523 1.247035 0.384468
v -0.139175 2.404796 0.351623
v -0.007674 2.524756 0.395600
v -0.100289 2.825844 0.356032
v 0.107453 2.837068 -0.207917
v 0.175457 2.851391 -0.189195
v 0.174546 2.866016 -0.240509
v 0.250446 2.877728 -0.204512
v 0.171705 2.820622 0.078308
v 0.220354 2.828602 0.051377
v 0.313334 2.859897 0.049409
v -0.029831 2.836513 0.249644
v 0.022930 2.825805 0.208045
v -0.004883 2.823511 0.169705
v 0.058736 2.820846 0.156561
v -0.045819 2.823998 0.088134
v -0.047588 2.829142 0.063527
v -0.085480 2.815584 0.090253
v -0.000001 2.863658 -0.019004
v -0.024944 2.844581 -0.057724
v -0.038916 2.839928 -0.042802
v -0.147866 2.870303 0.265458
v -0.205839 2.876310 0.251369
v -0.136481 2.885001 0.312411
v -0.080739 2.867804 0.303983
v -0.085977 2.847031 0.258233
v -0.094814 2.848673 -0.279823
v -0.017359 2.818381 -0.330888
v 0.064568 2.529233 -0.365043
v 0.081809 2.848722 -0.024333
v 0.079178 2.848497 -0.057768
v 0.039084 2.870293 -0.019535
v 0.109903 2.830691 -0.163756
v 0.052398 2.833600 -0.197502
v 0.062780 2.831588 -0.143977
v -0.321512 2.812603 0.067527
v -0.272707 2.847703 0.141630
v -0.273058 2.843933 0.085479
v -0.272707 2.847703 0.141630
v -0.198166 2.859751 0.186849
v 0.231383 2.040001 0.332536
v 0.310173 2.031198 0.265794
v 0.169430 2.831028 0.147442
v 0.150718 2.842812 0.220921
v 0.206596 2.859897 0.232150
v 0.155156 2.858070 0.298463
v 0.280378 1.252481 -0.343719
v 0.367049 2.615169 -0.094402
v 0.099731 2.840045 -0.105924
v 0.062780 2.831588 -0.143977
v 0.052125 2.845925 -0.084050
v 0.099731 2.840045 -0.105924
v 0.165806 2.847567 -0.127613
v 0.109903 2.830691 -0.163756
v -0.157692 2.814800 -0.283413
v -0.210925 2.856170 -0.213763
v -0.154691 2.848522 -0.212813
v -0.157692 2.814800 -0.283413
v 0.368725 2.829834 0.004843
v 0.326215 2.872393 -0.037370
v 0.313334 2.859897 0.049409
v 0.280378 1.252481 -0.343719
v 0.115613 1.247556 -0.418056
v 0.064568 2.529233 -0.365043
v 0.043654 2.837940 0.061900
v 0.073249 2.837020 0.043831
v 0.046484 2.849696 0.034010
v 0.046484 2.849696 0.034010
v 0.056983 2.850763 0.021655
v 0.041413 2.872154 0.023740
v -0.025422 2.851966 0.007449
v -0.021115 2.852278 0.019643
v 0.003360 2.871170 0.013973
v -0.046818 2.840445 -0.011838
v -0.055207 2.837765 0.020505
v -0.025422 2.851966 0.007449
v 0.079548 2.829386 0.080227
v 0.066297 2.827306 0.104064
v 0.115379 2.822186 0.130172
v 0.058736 2.820846 0.156561
v 0.250446 2.877728 -0.204512
v 0.317826 2.848371 -0.153812
v -0.113794 2.840727 0.206033
v -0.213015 2.847104 -0.052721
v -0.289534 2.863556 -0.061105
v -0.253162 2.855610 -0.014385
v -0.289534 2.863556 -0.061105
v -0.301548 2.855347 0.015166
v -0.253162 2.855610 -0.014385
v -0.006125 2.844220 -0.072251
v -0.058169 2.830799 -0.106416
v -0.024944 2.844581 -0.057724
v 0.399285 0.246555 -0.549595
v 0.201330 0.246555 -0.642138
v -0.010602 2.824110 0.119264
v -0.023941 2.826073 0.094686
v -0.052674 2.816218 0.139564
v -0.062476 1.990802 0.409245
v -0.085480 2.815584 0.090253
v -0.114106 2.826926 0.144402
v -0.284175 2.587605 0.279634
v -0.241202 2.568255 0.266072
v -0.261020 2.863181 0.236384
v -0.421055 1.249159 -0.103039
v -0.378681 1.997515 0.019166
v -0.348223 2.600924 -0.039387
v -0.662933 0.246555 -0.272568
v -0.435689 0.878171 -0.230039
v -0.602583 0.246555 -0.395032
v -0.154691 2.848522 -0.212813
v -0.000001 2.863658 -0.019004
v 0.039084 2.870293 -0.019535
v 0.012689 2.858382 -0.037097
v 0.233605 2.844196 0.152143
v 0.266601 2.841619 0.091369
v 0.171705 2.820622 0.078308
v 0.263449 2.862659 0.224701
v 0.293468 2.856467 0.150930
v 0.155156 2.858070 0.298463
v 0.207546 2.829683 0.298488
v 0.206596 2.859897 0.232150
v 0.152199 2.566306 -0.351076
v 0.200175 2.613863 -0.360356
v 0.162780 2.688185 -0.370645
v 0.200438 2.653718 -0.363572
v 0.100116 2.826478 0.192202
v 0.115379 2.822186 0.130172
v 0.326215 2.872393 -0.037370
v 0.264589 2.865831 -0.064827
v 0.305920 2.876646 -0.102757
v -0.006437 2.849623 0.036967
v -0.006115 2.856575 0.025416
v -0.029758 2.841789 0.037371
v -0.296471 2.579664 0.216400
v -0.304593 2.523450 0.206813
v -0.312982 2.568844 0.242965
v 0.041661 2.836654 -0.132601
v 0.052398 2.833600 -0.197502
v 0.226931 2.855834 -0.096595
v 0.165806 2.847567 -0.127613
v 0.137160 2.842505 -0.066844
v 0.248741 2.870045 -0.144873
v -0.195462 1.994942 -0.331457
v -0.307243 0.807863 -0.384768
v 0.040531 2.824275 0.360484
v 0.004325 2.834647 -0.108589
v 0.021463 2.828938 -0.156492
v -0.006680 2.824426 -0.183208
v -0.006125 2.844220 -0.072251
v 0.022666 2.842841 -0.091928
v -0.088242 2.826784 0.047100
v -0.060186 2.829975 0.050681
v -0.055207 2.837765 0.020505
v -0.029831 2.836513 0.249644
v 0.000393 2.858367 0.301630
v -0.173701 2.838301 -0.137590
v -0.158462 2.829089 -0.067725
v -0.109653 2.819876 -0.069898
v -0.173701 2.838301 -0.137590
v -0.210925 2.856170 -0.213763
v -0.237943 2.858109 -0.126268
v -0.265907 2.503082 0.241986
v -0.241202 2.568255 0.266072
v -0.284175 2.587605 0.279634
v -0.205839 2.876310 0.251369
v -0.198166 2.859751 0.186849
v -0.261020 2.863181 0.236384
v -0.317921 1.248043 -0.298773
v -0.069510 2.819316 -0.064729
v -0.056522 2.830019 -0.032459
v -0.038916 2.839928 -0.042802
v -0.117506 2.822858 -0.129167
v -0.173701 2.838301 -0.137590
v -0.109653 2.819876 -0.069898
v 0.059691 2.840201 0.252309
v 0.081385 2.856317 0.321306
v 0.111136 2.847664 0.271752
v 0.401224 2.416064 0.033571
v 0.407543 2.006133 -0.050884
v 0.034471 2.857028 -0.263279
v 0.003526 2.833975 -0.230268
v 0.052398 2.833600 -0.197502
v 0.147605 2.829946 -0.032104
v 0.190578 2.839607 -0.059950
v -0.060186 2.829975 0.050681
v -0.047588 2.829142 0.063527
v -0.029758 2.841789 0.037371
v -0.304593 2.523450 0.206813
v -0.407789 1.239873 0.080954
v -0.487338 0.807674 -0.042762
v -0.662933 0.246555 -0.272568
v -0.175825 2.829016 0.007415
v -0.213015 2.847104 -0.052721
v 0.087060 2.841526 0.010377
v 0.081809 2.848722 -0.024333
v 0.059862 2.854787 -0.002854
v -0.228775 2.833936 0.044464
v -0.301548 2.855347 0.015166
v -0.273058 2.843933 0.085479
v -0.006680 2.824426 -0.183208
v -0.038765 2.827783 -0.199694
v -0.321512 2.812603 0.067527
v -0.301548 2.855347 0.015166
v 0.367727 2.814576 0.085747
v -0.029758 2.841789 0.037371
v -0.055207 2.837765 0.020505
v -0.060186 2.829975 0.050681
v -0.321297 0.246555 -0.608762
v -0.058885 0.246555 -0.657401
v -0.093406 2.837819 -0.202100
v -0.117506 2.822858 -0.129167
v -0.058169 2.830799 -0.106416
v -0.093406 2.837819 -0.202100
v -0.094814 2.848673 -0.279823
v -0.154691 2.848522 -0.212813
v 0.054220 2.856930 0.009593
v 0.056983 2.850763 0.021655
v 0.087060 2.841526 0.010377
v 0.200175 2.613863 -0.360356
v 0.169021 2.560294 -0.343608
v 0.171671 2.612299 -0.364293
v -0.327480 2.512781 0.123317
v 0.012689 2.858382 -0.037097
v -0.006125 2.844220 -0.072251
v -0.000001 2.863658 -0.019004
v 0.103317 2.858109 -0.251689
v 0.162780 2.688185 -0.370645
v 0.130228 2.679947 -0.333372
v 0.141194 2.729122 -0.340729
v 0.188440 2.705222 -0.354900
v 0.165645 2.765328 -0.329645
v 0.179783 2.775184 -0.319084
v -0.006115 2.856575 0.025416
v -0.021115 2.852278 0.019643
v -0.029758 2.841789 0.037371
v 0.052125 2.845925 -0.084050
v 0.022666 2.842841 -0.091928
v 0.031606 2.853618 -0.058152
v 0.035294 2.869260 -0.318226
v 0.077945 2.705197 -0.333538
v 0.064568 2.529233 -0.365043
v -0.099184 2.828538 0.020671
v -0.088242 2.826784 0.047100
v -0.055207 2.837765 0.020505
v -0.129144 2.824875 -0.015467
v -0.144724 2.826438 0.053258
v -0.099184 2.828538 0.020671
v -0.093406 2.837819 -0.202100
v 0.041661 2.836654 -0.132601
v -0.023546 2.850461 -0.017713
v -0.000001 2.863658 -0.019004
v -0.038916 2.839928 -0.042802
v 0.038572 2.828562 0.101950
v 0.018331 2.825366 0.123234
v 0.018331 2.825366 0.123234
v -0.010602 2.824110 0.119264
v -0.004883 2.823511 0.169705
v 0.027222 1.244165 0.446134
v -0.062476 1.990802 0.409245
v -0.073325 0.807338 0.472860
v -0.043082 2.819613 0.194619
v -0.029831 2.836513 0.249644
v -0.004883 2.823511 0.169705
v 0.038572 2.828562 0.101950
v 0.066297 2.827306 0.104064
v 0.043654 2.837940 0.061900
v 0.108705 2.826916 0.073914
v 0.079548 2.829386 0.080227
v 0.115379 2.822186 0.130172
v -0.024944 2.844581 -0.057724
v -0.058169 2.830799 -0.106416
v -0.038916 2.839928 -0.042802
v 0.108705 2.826916 0.073914
v 0.112583 2.830229 0.045453
v 0.073249 2.837020 0.043831
v 0.141194 2.729122 -0.340729
v 0.165645 2.765328 -0.329645
v 0.162780 2.688185 -0.370645
v -0.016336 2.856000 -0.004296
v -0.025422 2.851966 0.007449
v 0.003360 2.871170 0.013973
v -0.296910 2.615598 0.183054
v -0.296471 2.579664 0.216400
v -0.261020 2.863181 0.236384
v -0.265907 2.503082 0.241986
v -0.304593 2.523450 0.206813
v -0.241202 2.568255 0.266072
v 0.305920 2.876646 -0.102757
v 0.248741 2.870045 -0.144873
v 0.201330 0.246555 -0.642138
v 0.015851 0.807712 -0.473568
v 0.280378 1.252481 -0.343719
v 0.115613 1.247556 -0.418056
v 0.135299 2.829610 0.029684
v 0.130881 2.832538 0.001072
v 0.087060 2.841526 0.010377
v -0.205839 2.876310 0.251369
v -0.136481 2.885001 0.312411
v -0.054228 0.246555 0.614460
v -0.231800 2.313900 0.280161
v 0.266601 2.841619 0.091369
v 0.333903 2.849715 0.118684
v 0.035294 2.869260 -0.318226
v -0.030717 2.855795 -0.270572
v 0.098440 0.801535 0.458742
v 0.031606 2.853618 -0.058152
v 0.018984 2.854265 -0.052087
v 0.039084 2.870293 -0.019535
v 0.241404 2.842851 -0.265247
v 0.174546 2.866016 -0.240509
v 0.043654 2.837940 0.061900
v 0.008431 2.833595 0.078361
v 0.038572 2.828562 0.101950
v 0.137160 2.842505 -0.066844
v 0.079178 2.848497 -0.057768
v 0.081809 2.848722 -0.024333
v -0.004883 2.823511 0.169705
v 0.091328 2.881157 -0.302028
v 0.163604 2.874108 -0.291798
v 0.142797 2.753061 -0.317715
v 0.117118 2.838832 -0.035061
v 0.137160 2.842505 -0.066844
v 0.081809 2.848722 -0.024333
v 0.423327 0.812862 -0.105314
v 0.585505 0.246555 -0.201354
v 0.130228 2.679947 -0.333372
v 0.142797 2.753061 -0.317715
v 0.141194 2.729122 -0.340729
v 0.107453 2.837068 -0.207917
v 0.103317 2.858109 -0.251689
v 0.052398 2.833600 -0.197502
v 0.220354 2.828602 0.051377
v 0.135299 2.829610 0.029684
v 0.112583 2.830229 0.045453
v 0.171705 2.820622 0.078308
v -0.043082 2.819613 0.194619
v -0.052674 2.816218 0.139564
v 0.142797 2.753061 -0.317715
v 0.077945 2.705197 -0.333538
v 0.091328 2.881157 -0.302028
v 0.059691 2.840201 0.252309
v 0.022930 2.825805 0.208045
v 0.000393 2.858367 0.301630
v 0.059691 2.840201 0.252309
v 0.100116 2.826478 0.192202
v 0.058736 2.820846 0.156561
v -0.109653 2.819876 -0.069898
v -0.129144 2.824875 -0.015467
v -0.088768 2.823905 -0.027169
v -0.082605 2.830974 -0.002620
v -0.088768 2.823905 -0.027169
v -0.129144 2.824875 -0.015467
v -0.265907 2.503082 0.241986
v -0.284175 2.587605 0.279634
v -0.312982 2.568844 0.242965
v -0.158462 2.829089 -0.067725
v -0.213015 2.847104 -0.052721
v 0.019982 2.847796 0.046710
v 0.031908 2.854455 0.035754
v 0.017507 2.866601 0.030015
v 0.015851 0.807712 -0.473568
v -0.025758 2.823530 -0.125532
v 0.073249 2.837020 0.043831
v 0.087060 2.841526 0.010377
v 0.056983 2.850763 0.021655
v 0.054220 2.856930 0.009593
v 0.059862 2.854787 -0.002854
v 0.043240 2.866678 0.003221
v 0.659369 0.246555 -0.018433
v -0.082605 2.830974 -0.002620
v -0.099184 2.828538 0.020671
v -0.055207 2.837765 0.020505
v -0.019946 2.835588 0.060609
v 0.008431 2.833595 0.078361
v 0.003667 2.846671 0.046890
v -0.175825 2.829016 0.007415
v -0.029758 2.841789 0.037371
v -0.019946 2.835588 0.060609
v -0.006437 2.849623 0.036967
v 0.052340 2.860121 -0.010225
v 0.081809 2.848722 -0.024333
v 0.039084 2.870293 -0.019535
v 0.040531 2.824275 0.360484
v 0.081385 2.856317 0.321306
v 0.000393 2.858367 0.301630
v -0.054228 0.246555 0.614460
v 0.333903 2.849715 0.118684
v 0.367727 2.814576 0.085747
v 0.313334 2.859897 0.049409
v 0.217558 2.653626 -0.303972
v 0.200438 2.653718 -0.363572
v 0.188440 2.705222 -0.354900
v 0.213855 0.246555 0.559878
v 0.280378 1.252481 -0.343719
v 0.064568 2.529233 -0.365043
v 0.152199 2.566306 -0.351076
v 0.035294 2.869260 -0.318226
v -0.030717 2.855795 -0.270572
v -0.296910 2.615598 0.183054
v 0.200175 2.613863 -0.360356
v 0.171671 2.612299 -0.364293
v 0.162780 2.688185 -0.370645
v -0.265907 2.503082 0.241986
v 0.039084 2.870293 -0.019535
v 0.079178 2.848497 -0.057768
v 0.052125 2.845925 -0.084050
v -0.284175 2.587605 0.279634
v -0.261020 2.863181 0.236384
v -0.312982 2.568844 0.242965
v -0.261020 2.863181 0.236384
v -0.296471 2.579664 0.216400
v -0.312982 2.568844 0.242965
v 0.659369 0.246555 -0.018433
v 0.141194 2.729122 -0.340729
v 0.163604 2.874108 -0.291798
v -0.421055 1.249159 -0.103039
v -0.487338 0.807674 -0.042762
v -0.006437 2.849623 0.036967
v 0.003667 2.846671 0.046890
v 0.017507 2.866601 0.030015
v 0.110205 2.837785 -0.016583
v 0.117118 2.838832 -0.035061
v 0.081809 2.848722 -0.024333
v -0.109653 2.819876 -0.069898
v 0.130014 2.627981 -0.358661
v 0.162780 2.688185 -0.370645
v 0.171671 2.612299 -0.364293
v 0.130228 2.679947 -0.333372
v 0.130881 2.832538 0.001072
v 0.110205 2.837785 -0.016583
v 0.087060 2.841526 0.010377
v 0.219404 2.586864 -0.313496
v 0.195026 2.551004 -0.332067
v 0.200175 2.613863 -0.360356
v -0.045819 2.823998 0.088134
v -0.023941 2.826073 0.094686
v -0.019946 2.835588 0.060609
v -0.052498 2.870863 0.347307
v -0.435689 0.878171 -0.230039
v 0.188440 2.705222 -0.354900
v 0.189857 2.770161 -0.297210
v 0.217558 2.653626 -0.303972
v 0.189857 2.770161 -0.297210
v 0.179783 2.775184 -0.319084
v 0.163604 2.874108 -0.291798
v 0.163604 2.874108 -0.291798
v 0.179783 2.775184 -0.319084
v 0.165645 2.765328 -0.329645
v 0.130228 2.679947 -0.333372
v 0.130014 2.627981 -0.358661
v 0.077945 2.705197 -0.333538
v 0.064568 2.529233 -0.365043
v 0.130014 2.627981 -0.358661
v 0.152199 2.566306 -0.351076
v 0.163604 2.874108 -0.291798
v -0.216542 2.568255 0.266072
v -0.261020 2.863181 0.236384
v -0.241202 2.568255 0.266072
v -0.216542 2.568255 0.266072
v -0.241202 2.568255 0.266072
v -0.265907 2.503082 0.241986
v 0.079178 2.848497 -0.057768
v 0.137160 2.842505 -0.066844
v 0.099731 2.840045 -0.105924
v 0.217558 2.653626 -0.303972
v 0.219404 2.586864 -0.313496
v 0.200175 2.613863 -0.360356
v -0.052498 2.870863 0.347307
v -0.038916 2.839928 -0.042802
v -0.056522 2.830019 -0.032459
v -0.046818 2.840445 -0.011838
v 0.018984 2.854265 -0.052087
v -0.006125 2.844220 -0.072251
v 0.012689 2.858382 -0.037097
v 0.003667 2.846671 0.046890
v 0.008431 2.833595 0.078361
v 0.019982 2.847796 0.046710
v 0.059862 2.854787 -0.002854
v 0.081809 2.848722 -0.024333
v 0.052340 2.860121 -0.010225
v -0.006680 2.824426 -0.183208
v -0.023546 2.850461 -0.017713
v -0.046818 2.840445 -0.011838
v -0.016336 2.856000 -0.004296
v 0.367727 2.814576 0.085747
v 0.046484 2.849696 0.034010
v 0.041413 2.872154 0.023740
v 0.031908 2.854455 0.035754
v 0.103317 2.858109 -0.251689
v 0.163604 2.874108 -0.291798
v 0.183032 2.825990 0.017607
v -0.029831 2.836513 0.249644
v 0.000393 2.858367 0.301630
v 0.022930 2.825805 0.208045
v -0.045819 2.823998 0.088134
v -0.019946 2.835588 0.060609
v -0.047588 2.829142 0.063527
v 0.062780 2.831588 -0.143977
v 0.099731 2.840045 -0.105924
v 0.137160 2.842505 -0.066844
v 0.165806 2.847567 -0.127613
v 0.368725 2.829834 0.004843
v 0.326215 2.872393 -0.037370
v 0.043654 2.837940 0.061900
v 0.079548 2.829386 0.080227
v 0.073249 2.837020 0.043831
v 0.046484 2.849696 0.034010
v 0.073249 2.837020 0.043831
v 0.056983 2.850763 0.021655
v -0.025422 2.851966 0.007449
v -0.055207 2.837765 0.020505
v -0.021115 2.852278 0.019643
v -0.046818 2.840445 -0.011838
v -0.082605 2.830974 -0.002620
v -0.055207 2.837765 0.020505
v 0.079548 2.829386 0.080227
v 0.043654 2.837940 0.061900
v 0.066297 2.827306 0.104064
v 0.058736 2.820846 0.156561
v 0.250446 2.877728 -0.204512
v 0.248741 2.870045 -0.144873
v 0.317826 2.848371 -0.153812
v -0.213015 2.847104 -0.052721
v -0.237943 2.858109 -0.126268
v -0.289534 2.863556 -0.061105
v -0.058169 2.830799 -0.106416
v -0.010602 2.824110 0.119264
v 0.008431 2.833595 0.078361
v -0.023941 2.826073 0.094686
v -0.088242 2.826784 0.047100
v -0.378681 1.997515 0.019166
v -0.006437 2.849623 0.036967
v 0.017507 2.866601 0.030015
v -0.006115 2.856575 0.025416
v -0.296471 2.579664 0.216400
v -0.296910 2.615598 0.183054
v -0.304593 2.523450 0.206813
v 0.000393 2.858367 0.301630
v -0.006125 2.844220 -0.072251
v 0.018984 2.854265 -0.052087
v 0.022666 2.842841 -0.091928
v -0.060186 2.829975 0.050681
v -0.173701 2.838301 -0.137590
v -0.210925 2.856170 -0.213763
v -0.069510 2.819316 -0.064729
v -0.109653 2.819876 -0.069898
v -0.056522 2.830019 -0.032459
v -0.117506 2.822858 -0.129167
v 0.081385 2.856317 0.321306
v 0.081385 2.856317 0.321306
v 0.147605 2.829946 -0.032104
v 0.130881 2.832538 0.001072
v 0.183032 2.825990 0.017607
v -0.129144 2.824875 -0.015467
v 0.087060 2.841526 0.010377
v 0.110205 2.837785 -0.016583
v 0.081809 2.848722 -0.024333
v -0.228775 2.833936 0.044464
v 0.021463 2.828938 -0.156492
v 0.003526 2.833975 -0.230268
v -0.030717 2.855795 -0.270572
v -0.038765 2.827783 -0.199694
v -0.301548 2.855347 0.015166
v 0.367727 2.814576 0.085747
v -0.029758 2.841789 0.037371
v -0.021115 2.852278 0.019643
v -0.055207 2.837765 0.020505
v -0.093406 2.837819 -0.202100
v -0.030717 2.855795 -0.270572
v -0.094814 2.848673 -0.279823
v 0.054220 2.856930 0.009593
v 0.041413 2.872154 0.023740
v 0.056983 2.850763 0.021655
v 0.200175 2.613863 -0.360356
v 0.195026 2.551004 -0.332067
v 0.169021 2.560294 -0.343608
v 0.091328 2.881157 -0.302028
v 0.162780 2.688185 -0.370645
v 0.130014 2.627981 -0.358661
v 0.130228 2.679947 -0.333372
v 0.188440 2.705222 -0.354900
v 0.162780 2.688185 -0.370645
v 0.165645 2.765328 -0.329645
v -0.006115 2.856575 0.025416
v 0.003360 2.871170 0.013973
v -0.021115 2.852278 0.019643
v 0.263449 2.862659 0.224701
v 0.206596 2.859897 0.232150
v 0.207546 2.829683 0.298488
v 0.052125 2.845925 -0.084050
v 0.041661 2.836654 -0.132601
v 0.022666 2.842841 -0.091928
v 0.091328 2.881157 -0.302028
v -0.099184 2.828538 0.020671
v -0.144724 2.826438 0.053258
v -0.088242 2.826784 0.047100
v -0.129144 2.824875 -0.015467
v -0.093406 2.837819 -0.202100
v 0.052398 2.833600 -0.197502
v 0.038572 2.828562 0.101950
v 0.008431 2.833595 0.078361
v 0.018331 2.825366 0.123234
v 0.018331 2.825366 0.123234
v 0.008431 2.833595 0.078361
v -0.010602 2.824110 0.119264
v 0.027222 1.244165 0.446134
v 0.108705 2.826916 0.073914
v 0.073249 2.837020 0.043831
v 0.079548 2.829386 0.080227
v 0.141194 2.729122 -0.340729
v 0.163604 2.874108 -0.291798
v 0.165645 2.765328 -0.329645
v -0.016336 2.856000 -0.004296
v -0.046818 2.840445 -0.011838
v -0.025422 2.851966 0.007449
v 0.201330 0.246555 -0.642138
v 0.063213 0.246555 -0.715963
v 0.015851 0.807712 -0.473568
v 0.012251 1.994645 -0.389469
v 0.130881 2.832538 0.001072
v 0.041413 2.872154 0.023740
v 0.054220 2.856930 0.009593
v 0.043240 2.866678 0.003221
v 0.333903 2.849715 0.118684
v 0.031606 2.853618 -0.058152
v 0.022666 2.842841 -0.091928
v 0.018984 2.854265 -0.052087
v 0.043654 2.837940 0.061900
v 0.019982 2.847796 0.046710
v 0.008431 2.833595 0.078361
v -0.043082 2.819613 0.194619
v 0.135299 2.829610 0.029684
v 0.087060 2.841526 0.010377
v 0.112583 2.830229 0.045453
v 0.059691 2.840201 0.252309
v 0.058736 2.820846 0.156561
v 0.022930 2.825805 0.208045
v 0.019982 2.847796 0.046710
v 0.043654 2.837940 0.061900
v 0.031908 2.854455 0.035754
v 0.073249 2.837020 0.043831
v 0.112583 2.830229 0.045453
v 0.087060 2.841526 0.010377
v 0.054220 2.856930 0.009593
v 0.087060 2.841526 0.010377
v 0.059862 2.854787 -0.002854
v -0.082605 2.830974 -0.002620
v -0.019946 2.835588 0.060609
v -0.023941 2.826073 0.094686
v 0.008431 2.833595 0.078361
v -0.029758 2.841789 0.037371
v -0.047588 2.829142 0.063527
v -0.019946 2.835588 0.060609
v -0.272707 2.847703 0.141630
v -0.006437 2.849623 0.036967
v -0.019946 2.835588 0.060609
v 0.003667 2.846671 0.046890
v 0.110205 2.837785 -0.016583
v 0.171671 2.612299 -0.364293
v 0.169021 2.560294 -0.343608
v 0.152199 2.566306 -0.351076
v 0.152199 2.566306 -0.351076
v 0.130014 2.627981 -0.358661
v 0.171671 2.612299 -0.364293
v 0.110205 2.837785 -0.016583
v 0.189857 2.770161 -0.297210
v 0.188440 2.705222 -0.354900
v 0.179783 2.775184 -0.319084
v 0.064568 2.529233 -0.365043
v 0.077945 2.705197 -0.333538
v 0.130014 2.627981 -0.358661
vn 0.0283 0.8529 -0.5212
vn -0.1091 0.9892 -0.0984
vn -0.2419 0.9336 -0.2642
vn -0.7651 0.4212 -0.4871
vn -0.6847 -0.0844 -0.7239
vn -0.7117 0.1436 -0.6877
vn -0.9849 0.1663 0.0478
vn -0.9280 0.3585 -0.1015
vn 0.2333 0.4060 -0.8836
vn 0.7079 0.1579 -0.6884
vn 0.5307 -0.0931 -0.8424
vn 0.6252 0.1222 -0.7708
vn 0.2956 0.3063 -0.9049
vn 0.6476 0.0781 -0.7579
vn 0.4359 0.1585 -0.8859
vn -0.9080 0.1054 0.4054
vn -0.5687 -0.1501 0.8087
vn -0.9034 -0.0646 0.4239
vn 0.4346 0.3992 -0.8073
vn 0.4041 0.1357 -0.9046
vn 0.2000 -0.1357 -0.9704
vn -0.3195 0.9366 0.1437
vn -0.2688 0.9363 0.2261
vn 0.0133 0.9954 0.0950
vn -0.5956 0.2215 0.7722
vn -0.1970 -0.0986 0.9754
vn -0.0655 0.2796 0.9579
vn 0.0778 0.8031 -0.5907
vn -0.0511 0.9820 -0.1820
vn -0.1295 0.9831 0.1290
vn -0.5182 0.8543 0.0395
vn -0.5538 0.8294 0.0742
vn -0.5050 0.8184 -0.2740
vn -0.2429 0.9549 -0.1710
vn -0.3725 0.8736 -0.3131
vn 0.1339 0.9900 0.0449
vn -0.0053 0.9609 -0.2767
vn -0.5230 0.8358 -0.1673
vn 0.1099 0.9832 0.1455
vn 0.1283 0.4759 0.8701
vn 0.2620 0.7717 0.5795
vn 0.0294 0.9699 0.2415
vn 0.2885 0.9378 -0.1930
vn 0.2612 0.9503 -0.1696
vn 0.2841 0.8397 0.4628
vn 0.2513 0.9529 -0.1697
vn 0.1459 0.9636 -0.2241
vn 0.1370 0.9823 -0.1279
vn -0.1555 0.9583 -0.2398
vn 0.0894 0.9380 0.3350
vn 0.1168 0.9786 0.1696
vn -0.3958 0.9159 0.0674
vn -0.5273 0.8468 0.0700
vn -0.2647 0.9490 -0.1712
vn 0.0321 0.9993 0.0211
vn -0.1954 0.9671 0.1630
vn 0.3317 0.8550 0.3987
vn 0.9813 0.0931 0.1682
vn 0.9022 -0.1780 0.3929
vn 0.9793 0.1740 0.1039
vn 0.9904 0.0913 -0.1039
vn 0.9793 0.1740 0.1038
vn 0.8163 0.5342 0.2198
vn -0.3316 0.8298 -0.4488
vn -0.4200 0.8450 -0.3311
vn -0.1474 0.9860 -0.0783
vn 0.6406 -0.0318 0.7672
vn 0.4288 -0.8194 0.3805
vn 0.8163 0.5342 0.2197
vn 0.0296 -0.9993 -0.0219
vn -0.8447 0.2123 0.4914
vn 0.0099 -0.3024 0.9531
vn 0.9594 0.2774 0.0499
vn 0.7010 0.6889 0.1847
vn -0.0727 0.8176 0.5712
vn -0.1583 0.8966 0.4136
vn 0.4714 0.5730 0.6704
vn 0.3787 0.5995 0.7051
vn 0.0269 0.1651 -0.9859
vn 0.5629 0.3202 -0.7620
vn 0.5805 0.1383 -0.8024
vn -0.4801 0.6892 -0.5427
vn -0.1738 0.4289 -0.8865
vn -0.0482 -0.1216 -0.9914
vn 0.0134 0.9427 0.3333
vn 0.3783 0.3044 -0.8742
vn 0.3821 0.6565 0.6503
vn -0.7633 0.2606 0.5911
vn -0.8740 -0.3229 0.3631
vn -0.8815 0.0618 0.4681
vn 0.0473 0.2945 0.9545
vn -0.3906 0.2284 0.8918
vn -0.2567 -0.0696 -0.9640
vn -0.0582 -0.0948 -0.9938
vn -0.0969 0.7512 0.6530
vn 0.7301 -0.0664 0.6801
vn 0.2402 0.0057 0.9707
vn 0.3249 0.1848 0.9275
vn 0.5421 0.1140 0.8325
vn -0.3978 0.1720 0.9012
vn -0.0656 0.2796 0.9579
vn -0.2619 0.9371 0.2307
vn -0.2738 0.9581 0.0841
vn -0.4021 0.8643 0.3022
vn -0.4704 0.6664 -0.5785
vn 0.0555 0.9955 -0.0763
vn -0.1188 0.9896 0.0817
vn -0.3024 0.9212 -0.2450
vn -0.0580 0.9572 -0.2837
vn -0.1014 0.9715 -0.2142
vn -0.0627 0.9782 -0.1978
vn -0.1489 0.9888 0.0113
vn -0.3408 0.9386 0.0541
vn -0.3331 0.9307 0.1513
vn 0.1732 0.9824 0.0696
vn -0.2799 0.9597 0.0259
vn -0.4146 0.8394 -0.3515
vn -0.3341 0.9425 0.0002
vn 0.1492 0.9294 -0.3376
vn 0.3757 0.7078 0.5983
vn -0.4758 0.6845 -0.5524
vn 0.1805 0.8790 -0.4414
vn 0.3145 0.8794 -0.3575
vn 0.3894 0.4377 -0.8104
vn -0.3523 -0.1758 -0.9192
vn -0.2089 -0.0491 -0.9767
vn 0.7116 0.6608 0.2387
vn 0.2463 0.9223 0.2979
vn -0.0161 0.9902 0.1386
vn -0.2364 0.9696 -0.0638
vn -0.0352 0.9230 0.3831
vn 0.1991 0.9700 -0.1398
vn -0.5772 0.5454 0.6077
vn -0.4195 0.5279 -0.7385
vn -0.6303 0.7644 -0.1357
vn -0.4194 0.5279 -0.7385
vn 0.0520 0.8648 -0.4994
vn 0.5386 0.1318 0.8322
vn 0.6698 0.0287 0.7420
vn -0.1227 0.9839 -0.1301
vn -0.1374 0.9740 -0.1799
vn -0.2664 0.8614 -0.4324
vn 0.6556 0.6999 -0.2834
vn 0.4767 0.0746 -0.8759
vn 0.9457 0.0877 -0.3130
vn 0.0923 0.9681 -0.2328
vn 0.1992 0.9699 -0.1398
vn -0.1537 0.9879 0.0215
vn -0.2776 0.9548 0.1067
vn -0.2364 0.9695 -0.0639
vn -0.6987 0.6579 -0.2811
vn -0.6846 -0.0845 -0.7240
vn 0.0585 0.8457 -0.5305
vn -0.6986 0.6580 -0.2811
vn 0.4872 0.7549 -0.4390
vn 0.2688 0.5779 0.7706
vn -0.3024 0.9211 -0.2451
vn 0.4766 0.0746 -0.8759
vn 0.3185 0.1989 -0.9268
vn 0.0526 0.7126 0.6996
vn 0.0179 0.9165 0.3996
vn 0.2039 0.5870 0.7835
vn 0.8914 0.4193 0.1722
vn 0.6710 0.6973 0.2519
vn 0.1120 0.3943 0.9121
vn -0.6762 0.7176 0.1667
vn -0.6573 0.6390 0.3997
vn -0.1704 0.9359 0.3084
vn -0.5189 0.8130 -0.2639
vn -0.5042 0.8560 0.1140
vn -0.3361 0.9363 -0.1018
vn -0.1066 0.9855 0.1319
vn -0.1050 0.9943 0.0156
vn -0.0989 0.9877 -0.1211
vn -0.4704 0.6663 -0.5785
vn 0.7627 -0.1859 -0.6195
vn 0.2228 0.9583 -0.1788
vn 0.1713 0.9843 0.0434
vn 0.4005 0.9140 -0.0645
vn 0.2044 0.8830 -0.4226
vn -0.0236 0.9350 -0.3538
vn -0.2709 0.9624 0.0194
vn -0.1603 0.9868 0.0213
vn 0.5820 -0.7820 -0.2231
vn 0.6710 0.5867 -0.4534
vn -0.2912 0.9513 0.1011
vn -0.1554 0.9876 -0.0225
vn 0.1304 0.9874 -0.0897
vn -0.2907 0.2259 0.9298
vn 0.1732 0.9824 0.0695
vn 0.1148 0.9579 -0.2632
vn -0.4402 -0.0941 0.8929
vn -0.0737 -0.0910 0.9931
vn -0.8131 0.2065 0.5443
vn -0.9666 0.2064 -0.1518
vn -0.9655 0.2415 0.0972
vn -0.9280 0.3586 -0.1015
vn -0.7113 0.6978 -0.0849
vn -0.8681 -0.0983 -0.4866
vn -0.7421 -0.2480 0.6228
vn 0.0584 0.8457 -0.5305
vn -0.3807 0.8882 -0.2572
vn 0.3073 0.9334 -0.1855
vn -0.1375 0.8280 -0.5436
vn -0.1542 0.9619 -0.2257
vn -0.3517 0.9346 -0.0540
vn 0.0555 0.9955 -0.0764
vn 0.9595 0.2774 0.0499
vn -0.0726 0.8176 0.5712
vn 0.5190 0.8098 0.2737
vn 0.5370 0.0229 -0.8433
vn 0.4669 -0.0950 -0.8792
vn 0.0090 0.1440 -0.9895
vn 0.5665 0.1181 -0.8155
vn -0.1908 0.9545 -0.2293
vn -0.0989 0.9877 -0.1212
vn -0.2685 0.8989 0.3462
vn -0.2551 0.7774 0.5749
vn -0.4392 0.8453 0.3044
vn -0.4632 0.8011 0.3790
vn -0.4089 0.6446 0.6459
vn -0.9865 0.1358 0.0914
vn -0.9265 0.1555 0.3428
vn -0.9310 -0.0172 0.3645
vn -0.0174 0.9997 -0.0169
vn -0.3013 0.9487 0.0953
vn -0.2511 0.8485 0.4658
vn -0.4427 0.2277 -0.8673
vn -0.4265 0.4855 -0.7631
vn -0.3452 0.6477 0.6792
vn -0.1642 0.9319 -0.3235
vn -0.2584 0.9571 -0.1314
vn 0.0897 0.9860 0.1408
vn 0.0321 0.9801 -0.1961
vn -0.0395 0.9721 -0.2311
vn 0.0463 0.9735 0.2239
vn 0.0038 0.9163 0.4004
vn -0.1034 0.9927 0.0614
vn -0.0579 0.9572 -0.2837
vn -0.1149 0.8552 -0.5054
vn 0.2709 0.9451 0.1827
vn 0.1727 0.9845 0.0301
vn 0.1100 0.9832 0.1455
vn -0.6847 -0.0845 -0.7239
vn -0.5173 -0.1431 0.8437
vn -0.0887 -0.1232 0.9884
vn -0.4540 -0.1265 0.8820
vn 0.3757 0.7078 0.5982
vn 0.0519 0.8648 -0.4994
vn -0.8740 -0.3229 0.3632
vn -0.7904 0.0652 -0.6091
vn -0.0081 0.9998 -0.0181
vn -0.5230 0.8357 -0.1673
vn -0.5459 0.8002 -0.2483
vn 0.1556 0.9731 0.1699
vn 0.0140 0.9840 -0.1778
vn 0.6567 0.6869 -0.3113
vn -0.3814 0.8694 -0.3143
vn 0.9433 0.1804 -0.2787
vn -0.2131 0.8711 0.4424
vn -0.2165 0.9340 0.2841
vn -0.2078 0.9325 0.2954
vn -0.4476 0.8628 0.2351
vn -0.1725 0.9755 0.1369
vn -0.1535 0.9877 0.0303
vn -0.6334 0.3513 0.6895
vn -0.9832 -0.0310 0.1800
vn -0.9980 -0.0342 -0.0537
vn 0.1083 0.9907 0.0822
vn 0.1714 0.9843 0.0434
vn 0.5704 0.7169 0.4009
vn 0.4733 0.8280 -0.3005
vn 0.6747 0.7058 0.2161
vn 0.2130 0.9563 0.2003
vn 0.8512 0.4533 -0.2646
vn -0.0333 0.9963 0.0798
vn -0.3827 0.9218 0.0623
vn -0.4024 0.8403 0.3633
vn 0.2559 0.5498 -0.7951
vn 0.2192 -0.9740 -0.0579
vn 0.0455 0.9570 0.2865
vn 0.1555 0.9731 0.1699
vn 0.0456 0.9570 0.2865
vn 0.4751 0.5750 0.6661
vn 0.6243 0.5416 0.5630
vn 0.7085 0.6623 0.2436
vn 0.4697 -0.1140 -0.8754
vn 0.2832 -0.2600 -0.9231
vn 0.1315 -0.1526 -0.9795
vn -0.9601 0.2002 0.1955
vn 0.0945 0.9550 -0.2813
vn -0.2786 0.8984 -0.3395
vn -0.1513 0.9841 -0.0935
vn -0.0519 0.1567 -0.9863
vn -0.3223 0.0600 -0.9447
vn -0.4404 0.3176 -0.8398
vn 0.5579 0.3350 -0.7593
vn 0.1595 0.4326 -0.8874
vn 0.5194 0.4322 -0.7372
vn -0.4288 0.8963 0.1132
vn -0.4585 0.8866 0.0612
vn -0.4007 0.7212 0.5651
vn 0.2956 0.9021 -0.3144
vn -0.1617 0.9404 -0.2992
vn 0.0979 0.8813 -0.4623
vn 0.1812 -0.1036 -0.9780
vn 0.1432 0.0476 -0.9885
vn -0.2089 -0.0492 -0.9767
vn -0.1440 0.9408 0.3069
vn -0.0843 0.9964 0.0084
vn -0.0701 0.9966 0.0443
vn 0.0175 0.9851 0.1712
vn 0.1369 0.9823 -0.1280
vn 0.0033 0.9889 -0.1486
vn -0.0174 0.9997 -0.0170
vn -0.3137 0.9468 -0.0722
vn -0.2657 0.9640 0.0016
vn -0.4495 0.8844 0.1258
vn -0.0757 0.9693 0.2338
vn -0.1249 0.9809 0.1491
vn -0.0803 0.9875 -0.1358
vn 0.0525 0.9885 0.1418
vn 0.0617 0.9953 -0.0740
vn 0.0727 0.1319 0.9886
vn -0.2906 0.2260 0.9298
vn -0.0022 0.9506 -0.3103
vn -0.0628 0.9782 -0.1978
vn 0.1603 0.9582 0.2368
vn 0.1733 0.9762 0.1307
vn -0.0718 0.9839 -0.1639
vn 0.1367 0.9580 0.2521
vn -0.1387 0.9902 -0.0138
vn -0.5220 0.8439 0.1241
vn -0.1715 0.9790 -0.1102
vn 0.1218 0.9921 -0.0298
vn -0.0331 0.9905 0.1332
vn 0.3845 0.8938 0.2309
vn -0.4079 0.3404 -0.8472
vn 0.1221 0.4345 -0.8924
vn -0.0174 0.1791 -0.9837
vn -0.5155 0.8069 -0.2886
vn -0.5959 0.8029 -0.0148
vn -0.2307 0.9558 0.1825
vn -0.9517 0.1376 0.2745
vn -0.9833 0.1285 0.1292
vn -0.8714 0.1933 0.4508
vn 0.6770 0.0153 -0.7358
vn -0.2552 0.7774 0.5750
vn 0.3184 0.1989 -0.9268
vn 0.2287 0.9659 -0.1211
vn 0.1047 0.9942 -0.0243
vn -0.1688 0.9845 0.0477
vn 0.3758 0.7077 0.5983
vn -0.4757 0.6845 -0.5524
vn -0.0189 0.5149 0.8571
vn -0.6671 -0.1789 0.7231
vn -0.3517 0.9346 -0.0539
vn 0.1812 -0.1037 -0.9780
vn 0.5309 0.8457 0.0534
vn 0.5175 0.2439 0.8202
vn -0.3106 0.9159 -0.2544
vn -0.0265 0.9699 -0.2422
vn 0.0327 0.9944 0.1010
vn -0.0252 0.8614 -0.5074
vn -0.4021 0.8642 0.3023
vn 0.1988 0.9726 -0.1205
vn -0.1343 0.9173 0.3750
vn 0.0022 0.9955 0.0943
vn 0.2880 0.9435 -0.1638
vn 0.3405 0.8966 0.2831
vn -0.0776 0.9169 0.3916
vn -0.0628 0.9782 -0.1977
vn 0.3822 0.6565 0.6503
vn 0.3782 0.3044 -0.8742
vn 0.0302 -0.5484 -0.8357
vn 0.3347 0.9384 0.0857
vn 0.4506 0.8873 0.0984
vn -0.0699 0.8660 0.4952
vn 0.9873 0.0076 -0.1584
vn 0.8655 0.0468 -0.4987
vn -0.3542 0.0714 -0.9324
vn -0.2901 0.1796 -0.9400
vn -0.4673 0.3315 -0.8196
vn -0.2619 0.9371 0.2308
vn -0.1188 0.9896 0.0816
vn -0.0661 0.9796 0.1897
vn 0.0794 0.9474 0.3101
vn -0.0021 0.9506 -0.3103
vn 0.1305 0.9874 -0.0897
vn 0.0301 -0.5483 -0.8357
vn 0.1432 0.0476 -0.9886
vn 0.3821 0.6565 0.6504
vn -0.1150 0.8552 -0.5054
vn -0.1907 0.9545 -0.2294
vn -0.1490 0.9888 0.0113
vn -0.0969 0.9952 0.0162
vn -0.5578 -0.1428 0.8176
vn -0.4964 -0.1282 0.8586
vn -0.8969 -0.0599 0.4382
vn 0.5660 0.4418 0.6960
vn -0.0735 0.8356 0.5444
vn -0.0698 0.9489 0.3077
vn -0.0481 -0.1216 -0.9914
vn 0.3561 0.9341 0.0245
vn 0.6051 0.7959 -0.0192
vn 0.1422 0.7616 0.6323
vn 0.6865 0.6753 -0.2698
vn 0.2926 0.9163 0.2734
vn 0.1138 0.9362 0.3326
vn 0.7440 -0.6668 -0.0430
vn -0.1881 0.9544 -0.2319
vn -0.0356 0.9988 -0.0328
vn -0.0360 0.9986 -0.0386
vn -0.0176 0.8754 0.4830
vn 0.0097 0.9205 0.3905
vn -0.4324 0.8572 0.2796
vn 0.1083 0.9907 0.0821
vn -0.5432 0.7810 0.3082
vn -0.2122 0.9562 0.2016
vn -0.4805 0.7491 0.4560
vn 0.6394 0.5891 0.4941
vn 0.7970 0.5917 0.1209
vn -0.0024 0.9925 0.1226
vn -0.3451 0.6477 0.6793
vn 0.6567 0.6869 -0.3112
vn -0.1151 0.8552 -0.5054
vn -0.0969 0.7512 0.6529
vn 0.8511 0.4534 -0.2646
vn -0.3023 0.9212 -0.2451
vn 0.7048 0.1764 -0.6872
vn 0.6226 0.1413 -0.7697
vn 0.6038 0.3246 -0.7280
vn 0.4239 -0.1838 0.8869
vn -0.9302 0.1696 0.3254
vn 0.4684 -0.0939 -0.8785
vn 0.1308 -0.1330 -0.9824
vn 0.0108 0.1449 -0.9894
vn -0.5835 0.3547 0.7305
vn -0.0496 0.9914 0.1210
vn -0.1789 0.9123 -0.3684
vn 0.1750 0.7862 -0.5927
vn -0.5133 -0.0899 0.8535
vn -0.8574 0.1953 0.4762
vn -0.9043 -0.0201 0.4265
vn -0.8874 0.2008 0.4148
vn -0.9872 0.1319 0.0897
vn -0.9316 -0.0216 0.3629
vn 0.7440 -0.6668 -0.0429
vn -0.2901 0.1797 -0.9400
vn 0.0769 0.7016 -0.7085
vn -0.9980 -0.0342 -0.0538
vn -0.1089 0.7641 0.6358
vn -0.0863 0.8037 0.5887
vn 0.0452 0.9780 0.2035
vn 0.4447 0.8923 0.0784
vn 0.1032 0.9530 0.2848
vn -0.1351 0.9758 0.1720
vn 0.0076 0.0065 -0.9999
vn -0.0091 0.1428 -0.9897
vn 0.1114 -0.1357 -0.9845
vn -0.0810 -0.1888 -0.9787
vn 0.2271 0.9690 -0.0976
vn 0.0479 0.9961 0.0738
vn -0.1162 0.9623 0.2461
vn 0.5856 0.0723 -0.8074
vn 0.4970 -0.1054 -0.8613
vn 0.5142 -0.1091 -0.8507
vn 0.0344 0.9672 0.2518
vn -0.0057 0.9722 0.2340
vn -0.2800 0.8817 0.3796
vn -0.5955 0.2215 0.7722
vn -0.8681 -0.0984 -0.4866
vn 0.6033 0.3228 -0.7292
vn 0.5764 0.3823 -0.7222
vn 0.7041 0.1747 -0.6883
vn 0.5729 0.3820 -0.7252
vn 0.5624 0.4211 -0.7116
vn 0.2285 0.6782 -0.6985
vn 0.1879 0.6705 -0.7178
vn 0.5270 0.4217 -0.7379
vn 0.1679 0.4233 -0.8903
vn -0.0810 -0.1889 -0.9787
vn 0.3784 0.1177 -0.9181
vn 0.3784 0.1176 -0.9181
vn 0.5369 0.0229 -0.8433
vn -0.6002 0.0311 0.7993
vn -0.8261 0.1986 0.5274
vn -0.0960 -0.0915 0.9912
vn -0.6017 0.0008 0.7987
vn -0.0961 -0.1206 0.9880
vn -0.5234 -0.1394 0.8406
vn 0.4038 0.8558 -0.3233
vn 0.3195 0.9409 -0.1128
vn -0.0046 1.0000 0.0078
vn 0.7039 0.1641 -0.6911
vn 0.5948 0.0965 -0.7980
vn 0.5275 -0.0858 -0.8452
vn -0.5459 0.8003 -0.2483
vn -0.2073 0.9744 -0.0875
vn -0.2705 0.8812 -0.3878
vn -0.3129 0.9167 -0.2486
vn -0.1712 0.9761 -0.1337
vn -0.2450 0.7961 0.5533
vn 0.1161 0.8729 0.4738
vn -0.2093 0.9756 0.0664
vn 0.6076 0.7855 -0.1175
vn 0.7298 0.6791 -0.0788
vn 0.1877 0.8519 0.4889
vn -0.5861 0.8044 -0.0969
vn -0.6317 0.7679 -0.1063
vn -0.3080 0.9509 -0.0309
vn 0.1148 0.8158 0.5668
vn -0.3486 0.6116 0.7103
vn 0.6227 0.3125 0.7173
vn 0.0134 0.9954 0.0950
vn -0.0945 0.9943 0.0495
vn -0.3786 0.8944 0.2382
vn -0.1436 0.9174 0.3712
vn 0.0015 0.9855 0.1696
vn -0.0065 0.9659 0.2589
vn -0.2108 0.9774 -0.0176
vn 0.4872 0.7550 -0.4389
vn 0.2688 0.5779 0.7705
vn -0.2649 0.9420 0.2060
vn 0.2840 0.9562 0.0709
vn 0.0132 0.9190 0.3941
vn 0.6755 0.5974 0.4322
vn 0.1150 0.9769 0.1801
vn -0.1284 0.9625 0.2392
vn -0.4061 0.9137 -0.0164
vn -0.5121 0.8358 0.1978
vn -0.1641 0.9447 0.2839
vn -0.0947 0.9796 -0.1771
vn -0.4139 0.9079 -0.0661
vn -0.1552 0.9756 0.1550
vn 0.1293 0.9915 -0.0129
vn -0.1604 0.9820 -0.0997
vn 0.3059 0.9241 0.2290
vn -0.4704 0.6664 -0.5784
vn 0.7627 -0.1858 -0.6195
vn -0.9849 0.1664 0.0478
vn -0.1388 0.9903 -0.0003
vn -0.2152 0.9761 -0.0295
vn -0.2602 0.9294 0.2617
vn -0.2086 0.9181 0.3371
vn -0.2862 0.9131 0.2903
vn 0.1381 0.9391 0.3147
vn -0.5692 0.6282 0.5305
vn -0.9832 0.1288 0.1295
vn -0.9516 0.1379 0.2748
vn -0.9139 0.1468 0.3785
vn -0.2635 0.9568 -0.1229
vn -0.1461 0.8826 -0.4469
vn -0.1835 0.8923 -0.4125
vn -0.0622 0.9971 0.0432
vn 0.2709 0.9451 0.1828
vn -0.5231 0.8357 -0.1672
vn 0.1088 0.9797 0.1686
vn 0.0134 0.9954 0.0949
vn 0.0175 0.9851 0.1713
vn 0.2068 0.8414 0.4993
vn 0.2378 0.9713 0.0065
vn 0.0092 0.9843 -0.1760
vn 0.2131 0.9563 0.2004
vn -0.2583 0.9571 -0.1314
vn 0.5309 0.8458 0.0534
vn 0.2043 0.8830 -0.4226
vn -0.1645 0.8318 0.5302
vn -0.1292 0.9686 0.2126
vn -0.5127 0.7900 0.3361
vn 0.3893 0.4377 -0.8105
vn 0.5266 0.7592 0.3826
vn 0.6347 0.3610 0.6832
vn 0.9082 0.3358 -0.2496
vn 0.4754 -0.1164 -0.8720
vn 0.4578 -0.1124 -0.8819
vn 0.2891 -0.2626 -0.9206
vn -0.0518 0.1723 -0.9837
vn -0.0362 0.0339 -0.9988
vn -0.3233 0.0746 -0.9433
vn 0.5542 0.3347 -0.7621
vn 0.0166 0.1787 -0.9838
vn 0.1551 0.4315 -0.8887
vn -0.2123 0.7995 0.5619
vn -0.0258 0.8894 0.4564
vn -0.6545 0.5701 0.4966
vn 0.9594 0.2775 0.0499
vn -0.2664 0.8614 -0.4325
vn 0.1044 0.9894 0.1014
vn -0.1045 0.9467 -0.3045
vn -0.1134 0.9925 -0.0456
vn -0.1434 0.9773 0.1556
vn 0.1666 0.9853 0.0379
vn -0.1005 0.9910 -0.0889
vn -0.0352 0.9230 0.3832
vn -0.0788 0.9926 0.0925
vn -0.1698 0.9665 0.1923
vn 0.1680 0.9562 0.2398
vn 0.0630 0.9919 0.1106
vn -0.2367 0.9677 0.0872
vn 0.0771 0.9881 0.1331
vn 0.0727 0.1320 0.9886
vn -0.0369 0.9919 0.1218
vn 0.2312 0.8883 0.3968
vn 0.2454 0.9203 0.3048
vn -0.3937 0.3331 -0.8568
vn 0.1566 0.6720 -0.7238
vn 0.1372 0.4244 -0.8950
vn -0.2926 0.9534 -0.0743
vn -0.6410 0.7589 -0.1145
vn -0.3724 0.9258 0.0645
vn 0.6709 0.5868 -0.4534
vn -0.0581 -0.0949 -0.9938
vn 0.1094 0.9796 0.1685
vn 0.8774 0.3247 0.3531
vn 0.3377 0.9077 -0.2491
vn 0.2716 0.8530 -0.4457
vn -0.1626 0.8711 -0.4633
vn -0.2012 0.9130 -0.3549
vn 0.0635 0.9285 -0.3659
vn 0.4819 0.7802 0.3989
vn -0.2657 0.8513 0.4525
vn 0.1626 0.7906 0.5903
vn 0.0131 0.9966 0.0814
vn -0.1491 0.9884 -0.0300
vn 0.3141 0.9466 0.0723
vn -0.0519 0.6077 0.7924
vn 0.2705 0.6142 0.7414
vn -0.2465 0.6052 0.7569
vn 0.3760 0.9240 0.0696
vn 0.0408 0.9983 0.0418
vn 0.0908 0.9792 -0.1812
vn 0.7657 0.6432 0.0030
vn 0.7275 0.6792 0.0974
vn 0.3112 0.8683 0.3863
vn -0.0993 0.8947 0.4354
vn -0.0038 0.9230 0.3848
vn 0.0118 0.9957 0.0918
vn -0.2891 0.9548 0.0698
vn -0.0193 0.9592 0.2819
vn -0.2651 0.9516 0.1552
vn -0.4194 0.5279 -0.7386
vn -0.1255 0.7547 0.6439
vn -0.0139 0.9433 0.3315
vn -0.1251 0.9767 0.1746
vn 0.2716 0.9318 0.2410
vn 0.1389 -0.1526 -0.9785
vn 0.2905 -0.2595 -0.9210
vn 0.3285 -0.0285 -0.9441
vn 0.2996 -0.0176 -0.9539
vn 0.0055 0.0008 -1.0000
vn 0.1094 -0.1415 -0.9839
vn 0.2716 0.9318 0.2409
vn 0.5723 0.3846 -0.7243
vn 0.5994 0.3253 -0.7314
vn 0.5617 0.4237 -0.7106
vt 0.187660 0.259946
vt 0.190191 0.252459
vt 0.187331 0.249963
vt 0.663576 0.374817
vt 0.635294 0.295610
vt 0.632592 0.384509
vt 0.652857 0.294260
vt 0.687296 0.362711
vt 0.672054 0.292298
vt 0.904801 0.348226
vt 0.917370 0.360527
vt 0.918716 0.350030
vt 0.909677 0.316729
vt 0.877108 0.342308
vt 0.174928 0.381745
vt 0.187109 0.387793
vt 0.180720 0.370958
vt 0.905092 0.366330
vt 0.903546 0.379285
vt 0.911452 0.376268
vt 0.578151 0.194905
vt 0.582837 0.210238
vt 0.586406 0.203942
vt 0.472236 1.000000
vt 0.482451 0.987934
vt 0.469444 0.906625
vt 0.540301 0.204495
vt 0.534486 0.210438
vt 0.533039 0.216820
vt 0.542794 0.149308
vt 0.545291 0.155286
vt 0.545603 0.148695
vt 0.531632 0.212319
vt 0.529201 0.215135
vt 0.641392 0.160121
vt 0.642832 0.165129
vt 0.642832 0.147882
vt 0.417687 0.214584
vt 0.415678 0.216464
vt 0.420837 0.219529
vt 0.042057 0.267566
vt 0.044684 0.266417
vt 0.043584 0.264099
vt 0.615231 0.237871
vt 0.610729 0.227887
vt 0.611684 0.241516
vt 0.492434 0.149605
vt 0.491956 0.167750
vt 0.495042 0.150697
vt 0.782867 0.208869
vt 0.782141 0.213005
vt 0.784301 0.214296
vt 0.741558 0.260625
vt 0.745524 0.263017
vt 0.742387 0.254159
vt 0.338168 0.880104
vt 0.362947 0.887697
vt 0.341604 0.765499
vt 0.789257 0.715218
vt 0.789172 0.513527
vt 0.739684 0.823606
vt 0.528543 0.210735
vt 0.523559 0.213847
vt 0.525413 0.219105
vt 0.399537 0.464258
vt 0.345483 0.295554
vt 0.346583 0.448450
vt 0.203502 1.000000
vt 0.117792 0.838980
vt 0.058647 0.984568
vt 0.394058 0.998349
vt 0.380223 0.986329
vt 0.377528 0.997327
vt 0.478458 0.254931
vt 0.476201 0.252301
vt 0.473017 0.255809
vt 0.926101 0.340743
vt 0.919742 0.335922
vt 0.518802 0.999716
vt 0.582324 0.887729
vt 0.560500 0.846837
vt 0.744361 0.170158
vt 0.744361 0.150308
vt 0.739684 0.163203
vt 0.215286 0.301856
vt 0.191921 0.291734
vt 0.200196 0.370577
vt 0.235446 0.843922
vt 0.222093 0.728921
vt 0.593862 0.405309
vt 0.569604 0.527674
vt 0.365081 0.995743
vt 0.400341 0.939469
vt 0.435321 0.926415
vt 0.449710 0.765621
vt 0.426351 0.563652
vt 0.225571 0.415821
vt 0.256056 0.383577
vt 0.238440 0.303418
vt 0.585251 0.263149
vt 0.579660 0.247793
vt 0.575974 0.258676
vt 0.570820 0.238382
vt 0.588343 0.193474
vt 0.584695 0.190634
vt 0.574137 0.175478
vt 0.219721 0.137303
vt 0.216055 0.139674
vt 0.219721 0.151724
vt 0.215429 0.145888
vt 0.414806 0.207165
vt 0.419779 0.206475
vt 0.418803 0.201359
vt 0.518802 0.215335
vt 0.620743 0.194569
vt 0.624291 0.206417
vt 0.623511 0.182170
vt 0.617539 0.175890
vt 0.613103 0.187254
vt 0.603412 0.297893
vt 0.581233 0.306271
vt 0.561308 0.383868
vt 0.187786 0.267635
vt 0.181297 0.262552
vt 0.586891 0.253620
vt 0.587963 0.270553
vt 0.588343 0.257829
vt 0.151277 0.300496
vt 0.172834 0.292920
vt 0.162643 0.292096
vt 0.620589 0.241451
vt 0.620536 0.219747
vt 0.412825 0.776741
vt 0.388016 0.774858
vt 0.074467 0.227345
vt 0.071180 0.211717
vt 0.066667 0.222101
vt 0.066894 0.200486
vt 0.876661 0.723055
vt 0.842426 0.352860
vt 0.190914 0.238240
vt 0.664427 0.162737
vt 0.664427 0.144815
vt 0.660540 0.151889
vt 0.416640 0.153905
vt 0.409810 0.166728
vt 0.416640 0.172637
vt 0.615250 0.307246
vt 0.028968 0.185277
vt 0.039808 0.185847
vt 0.039808 0.168483
vt 0.943202 0.881269
vt 0.980924 0.882494
vt 0.994933 0.538639
vt 0.480443 0.259917
vt 0.482039 0.256416
vt 0.481228 0.249615
vt 0.428819 0.210161
vt 0.426202 0.211528
vt 0.425927 0.218076
vt 0.433719 0.203911
vt 0.429032 0.204729
vt 0.400140 0.220367
vt 0.397609 0.220240
vt 0.386126 0.225750
vt 0.388977 0.221664
vt 0.885262 0.285571
vt 0.865342 0.292317
vt 0.612938 0.203090
vt 0.185227 0.137336
vt 0.188805 0.151911
vt 0.188805 0.135881
vt 0.247719 0.252880
vt 0.251194 0.267635
vt 0.250070 0.252557
vt 0.522062 0.209828
vt 0.880091 0.998743
vt 0.926101 1.000000
vt 0.404853 0.212902
vt 0.411015 0.210302
vt 0.406124 0.208269
vt 0.242317 0.526823
vt 0.606781 0.224630
vt 0.610098 0.216945
vt 0.681528 0.250138
vt 0.691408 0.256112
vt 0.696093 0.176859
vt 0.082936 0.712247
vt 0.122092 0.516552
vt 0.124870 0.353689
vt 0.722583 0.997691
vt 0.682487 0.827026
vt 0.693604 0.998770
vt 0.624498 0.297442
vt 0.070897 0.240561
vt 0.071791 0.257295
vt 0.077485 0.238714
vt 0.065732 0.235637
vt 0.067612 0.253768
vt 0.425465 0.996630
vt 0.415376 0.988916
vt 0.405974 0.997648
vt 0.921505 0.372433
vt 0.661004 0.195044
vt 0.660870 0.215703
vt 0.664427 0.205011
vt 0.075617 0.205232
vt 0.077037 0.218306
vt 0.570333 0.191120
vt 0.573825 0.207297
vt 0.569696 0.208025
vt 0.421027 0.213582
vt 0.423688 0.214457
vt 0.423215 0.209418
vt 0.720008 0.196628
vt 0.720493 0.181425
vt 0.713195 0.193450
vt 0.189065 0.237554
vt 0.189950 0.225026
vt 0.577313 0.220106
vt 0.581177 0.236885
vt 0.583618 0.229427
vt 0.572981 0.226405
vt 0.618215 0.527746
vt 0.635912 0.847049
vt 0.456254 0.987201
vt 0.533646 0.204471
vt 0.541744 0.197519
vt 0.539542 0.196999
vt 0.535768 0.205989
vt 0.427708 0.200702
vt 0.423724 0.204511
vt 0.608704 0.180753
vt 0.612481 0.164139
vt 0.569696 0.131325
vt 0.574119 0.138509
vt 0.574119 0.127426
vt 0.130746 0.230225
vt 0.130915 0.207392
vt 0.126085 0.221323
vt 0.689335 0.273193
vt 0.386126 0.159826
vt 0.386230 0.172637
vt 0.392708 0.152412
vt 0.648816 0.728138
vt 0.212961 0.202739
vt 0.215109 0.211582
vt 0.218030 0.212634
vt 0.762447 0.202750
vt 0.765039 0.214296
vt 0.765039 0.188945
vt 0.072094 0.186984
vt 0.067568 0.180848
vt 0.069854 0.195113
vt 0.809103 0.401907
vt 0.816610 0.513884
vt 0.156524 0.245911
vt 0.151149 0.250671
vt 0.158135 0.263782
vt 0.586418 0.220293
vt 0.582556 0.218661
vt 0.117951 0.720540
vt 0.077038 0.832565
vt 0.000000 0.976719
vt 0.255987 0.239070
vt 0.250974 0.237611
vt 0.739684 0.240656
vt 0.742637 0.244490
vt 0.742126 0.236173
vt 0.616460 0.256197
vt 0.624290 0.273193
vt 0.620096 0.253829
vt 0.151591 0.259239
vt 0.148017 0.251162
vt 0.696521 0.304712
vt 0.685145 0.293732
vt 0.027604 0.171144
vt 0.608763 1.000000
vt 0.550817 0.999545
vt 0.219721 0.170829
vt 0.214184 0.181253
vt 0.216778 0.196358
vt 0.152867 0.202913
vt 0.156629 0.215084
vt 0.155170 0.191440
vt 0.483817 0.255400
vt 0.487795 0.262177
vt 0.649010 0.184234
vt 0.656077 0.196162
vt 0.156147 0.382167
vt 0.164195 0.257726
vt 0.649274 0.217708
vt 0.655933 0.229164
vt 0.919278 0.318873
vt 0.915420 0.316028
vt 0.000000 0.263164
vt 0.010503 0.219599
vt 0.010503 0.171563
vt 0.433846 0.198160
vt 0.443583 0.191742
vt 0.434093 0.195436
vt 0.495042 0.177052
vt 0.543265 0.199336
vt 0.784301 0.200803
vt 0.401771 0.217632
vt 0.400482 0.216362
vt 0.395433 0.216902
vt 0.465338 0.562602
vt 0.479865 0.763385
vt 0.486760 0.445379
vt 0.148017 0.149472
vt 0.151340 0.156216
vt 0.151340 0.137773
vt 0.408916 0.217541
vt 0.481428 0.263835
vt 0.475825 0.260117
vt 0.474471 0.262134
vt 0.219721 0.212104
vt 0.486283 0.265149
vt 0.661728 0.237536
vt 0.416640 0.128594
vt 0.416397 0.124642
vt 0.413371 0.131350
vt 0.173173 0.356350
vt 0.178727 0.366992
vt 0.094586 0.191241
vt 0.104697 0.200937
vt 0.104697 0.175332
vt 0.857749 0.282981
vt 0.873874 0.285614
vt 0.318023 0.000000
vt 0.273158 0.157144
vt 0.318023 0.274487
vt 0.547610 0.727931
vt 0.249729 0.145573
vt 0.248134 0.152260
vt 0.249729 0.158016
vt 0.203570 0.287991
vt 0.225681 0.286740
vt 0.256056 0.997490
vt 0.196738 0.438915
vt 0.580239 0.174720
vt 0.576193 0.157614
vt 0.155170 0.234188
vt 0.149484 0.235437
vt 0.451933 0.443625
vt 0.897575 0.296793
vt 0.902777 0.289187
vt 0.410310 0.214164
vt 0.190914 0.266834
vt 0.219721 0.231739
vt 0.208016 0.236807
vt 0.219721 0.267635
vt 0.801977 0.833440
vt 0.786522 0.988861
vt 0.654980 0.236480
vt 0.094586 0.148370
vt 0.097841 0.156227
vt 0.097841 0.135429
vt 0.075493 0.253528
vt 0.492249 0.268397
vt 0.490994 0.270986
vt 0.605534 0.195260
vt 0.605444 0.208816
vt 0.641392 0.227333
vt 0.652783 0.273193
vt 0.190914 0.186872
vt 0.190583 0.171016
vt 0.185227 0.189967
vt 0.765512 0.241043
vt 0.762625 0.249070
vt 0.765512 0.263017
vt 0.130915 0.255575
vt 0.127046 0.263613
vt 0.127530 0.267635
vt 0.546144 0.164854
vt 0.543517 0.163318
vt 0.547153 0.173134
vt 0.192146 0.366776
vt 0.129080 0.247777
vt 0.124557 0.241284
vt 0.472007 0.252133
vt 0.475727 0.248348
vt 1.000000 1.000000
vt 0.529181 0.203383
vt 0.739684 0.128268
vt 0.740989 0.131203
vt 0.740989 0.125635
vt 0.740784 0.983449
vt 0.435881 0.198741
vt 0.417301 0.210558
vt 0.613700 0.256218
vt 0.743349 0.235396
vt 0.745524 0.233401
vt 0.130915 0.167124
vt 0.122904 0.172322
vt 0.130915 0.188287
vt 0.501700 0.293592
vt 0.473987 0.158681
vt 0.464317 0.158681
vt 0.473067 0.177052
vt 0.442621 0.293592
vt 0.958975 0.167058
vt 0.943202 0.510224
vt 0.958975 0.519533
vt 0.572613 0.292298
vt 0.592210 0.295647
vt 0.720493 0.273193
vt 0.273158 0.298196
vt 0.664427 0.267561
vt 0.696429 0.726139
vt 0.719090 0.844131
vt 0.741028 0.249916
vt 0.212412 0.194600
vt 0.648711 0.203028
vt 0.247463 0.159490
vt 0.616979 0.162013
vt 0.052614 0.807010
vt 0.914365 0.288640
vt 0.518802 0.159653
vt 0.525289 0.173134
vt 0.525289 0.150801
vt 0.256056 0.206235
vt 0.256056 0.178595
vt 0.245495 0.191660
vt 0.696093 0.256546
vt 0.245103 0.290514
vt 0.542391 0.155368
vt 0.491089 0.159058
vt 0.547153 0.148582
vt 0.353686 0.986565
vt 0.580182 0.273193
vt 0.574177 0.271167
vt 0.501700 0.274487
vt 0.433741 0.168380
vt 0.438374 0.172637
vt 0.438374 0.150880
vt 0.662140 0.165129
vt 0.585273 0.243836
vt 0.827191 0.292436
vt 0.842189 0.282122
vt 0.470116 0.257912
vt 0.077485 0.201838
vt 0.681528 0.149167
vt 0.686792 0.157754
vt 0.686792 0.140467
vt 0.762447 0.163352
vt 0.766010 0.169840
vt 0.766010 0.148169
vt 0.703206 0.524008
vt 0.455430 0.996978
vt 0.151457 0.175321
vt 0.156629 0.179502
vt 0.605444 0.135634
vt 0.607144 0.142908
vt 0.607144 0.126256
vt 0.148017 0.186162
vt 0.190914 0.205921
vt 0.442861 0.996086
vt 0.245495 0.156087
vt 0.249245 0.140215
vt 0.256056 0.225340
vt 0.256056 0.256450
vt 0.157166 0.267635
vt 0.739684 0.213734
vt 0.745346 0.214296
vt 0.740723 0.199685
vt 0.145649 0.287148
vt 0.811464 0.293792
vt 0.720493 0.145745
vt 0.714522 0.150496
vt 0.720493 0.162320
vt 0.040536 0.266474
vt 0.040062 0.261812
vt 0.037666 0.267635
vt 0.917557 0.373940
vt 0.164195 0.243627
vt 0.065732 0.156008
vt 0.071732 0.161743
vt 0.071732 0.145224
vt 0.010503 0.267635
vt 0.611246 0.254102
vt 0.745346 0.189263
vt 0.552595 0.192239
vt 0.252751 0.725480
vt 0.430044 0.211197
vt 0.369024 0.117718
vt 0.335124 0.117804
vt 0.369024 0.274487
vt 1.000000 0.681158
vt 0.495664 0.269040
vt 0.069246 0.267635
vt 0.464317 0.252560
vt 0.395828 0.213935
vt 0.010503 0.152458
vt 0.010503 0.136430
vt 0.006438 0.151730
vt 0.436892 0.124764
vt 0.438374 0.131775
vt 0.438374 0.123604
vt 0.392708 0.165763
vt 0.126089 0.148019
vt 0.126089 0.133922
vt 0.122904 0.136932
vt 0.647293 0.186371
vt 0.107456 0.267635
vt 0.107456 0.220042
vt 0.094586 0.241276
s 1
usemtl material
f 169/163/142 170/164/143 171/165/144
f 172/166/145 173/167/146 174/168/147
f 175/169/148 176/170/149 177/171/150
f 178/172/151 179/173/152 180/174/153
f 181/175/154 182/176/155 183/172/156
f 184/177/157 185/178/158 186/179/159
f 187/180/160 188/181/161 189/182/162
f 190/183/163 191/184/164 192/185/165
f 193/186/166 194/187/167 195/188/168
f 196/189/169 197/190/170 198/191/171
f 199/192/172 200/193/173 201/194/174
f 202/195/175 203/196/176 204/191/177
f 205/197/178 206/198/179 207/199/180
f 208/200/181 209/201/182 210/202/183
f 211/203/184 212/204/185 213/205/186
f 214/206/187 215/207/188 216/208/189
f 217/209/190 218/210/191 219/211/192
f 220/212/193 221/213/194 222/214/195
f 223/215/196 224/216/197 225/217/198
f 226/218/199 227/219/200 228/220/201
f 229/221/202 230/222/203 231/223/204
f 232/224/205 233/225/206 234/226/207
f 235/227/208 236/228/209 237/229/210
f 238/230/211 239/231/212 240/232/213
f 241/233/214 242/234/215 243/235/216
f 244/236/217 245/237/218 246/238/219
f 247/239/220 248/240/221 249/174/222
f 250/241/223 251/242/224 252/243/225
f 188/181/161 187/180/160 182/176/155
f 253/244/226 254/245/227 255/246/228
f 256/247/229 257/248/230 258/249/231
f 259/250/232 260/251/233 239/231/212
f 261/252/234 262/253/235 252/243/225
f 242/234/215 263/254/236 243/235/216
f 264/255/237 227/219/200 242/234/215
f 265/256/238 195/188/168 266/257/239
f 266/257/239 267/258/240 265/256/238
f 268/259/241 269/260/242 270/261/167
f 271/262/243 272/263/244 273/264/245
f 272/263/244 274/265/246 273/264/245
f 192/185/165 275/266/247 276/267/248
f 190/183/163 276/267/248 277/268/249
f 278/269/250 279/270/251 280/271/252
f 281/272/253 280/271/252 279/270/251
f 282/273/254 283/274/255 284/275/256
f 285/226/257 286/225/258 287/276/259
f 288/277/260 289/278/261 290/279/262
f 288/277/260 291/280/263 292/281/264
f 293/282/265 294/283/266 261/252/234
f 295/284/267 261/252/234 294/283/266
f 296/285/268 297/163/269 298/286/270
f 299/287/271 300/288/272 301/289/273
f 302/290/274 303/291/275 304/292/276
f 214/206/187 305/293/277 306/294/278
f 264/255/237 265/256/238 307/295/279
f 308/296/280 307/295/279 235/227/208
f 309/297/281 310/298/282 311/299/283
f 310/298/282 312/300/284 311/299/283
f 313/301/285 188/181/161 314/302/286
f 315/164/287 316/303/288 317/165/289
f 318/304/287 319/305/290 320/306/291
f 321/307/292 322/308/293 323/309/294
f 261/252/234 174/168/147 324/310/295
f 325/311/296 326/312/297 327/313/298
f 328/314/299 329/315/300 330/316/267
f 331/238/301 332/317/302 333/236/303
f 334/236/304 335/318/305 336/319/306
f 337/320/307 338/321/308 339/322/309
f 340/323/310 341/324/311 342/320/312
f 343/325/313 344/326/314 345/327/315
f 346/328/253 345/327/315 344/326/314
f 347/329/316 348/330/317 182/176/155
f 314/302/286 182/176/155 348/330/317
f 349/331/318 288/277/260 292/281/264
f 350/332/319 351/333/150 352/334/320
f 353/335/150 354/336/321 355/337/320
f 356/224/322 357/338/323 358/225/324
f 359/339/325 360/340/326 313/301/285
f 361/341/327 362/342/328 363/343/329
f 260/251/233 364/344/330 268/259/241
f 365/345/331 216/208/189 215/207/188
f 366/346/332 215/207/188 306/294/278
f 367/347/333 368/348/334 369/349/335
f 370/350/336 371/351/337 372/352/338
f 373/353/339 374/354/340 375/355/341
f 293/282/265 324/310/295 376/356/342
f 377/226/343 378/191/344 379/196/345
f 380/357/346 381/358/347 382/359/348
f 380/357/346 383/360/349 384/361/350
f 385/362/284 386/363/351 387/364/283
f 313/301/285 388/365/352 188/181/161
f 389/366/353 390/367/354 391/368/355
f 392/369/356 310/298/282 393/370/357
f 190/183/163 394/371/297 395/372/358
f 394/371/297 396/373/359 395/372/358
f 397/374/360 398/375/361 399/376/362
f 400/377/363 401/378/364 402/379/365
f 403/380/366 316/303/288 404/381/272
f 405/382/367 406/383/290 407/384/197
f 405/382/367 396/373/359 408/385/368
f 409/386/369 261/252/234 410/387/370
f 411/388/371 193/186/166 195/188/168
f 412/389/372 413/390/373 414/391/374
f 415/224/375 416/392/376 412/389/372
f 417/393/377 418/394/378 419/324/379
f 420/395/380 291/280/263 421/396/381
f 422/397/382 423/398/383 424/399/384
f 425/400/382 426/401/385 427/402/148
f 428/403/386 429/348/387 430/347/388
f 431/404/389 432/405/390 433/406/391
f 174/168/147 434/407/392 374/354/340
f 435/408/393 436/409/394 437/410/395
f 438/411/396 439/412/382 440/413/384
f 441/414/397 442/415/398 443/416/399
f 442/415/398 312/300/284 443/416/399
f 314/302/286 444/417/199 445/418/400
f 445/418/400 313/301/285 314/302/286
f 446/419/401 447/420/402 448/421/272
f 449/422/196 192/185/165 191/184/164
f 191/184/164 450/423/403 449/422/196
f 451/394/404 452/274/405 453/376/406
f 454/177/407 455/424/408 239/231/212
f 240/232/213 456/425/409 457/426/339
f 458/427/410 459/428/411 355/337/320
f 460/429/412 461/430/413 462/431/414
f 463/432/415 214/206/187 216/208/189
f 463/432/415 464/433/321 465/434/276
f 466/435/374 448/421/272 447/420/402
f 447/420/402 467/436/191 466/435/374
f 468/437/274 469/438/321 176/170/149
f 470/439/416 325/311/296 327/313/298
f 471/376/417 472/324/418 473/394/419
f 474/440/420 251/242/224 475/441/421
f 434/407/392 409/386/369 410/387/370
f 476/442/422 477/443/423 478/444/192
f 479/445/424 480/446/265 481/447/342
f 482/448/425 483/318/426 484/449/427
f 485/366/428 486/450/429 487/451/430
f 372/352/338 488/452/431 302/290/274
f 489/196/432 490/224/433 491/226/434
f 492/453/226 446/419/401 448/421/272
f 493/367/435 494/454/436 495/455/437
f 496/240/438 497/456/439 498/457/440
f 499/375/441 500/321/442 501/376/443
f 241/233/214 386/363/351 264/255/237
f 502/189/444 503/392/445 504/190/446
f 505/458/447 506/459/448 507/460/449
f 508/461/450 509/393/451 510/324/452
f 511/462/453 512/463/454 513/461/455
f 218/210/191 514/464/424 219/211/192
f 174/168/147 374/354/340 172/166/145
f 515/465/456 413/390/373 416/392/376
f 516/212/457 517/214/458 518/466/459
f 519/467/460 520/468/461 346/328/253
f 228/220/201 227/219/200 237/229/210
f 521/468/462 522/341/463 523/469/464
f 374/354/340 176/170/149 172/166/145
f 524/470/465 525/471/466 526/472/232
f 527/473/467 528/474/250 529/475/468
f 530/467/469 531/326/470 532/476/471
f 533/477/472 534/478/313 535/479/357
f 406/383/290 272/263/244 299/287/271
f 536/480/473 537/444/474 538/410/475
f 539/477/476 540/481/477 541/317/478
f 542/455/479 543/482/480 544/367/481
f 545/483/482 546/484/483 547/485/484
f 548/486/485 549/487/486 550/248/487
f 551/488/488 552/489/488 553/490/488
f 554/491/489 348/330/317 555/492/368
f 556/493/326 557/494/225 558/495/285
f 559/496/490 262/253/235 295/284/267
f 560/497/491 561/498/492 562/499/493
f 563/500/494 256/247/229 564/501/495
f 259/250/232 238/230/211 565/502/496
f 239/231/212 566/503/497 454/177/407
f 567/504/498 568/505/236 277/268/249
f 446/419/401 569/506/499 570/507/500
f 571/508/501 235/227/208 267/258/240
f 572/190/502 573/195/503 574/191/504
f 347/329/316 575/509/505 576/510/506
f 577/476/507 578/511/508 579/467/509
f 580/512/510 581/163/511 582/285/512
f 363/343/329 583/469/513 361/341/327
f 584/513/514 585/514/515 586/515/516
f 382/359/348 393/370/357 309/297/281
f 587/217/517 588/216/518 589/430/519
f 590/516/520 591/517/521 313/301/285
f 592/454/522 593/518/523 594/455/524
f 595/519/525 596/520/226 597/521/272
f 381/358/347 598/522/526 382/359/348
f 599/523/527 600/481/528 601/524/247
f 349/331/318 602/525/529 603/526/530
f 188/181/161 182/176/155 314/302/286
f 604/518/531 605/527/532 606/528/533
f 607/529/397 608/530/251 609/531/534
f 610/532/397 611/533/535 612/534/536
f 613/535/384 614/536/453 615/537/178
f 616/538/537 617/539/178 618/540/453
f 619/178/538 620/541/539 621/179/540
f 231/223/204 590/516/520 229/221/202
f 622/542/383 623/543/411 614/536/453
f 624/544/541 625/237/542 626/545/543
f 329/315/300 328/314/299 627/546/544
f 261/252/234 252/243/225 251/242/224
f 412/389/372 628/547/190 415/224/375
f 349/331/318 366/346/332 306/294/278
f 629/317/545 630/449/546 631/318/547
f 375/355/341 410/387/370 474/440/420
f 267/258/240 307/295/279 265/256/238
f 632/548/548 633/549/549 634/550/550
f 635/551/551 591/517/521 590/516/520
f 636/552/552 637/461/553 638/324/554
f 435/408/393 437/410/395 478/444/192
f 639/553/555 640/511/556 641/200/557
f 642/554/558 463/432/415 216/208/189
f 643/376/559 644/553/560 645/374/561
f 309/297/281 380/357/346 382/359/348
f 646/555/562 647/430/563 648/556/564
f 649/557/565 650/558/566 651/559/567
f 652/560/496 571/508/501 526/472/232
f 653/561/568 654/562/569 655/563/570
f 656/172/571 657/174/572 658/240/573
f 524/470/465 526/472/232 571/508/501
f 652/560/496 659/564/574 571/508/501
f 591/517/521 359/339/325 313/301/285
f 257/248/391 303/291/275 488/452/431
f 660/565/299 661/566/267 662/567/352
f 371/351/337 455/424/408 488/452/431
f 434/407/392 410/387/370 374/354/340
f 663/568/499 294/283/266 664/569/500
f 488/452/431 454/177/407 665/486/575
f 666/366/576 667/451/577 668/367/578
f 669/178/579 454/177/407 566/503/497
f 670/286/580 671/163/581 672/165/582
f 566/503/497 258/249/231 669/178/579
f 673/541/583 674/248/584 675/179/585
f 676/570/586 677/377/587 678/379/588
f 236/228/209 679/571/589 237/229/210
f 680/455/524 593/518/590 681/572/591
f 237/229/210 227/219/200 235/227/208
f 682/573/336 374/354/340 683/574/592
f 455/424/408 456/425/409 239/231/212
f 659/564/574 236/228/209 235/227/208
f 227/219/200 308/296/280 235/227/208
f 684/374/593 685/200/594 686/202/595
f 229/221/202 445/418/400 444/417/199
f 524/470/465 266/257/239 195/188/168
f 270/261/167 256/247/229 268/259/241
f 687/575/596 688/217/597 689/430/598
f 478/444/192 690/576/180 435/408/393
f 284/275/256 363/343/329 282/273/254
f 691/577/599 692/367/600 693/451/601
f 604/518/531 694/454/602 605/527/532
f 695/498/603 696/578/604 697/499/605
f 698/180/606 699/182/607 700/173/608
f 450/423/403 405/382/367 407/384/197
f 701/273/609 702/342/610 703/553/611
f 291/280/263 704/579/612 421/396/381
f 370/350/336 372/352/338 705/580/613
f 261/252/234 251/242/224 410/387/370
f 706/240/614 707/175/615 708/172/616
f 709/175/617 710/457/618 711/581/619
f 712/581/620 713/457/621 714/456/622
f 715/582/623 716/583/624 717/584/448
f 718/585/267 719/586/625 720/587/626
f 187/180/160 183/172/156 182/176/155
f 575/509/505 181/175/154 721/581/515
f 576/510/506 575/509/505 721/581/515
f 488/452/431 665/486/575 257/248/391
f 722/588/627 723/349/628 724/348/629
f 725/588/630 726/348/631 727/403/632
f 728/163/633 729/512/634 730/164/635
f 172/166/145 175/169/148 173/167/146
f 175/169/148 172/166/145 176/170/149
f 731/172/636 732/180/637 733/173/638
f 181/175/154 575/509/505 182/176/155
f 190/183/163 395/372/358 191/184/164
f 734/589/612 564/501/495 270/261/167
f 735/192/639 736/590/394 737/193/640
f 738/195/641 739/224/642 740/196/643
f 617/539/178 737/193/640 736/590/394
f 741/200/644 742/511/645 743/201/646
f 744/431/647 745/430/648 746/555/649
f 214/206/187 306/294/278 215/207/188
f 217/209/190 747/591/374 218/210/191
f 748/194/650 749/193/651 750/592/652
f 449/422/196 450/423/403 407/384/197
f 226/218/199 751/593/569 227/219/200
f 229/221/202 444/417/199 230/222/203
f 241/233/214 264/255/237 242/234/215
f 752/236/653 753/319/654 754/237/655
f 250/241/223 475/441/421 251/242/224
f 755/594/226 273/264/245 756/595/515
f 258/249/231 566/503/497 268/259/241
f 268/259/241 256/247/229 258/249/231
f 260/251/233 268/259/241 566/503/497
f 242/234/215 227/219/200 263/254/236
f 264/255/237 308/296/280 227/219/200
f 265/256/238 411/388/371 195/188/168
f 266/257/239 571/508/501 267/258/240
f 268/259/241 364/344/330 269/260/242
f 271/262/243 299/287/271 272/263/244
f 272/263/244 408/385/368 274/265/246
f 757/596/656 599/523/527 601/524/247
f 190/183/163 192/185/165 276/267/248
f 758/597/250 759/598/534 760/599/251
f 346/328/253 520/468/461 583/469/252
f 761/273/657 762/553/658 763/274/659
f 288/277/260 306/294/278 289/278/261
f 288/277/260 290/279/262 291/280/263
f 293/282/265 664/569/500 294/283/266
f 295/284/267 262/253/235 261/252/234
f 299/287/271 271/262/243 300/288/272
f 302/290/274 488/452/431 303/291/275
f 214/206/187 465/434/276 305/293/277
f 264/255/237 386/363/351 265/256/238
f 308/296/280 264/255/237 307/295/279
f 309/297/281 393/370/357 310/298/282
f 310/298/282 443/416/399 312/300/284
f 318/304/287 320/306/291 764/600/273
f 765/601/660 766/384/661 767/383/662
f 324/310/295 174/168/147 173/167/146
f 261/252/234 409/386/369 174/168/147
f 768/602/663 314/302/286 769/603/664
f 770/238/665 771/478/666 772/317/667
f 773/236/668 774/317/669 775/318/670
f 776/320/671 777/324/672 778/321/673
f 779/323/674 780/552/675 781/324/676
f 782/478/677 783/238/678 784/604/679
f 785/605/253 392/369/356 393/370/357
f 786/606/680 787/607/368 788/608/681
f 349/331/318 306/294/278 288/277/260
f 789/609/411 790/610/682 791/611/150
f 177/171/150 176/170/149 469/438/321
f 415/224/375 628/547/190 792/338/192
f 793/341/683 794/511/684 795/342/685
f 260/251/233 259/250/232 364/344/330
f 284/275/256 796/393/686 512/463/189
f 366/346/332 365/345/331 215/207/188
f 682/573/336 683/574/592 797/612/337
f 373/353/339 683/574/592 374/354/340
f 293/282/265 261/252/234 324/310/295
f 380/357/346 384/361/350 381/358/347
f 380/357/346 311/299/283 383/360/349
f 385/362/284 265/256/238 386/363/351
f 392/369/356 443/416/399 310/298/282
f 190/183/163 277/268/249 394/371/297
f 769/603/664 314/302/286 554/491/489
f 798/374/687 799/202/688 800/375/689
f 801/487/690 802/486/691 803/177/692
f 403/380/366 317/165/289 316/303/288
f 405/382/367 408/385/368 406/383/290
f 405/382/367 395/372/358 396/373/359
f 411/388/371 804/613/534 193/186/166
f 412/389/372 416/392/376 413/390/373
f 805/224/693 806/195/694 807/392/695
f 796/393/686 284/275/256 808/394/696
f 420/395/380 292/281/264 291/280/263
f 425/400/382 427/402/148 622/542/383
f 809/614/697 481/447/342 810/615/385
f 811/616/393 812/617/180 813/618/698
f 814/619/423 481/447/342 809/614/697
f 607/529/397 609/531/534 815/620/398
f 816/621/398 265/256/238 385/362/284
f 314/302/286 768/602/663 444/417/199
f 445/418/400 590/516/520 313/301/285
f 446/419/401 570/507/500 447/420/402
f 817/622/196 818/498/699 819/623/700
f 191/184/164 395/372/358 450/423/403
f 808/394/696 284/275/256 283/274/255
f 454/177/407 488/452/431 455/424/408
f 240/232/213 239/231/212 456/425/409
f 458/427/410 820/624/701 459/428/411
f 821/429/702 822/575/703 823/430/704
f 463/432/415 465/434/276 214/206/187
f 824/625/705 355/337/320 354/336/321
f 466/435/374 825/626/706 448/421/272
f 826/627/402 827/628/707 828/629/191
f 302/290/274 304/292/276 829/630/708
f 830/631/569 444/417/199 768/602/663
f 831/376/709 832/321/710 833/324/711
f 474/440/420 410/387/370 251/242/224
f 434/407/392 174/168/147 409/386/369
f 479/445/424 481/447/342 814/619/423
f 834/632/422 835/633/500 836/634/712
f 837/635/713 838/636/714 839/637/715
f 840/173/716 841/182/717 842/638/718
f 372/352/338 371/351/337 488/452/431
f 492/453/226 843/639/514 446/419/401
f 844/367/719 845/577/720 846/454/721
f 847/240/722 848/239/723 849/456/724
f 850/375/725 851/322/726 852/321/727
f 853/640/728 854/641/729 855/642/351
f 856/189/730 857/465/731 858/392/732
f 505/458/447 859/643/228 506/459/448
f 860/461/733 861/463/734 862/393/735
f 863/644/453 642/554/558 216/208/189
f 828/629/191 827/628/707 864/645/424
f 515/465/456 865/646/736 413/390/373
f 866/467/737 867/511/738 868/468/739
f 869/468/740 870/511/741 871/341/742
f 872/647/743 269/260/242 364/344/330
f 602/525/529 292/281/264 420/395/380
f 519/467/460 346/328/253 344/326/314
f 873/477/744 874/317/745 875/478/746
f 406/383/290 408/385/368 272/263/244
f 533/477/472 601/524/247 600/481/528
f 876/455/747 877/572/748 878/482/749
f 879/648/750 880/323/751 881/320/752
f 554/491/489 314/302/286 348/330/317
f 882/649/753 883/650/223 884/651/225
f 329/315/300 627/546/544 885/652/754
f 599/523/527 757/596/656 886/653/755
f 563/500/494 257/248/230 256/247/229
f 238/230/211 259/250/232 239/231/212
f 887/636/756 888/635/757 889/205/758
f 381/358/347 384/361/350 890/654/236
f 446/419/401 843/639/514 569/506/499
f 571/508/501 659/564/574 235/227/208
f 891/190/759 892/392/760 893/195/761
f 347/329/316 182/176/155 575/509/505
f 894/238/762 895/544/763 896/655/764
f 363/343/329 897/656/467 583/469/513
f 601/524/247 533/477/472 535/479/357
f 271/262/243 273/264/245 755/594/226
f 567/504/498 277/268/249 276/267/248
f 898/523/765 899/449/766 900/481/767
f 349/331/318 292/281/264 602/525/529
f 901/657/397 902/658/536 903/659/251
f 441/414/397 443/416/399 392/369/356
f 613/535/384 622/542/383 614/536/453
f 616/538/537 737/193/640 617/539/178
f 231/223/204 635/551/551 590/516/520
f 622/542/383 427/402/148 623/543/411
f 904/544/768 905/238/769 906/237/770
f 412/389/372 414/391/374 628/547/190
f 349/331/318 603/526/530 366/346/332
f 907/317/771 908/481/772 909/449/773
f 375/355/341 374/354/340 410/387/370
f 267/258/240 235/227/208 307/295/279
f 910/660/774 911/661/775 912/662/776
f 913/552/537 511/462/453 513/461/455
f 914/553/777 915/342/778 916/511/779
f 458/427/410 355/337/320 824/625/705
f 917/376/780 918/274/781 919/553/782
f 309/297/281 311/299/283 380/357/346
f 411/388/371 265/256/238 816/621/398
f 263/254/236 227/219/200 751/593/569
f 433/406/391 432/405/390 920/663/783
f 371/351/337 456/425/409 455/424/408
f 663/568/499 295/284/267 294/283/266
f 921/374/784 922/553/785 923/200/786
f 229/221/202 590/516/520 445/418/400
f 524/470/465 571/508/501 266/257/239
f 270/261/167 564/501/495 256/247/229
f 924/575/787 223/215/196 225/217/198
f 478/444/192 477/443/423 690/576/180
f 365/345/331 366/346/332 603/526/530
f 925/664/788 926/665/789 927/666/790
f 928/667/791 929/577/792 930/451/793
f 818/498/699 817/622/196 931/578/794
f 450/423/403 395/372/358 405/382/367
f 282/273/254 363/343/329 362/342/328
f 291/280/263 290/279/262 704/579/612
f 932/175/795 933/240/796 934/457/797
f 935/668/267 936/669/532 937/670/625
f 260/251/233 566/503/497 239/231/212
