# Blender 5.1.0
# www.blender.org
mtllib vaz 2107 window.mtl
o Object_4
v 0.000000 1.263902 0.651017
v 0.413019 1.248219 0.633143
v 0.562431 1.227395 0.621674
v 0.599032 1.187951 0.620857
v 0.676085 0.878671 0.841623
v 0.632736 0.863029 0.894785
v 0.459029 0.864169 0.942516
v 0.000000 0.874553 0.976195
v 0.606706 1.247236 -0.031507
v 0.713121 0.826053 -0.028278
v 0.705470 0.826054 0.826903
v 0.668790 1.013320 0.700483
v 0.663867 1.015778 -0.822157
v 0.701773 0.826053 -0.954724
v 0.665605 1.036645 -0.029893
v 0.672534 0.839771 -1.191440
v 0.000000 0.856167 -1.318888
v 0.549316 1.233676 -0.903607
v 0.000000 1.273078 -0.945290
v 0.611429 1.229675 0.502226
v 0.620727 1.200586 0.568450
v 0.614152 1.222656 0.538601
v 0.614577 1.205503 -0.689590
v 0.604855 1.238479 -0.625376
v 0.607703 1.228562 -0.661162
v 0.478068 0.846445 -1.257732
v 0.402728 1.251582 -0.928220
v 0.440398 1.049013 -1.092976
v 0.000000 1.064622 -1.132089
v 0.610925 1.036723 -1.047523
v 0.637558 1.033311 0.735259
v 0.000000 1.069227 0.817624
v 0.436024 1.056194 0.791848
v 0.597584 1.045212 0.762248
v -0.413019 1.248219 0.633143
v -0.562431 1.227395 0.621674
v -0.599032 1.187951 0.620857
v -0.676085 0.878671 0.841623
v -0.632736 0.863029 0.894785
v -0.459029 0.864169 0.942516
v -0.606706 1.247236 -0.031507
v -0.713121 0.826053 -0.028278
v -0.705470 0.826054 0.826903
v -0.668790 1.013320 0.700483
v -0.663867 1.015778 -0.822157
v -0.701773 0.826053 -0.954724
v -0.665605 1.036645 -0.029893
v -0.672534 0.839771 -1.191440
v -0.549316 1.233676 -0.903607
v -0.611429 1.229675 0.502226
v -0.620727 1.200586 0.568450
v -0.614152 1.222656 0.538601
v -0.614577 1.205503 -0.689590
v -0.604855 1.238479 -0.625376
v -0.607703 1.228562 -0.661162
v -0.478068 0.846445 -1.257732
v -0.402728 1.251582 -0.928220
v -0.440398 1.049013 -1.092976
v -0.610925 1.036723 -1.047523
v -0.637558 1.033311 0.735259
v -0.436024 1.056194 0.791848
v -0.597584 1.045212 0.762248
v 0.230050 1.258577 0.644700
v 0.515956 1.238916 0.625313
v 0.585423 1.209631 0.620633
v 0.660313 0.869572 0.868833
v 0.577059 0.861139 0.918801
v 0.254788 0.870717 0.965432
v 0.683887 0.920916 -0.888441
v 0.709295 0.826054 0.399312
v 0.645826 1.106953 0.634993
v 0.690431 0.931349 -0.029086
v 0.662304 1.034155 -0.444542
v 0.637223 1.141940 -0.030700
v 0.265622 0.852705 -1.298413
v 0.707447 0.826053 -0.491501
v 0.665043 1.032517 0.351457
v 0.500035 1.241093 -0.915807
v 0.609067 1.238456 0.235360
v 0.612791 1.226165 0.520414
v 0.617440 1.211621 0.553525
v 0.688197 0.919687 0.764220
v 0.640289 1.110641 -0.755874
v 0.611140 1.217033 -0.675376
v 0.606279 1.233521 -0.643269
v 0.605780 1.242858 -0.328442
v 0.421563 1.150298 -1.010598
v 0.000000 0.960395 -1.225488
v 0.601889 0.842260 -1.221860
v 0.225378 1.265592 -0.939903
v 0.580120 1.135200 -0.975565
v 0.641729 0.938247 -1.119481
v 0.000000 1.168850 -1.038689
v 0.459233 0.947729 -1.175354
v 0.550962 1.041676 -1.068833
v 0.245500 1.059149 -1.119158
v 0.656822 0.955991 0.789194
v 0.000000 0.971890 0.897663
v 0.447527 0.960181 0.867936
v 0.615160 0.954121 0.829270
v 0.618295 1.110631 0.678811
v 0.000000 1.166564 0.735074
v 0.424521 1.152206 0.713249
v 0.580007 1.136303 0.692714
v 0.242419 1.064647 0.809084
v 0.546507 1.050028 0.776075
v 0.622868 1.039602 0.748751
v -0.230050 1.258577 0.644700
v -0.515956 1.238916 0.625313
v -0.585423 1.209631 0.620633
v -0.660313 0.869572 0.868833
v -0.577059 0.861139 0.918801
v -0.254788 0.870717 0.965431
v -0.683887 0.920916 -0.888441
v -0.709295 0.826054 0.399312
v -0.645826 1.106953 0.634993
v -0.690431 0.931349 -0.029086
v -0.662304 1.034154 -0.444542
v -0.637223 1.141940 -0.030700
v -0.265622 0.852705 -1.298414
v -0.707447 0.826053 -0.491501
v -0.665043 1.032517 0.351457
v -0.500035 1.241093 -0.915807
v -0.609067 1.238456 0.235360
v -0.612791 1.226165 0.520414
v -0.617440 1.211621 0.553525
v -0.688197 0.919687 0.764220
v -0.640289 1.110641 -0.755874
v -0.611140 1.217033 -0.675376
v -0.606279 1.233521 -0.643269
v -0.605780 1.242858 -0.328441
v -0.421563 1.150298 -1.010598
v -0.601889 0.842260 -1.221860
v -0.225378 1.265592 -0.939903
v -0.580120 1.135200 -0.975565
v -0.641729 0.938247 -1.119481
v -0.459233 0.947729 -1.175354
v -0.550962 1.041676 -1.068833
v -0.245500 1.059149 -1.119158
v -0.656822 0.955991 0.789194
v -0.447527 0.960181 0.867935
v -0.615160 0.954121 0.829270
v -0.618295 1.110631 0.678811
v -0.424521 1.152206 0.713249
v -0.580007 1.136303 0.692714
v -0.242419 1.064647 0.809084
v -0.546507 1.050028 0.776075
v -0.622868 1.039602 0.748751
v 0.627808 1.162575 -0.477877
v 0.631843 1.158867 0.376015
v 0.686855 0.927125 -0.461078
v 0.235439 1.162370 -1.029530
v 0.641590 0.954587 0.809545
v 0.576425 0.941968 -1.145347
v 0.561783 0.955584 0.848191
v 0.525499 1.141385 -0.992320
v 0.255561 0.955927 -1.208786
v 0.248603 0.967682 0.888011
v 0.236234 1.161612 0.727645
v 0.531232 1.144472 0.701447
v 0.604145 1.124616 0.685445
v 0.689045 0.926460 0.369587
v -0.627808 1.162575 -0.477877
v -0.631843 1.158867 0.376015
v -0.686855 0.927125 -0.461078
v -0.235439 1.162371 -1.029530
v -0.641590 0.954587 0.809545
v -0.576425 0.941968 -1.145347
v -0.561783 0.955584 0.848191
v -0.525499 1.141385 -0.992320
v -0.255561 0.955927 -1.208786
v -0.248603 0.967682 0.888011
v -0.236234 1.161612 0.727645
v -0.531232 1.144472 0.701447
v -0.604145 1.124616 0.685445
v -0.689045 0.926460 0.369587
vn 0.9704 0.2413 -0.0080
vn 0.9633 0.2684 -0.0029
vn 0.9695 0.2449 -0.0026
vn 0.9674 0.2533 -0.0066
vn 0.9745 0.2240 -0.0090
vn 0.9623 0.2718 -0.0013
vn 0.9722 0.2291 0.0493
vn 0.9582 0.2862 -0.0023
vn 0.9568 0.2907 -0.0044
vn 0.9590 0.2834 -0.0034
vn 0.9634 0.2679 -0.0067
vn 0.9607 0.2774 -0.0073
vn 0.9605 0.2783 -0.0033
vn 0.9554 0.2950 -0.0110
vn 0.9641 0.2655 0.0001
vn 0.9609 0.2771 0.0010
vn 0.9642 0.2649 -0.0071
vn 0.9575 0.2882 -0.0102
vn 0.9661 0.2571 -0.0227
vn 0.9690 0.2471 0.0010
vn 0.9725 0.2285 -0.0452
vn 0.9713 0.2379 0.0026
vn 0.9760 0.2179 0.0044
vn 0.9779 0.2092 -0.0020
vn 0.9769 0.2137 -0.0098
vn 0.9756 0.2196 -0.0023
vn 0.9793 0.2020 -0.0108
vn 0.9797 0.2001 -0.0112
vn 0.0715 0.6596 -0.7482
vn -0.0000 0.6658 -0.7461
vn -0.0000 0.6674 -0.7447
vn 0.1357 0.6443 -0.7526
vn 0.0815 0.6569 -0.7496
vn 0.1529 0.6404 -0.7527
vn 0.0929 0.6570 -0.7481
vn -0.0000 0.6659 -0.7460
vn 0.3735 0.6028 0.7051
vn 0.5756 0.5539 0.6016
vn 0.5876 0.5603 0.5837
vn 0.3851 0.5899 0.7097
vn 0.5402 0.5586 0.6294
vn 0.6490 0.5268 0.5489
vn 0.6645 0.5263 0.5305
vn 0.6859 0.5281 0.5006
vn 0.2573 0.6295 -0.7332
vn 0.1853 0.6406 -0.7452
vn 0.1701 0.6406 -0.7488
vn 0.3088 0.6242 -0.7177
vn 0.2709 0.6293 -0.7284
vn 0.3199 0.6238 -0.7131
vn 0.2809 0.6269 -0.7267
vn 0.1959 0.6377 -0.7450
vn 0.1292 0.6209 0.7731
vn 0.2025 0.6209 0.7573
vn 0.1194 0.6307 0.7668
vn 0.1365 0.6154 0.7763
vn 0.2220 0.6089 0.7616
vn 0.3746 0.5911 0.7143
vn 0.2189 0.6331 -0.7425
vn 0.2794 0.6269 -0.7272
vn 0.2411 0.6296 -0.7386
vn 0.2950 0.6245 -0.7232
vn -0.0000 0.6660 -0.7459
vn 0.1033 0.6570 -0.7468
vn 0.1100 0.6550 -0.7476
vn -0.0000 0.6648 -0.7470
vn 0.0706 0.6283 0.7747
vn 0.0669 0.6379 0.7672
vn -0.0000 0.6312 0.7757
vn -0.0000 0.6272 0.7788
vn 0.0734 0.6240 0.7780
vn 0.1010 0.6458 0.7568
vn 0.0633 0.6472 0.7597
vn 0.1095 0.6402 0.7603
vn 0.0600 0.6514 0.7563
vn -0.0000 0.6498 0.7601
vn -0.0000 0.6406 0.7679
vn 0.1627 0.6381 0.7526
vn 0.1845 0.6311 0.7535
vn 0.3643 0.6139 0.7003
vn 0.3143 0.6247 0.7148
vn 0.5625 0.5752 0.5939
vn 0.6116 0.5600 0.5589
vn 0.7209 0.5139 0.4651
vn 0.7647 0.4893 0.4193
vn 0.9776 0.2104 0.0056
vn 0.9809 0.1942 0.0075
vn 0.9800 0.1987 0.0071
vn -0.9633 0.2684 -0.0029
vn -0.9704 0.2413 -0.0080
vn -0.9695 0.2449 -0.0026
vn -0.9607 0.2774 -0.0073
vn -0.9605 0.2783 -0.0033
vn -0.9590 0.2834 -0.0034
vn -0.9634 0.2679 -0.0067
vn -0.9623 0.2718 -0.0013
vn -0.9582 0.2862 -0.0023
vn -0.9568 0.2907 -0.0044
vn -0.9674 0.2533 -0.0066
vn -0.9722 0.2291 0.0493
vn -0.9745 0.2240 -0.0090
vn -0.9554 0.2950 -0.0110
vn -0.9641 0.2655 0.0001
vn -0.9575 0.2882 -0.0102
vn -0.9609 0.2771 0.0010
vn -0.9713 0.2379 0.0026
vn -0.9690 0.2471 0.0010
vn -0.9760 0.2179 0.0044
vn -0.9642 0.2649 -0.0071
vn -0.9725 0.2285 -0.0452
vn -0.9661 0.2571 -0.0227
vn -0.9779 0.2092 -0.0020
vn -0.9769 0.2137 -0.0098
vn -0.9793 0.2020 -0.0108
vn -0.9756 0.2196 -0.0023
vn -0.9797 0.2001 -0.0112
vn -0.9811 0.1934 -0.0120
vn -0.0715 0.6596 -0.7482
vn -0.0815 0.6569 -0.7496
vn -0.0929 0.6570 -0.7481
vn -0.1529 0.6404 -0.7527
vn -0.1357 0.6443 -0.7526
vn -0.3735 0.6028 0.7051
vn -0.5756 0.5539 0.6016
vn -0.3851 0.5899 0.7097
vn -0.5876 0.5603 0.5837
vn -0.6645 0.5263 0.5305
vn -0.6490 0.5268 0.5489
vn -0.5402 0.5586 0.6294
vn -0.3746 0.5911 0.7143
vn -0.1853 0.6406 -0.7452
vn -0.2573 0.6295 -0.7332
vn -0.1701 0.6406 -0.7488
vn -0.1959 0.6377 -0.7450
vn -0.2709 0.6293 -0.7284
vn -0.2809 0.6269 -0.7267
vn -0.3199 0.6238 -0.7131
vn -0.3088 0.6242 -0.7177
vn -0.2025 0.6209 0.7573
vn -0.1292 0.6209 0.7731
vn -0.1194 0.6307 0.7668
vn -0.2220 0.6089 0.7616
vn -0.2333 0.6062 0.7603
vn -0.1365 0.6154 0.7763
vn -0.2189 0.6331 -0.7425
vn -0.2411 0.6296 -0.7386
vn -0.2950 0.6245 -0.7232
vn -0.2794 0.6269 -0.7272
vn -0.1033 0.6570 -0.7468
vn -0.1100 0.6550 -0.7476
vn -0.0706 0.6283 0.7747
vn -0.0669 0.6379 0.7672
vn -0.0734 0.6240 0.7780
vn -0.1010 0.6458 0.7568
vn -0.0633 0.6472 0.7597
vn -0.0600 0.6514 0.7563
vn -0.1095 0.6402 0.7603
vn -0.0000 0.6536 0.7568
vn -0.1627 0.6381 0.7526
vn -0.3143 0.6247 0.7148
vn -0.1845 0.6311 0.7535
vn -0.3643 0.6139 0.7003
vn -0.5625 0.5752 0.5939
vn -0.7647 0.4894 0.4193
vn -0.6115 0.5600 0.5589
vn -0.7209 0.5139 0.4651
vn -0.9776 0.2104 0.0056
vn -0.9800 0.1987 0.0071
vn -0.9809 0.1942 0.0075
vn 0.9811 0.1934 -0.0120
vn 0.3280 0.6221 -0.7109
vn 0.2333 0.6062 0.7603
vn 0.9823 0.1871 0.0088
vn -0.6859 0.5281 0.5006
vn -0.3280 0.6221 -0.7109
vn -0.9823 0.1871 0.0088
s 1
usemtl Window
f 73//1 74//2 15//3
f 83//4 73//1 13//5
f 84//6 83//4 23//7
f 85//8 84//6 25//9
f 24//10 149//11 85//8
f 74//2 86//12 9//13
f 20//14 150//15 79//16
f 81//17 80//18 22//19
f 71//20 81//17 21//21
f 77//22 71//20 12//23
f 74//2 77//22 15//3
f 79//16 74//2 9//13
f 10//24 151//25 72//26
f 76//27 69//28 151//25
f 151//25 13//5 73//1
f 72//26 73//1 15//3
f 90//29 93//30 19//31
f 27//32 152//33 90//29
f 87//34 96//35 152//33
f 152//33 29//36 93//30
f 34//37 153//38 107//39
f 100//40 66//41 153//38
f 153//38 5//42 97//43
f 107//39 97//43 31//44
f 95//45 94//46 28//47
f 30//48 154//49 95//45
f 92//50 89//51 154//49
f 154//49 26//52 94//46
f 99//53 106//54 33//55
f 7//56 155//57 99//53
f 155//57 6//58 100//40
f 155//57 34//37 106//54
f 78//59 87//34 27//32
f 18//60 156//61 78//59
f 91//62 95//45 156//61
f 156//61 28//47 87//34
f 96//35 88//63 29//36
f 28//47 157//64 96//35
f 94//46 75//65 157//64
f 157//64 17//66 88//63
f 33//55 158//67 99//53
f 105//68 98//69 158//67
f 158//67 8//70 68//71
f 99//53 68//71 7//56
f 2//72 159//73 103//74
f 63//75 102//76 159//73
f 159//73 32//77 105//68
f 103//74 105//68 33//55
f 103//74 64//78 2//72
f 33//55 160//79 103//74
f 106//54 104//80 160//79
f 160//79 3//81 64//78
f 104//80 65//82 3//81
f 34//37 161//83 104//80
f 107//39 101//84 161//83
f 161//83 4//85 65//82
f 77//22 72//26 15//3
f 12//23 162//86 77//22
f 82//87 70//88 162//86
f 162//86 10//24 72//26
f 119//89 118//90 47//91
f 131//92 119//89 41//93
f 54//94 163//95 131//92
f 129//96 130//97 55//98
f 128//99 129//96 53//100
f 118//90 128//99 45//101
f 50//102 164//103 125//104
f 119//89 124//105 41//93
f 122//106 119//89 47//91
f 116//107 122//106 44//108
f 126//109 116//107 51//110
f 125//104 126//109 52//111
f 42//112 165//113 121//114
f 117//115 118//90 165//113
f 165//113 45//101 114//116
f 121//114 114//116 46//117
f 93//30 134//118 19//31
f 29//36 166//119 93//30
f 139//120 132//121 166//119
f 166//119 57//122 134//118
f 62//123 167//124 142//125
f 148//126 140//127 167//124
f 167//124 38//128 111//129
f 142//125 111//129 39//130
f 137//131 138//132 58//133
f 56//134 168//135 137//131
f 133//136 136//137 168//135
f 168//135 59//138 138//132
f 147//139 141//140 61//141
f 62//123 169//142 147//139
f 169//142 39//130 112//143
f 169//142 40//144 141//140
f 132//121 123//145 57//122
f 58//133 170//146 132//121
f 138//132 135//147 170//146
f 170//146 49//148 123//145
f 88//63 139//120 29//36
f 17//66 171//149 88//63
f 120//150 137//131 171//149
f 171//149 58//133 139//120
f 61//141 172//151 146//152
f 141//140 113//153 172//151
f 172//151 8//70 98//69
f 146//152 98//69 32//77
f 35//154 173//155 108//156
f 144//157 146//152 173//155
f 173//155 32//77 102//76
f 108//156 102//76 1//158
f 109//159 144//157 35//154
f 36//160 174//161 109//159
f 145//162 147//139 174//161
f 174//161 61//141 144//157
f 110//163 145//162 36//160
f 37//164 175//165 110//163
f 143//166 148//126 175//165
f 175//165 62//123 145//162
f 117//115 122//106 47//91
f 42//112 176//167 117//115
f 115//168 127//169 176//167
f 176//167 44//108 122//106
f 73//1 149//11 74//2
f 83//4 149//11 73//1
f 84//6 149//11 83//4
f 85//8 149//11 84//6
f 24//10 86//12 149//11
f 74//2 149//11 86//12
f 20//14 80//18 150//15
f 81//17 150//15 80//18
f 71//20 150//15 81//17
f 77//22 150//15 71//20
f 74//2 150//15 77//22
f 79//16 150//15 74//2
f 10//24 76//27 151//25
f 76//27 14//170 69//28
f 151//25 69//28 13//5
f 72//26 151//25 73//1
f 90//29 152//33 93//30
f 27//32 87//34 152//33
f 87//34 28//47 96//35
f 152//33 96//35 29//36
f 34//37 100//40 153//38
f 100//40 6//58 66//41
f 153//38 66//41 5//42
f 107//39 153//38 97//43
f 95//45 154//49 94//46
f 30//48 92//50 154//49
f 92//50 16//171 89//51
f 154//49 89//51 26//52
f 99//53 155//57 106//54
f 7//56 67//172 155//57
f 155//57 67//172 6//58
f 155//57 100//40 34//37
f 78//59 156//61 87//34
f 18//60 91//62 156//61
f 91//62 30//48 95//45
f 156//61 95//45 28//47
f 96//35 157//64 88//63
f 28//47 94//46 157//64
f 94//46 26//52 75//65
f 157//64 75//65 17//66
f 33//55 105//68 158//67
f 105//68 32//77 98//69
f 158//67 98//69 8//70
f 99//53 158//67 68//71
f 2//72 63//75 159//73
f 63//75 1//158 102//76
f 159//73 102//76 32//77
f 103//74 159//73 105//68
f 103//74 160//79 64//78
f 33//55 106//54 160//79
f 106//54 34//37 104//80
f 160//79 104//80 3//81
f 104//80 161//83 65//82
f 34//37 107//39 161//83
f 107//39 31//44 101//84
f 161//83 101//84 4//85
f 77//22 162//86 72//26
f 12//23 82//87 162//86
f 82//87 11//173 70//88
f 162//86 70//88 10//24
f 119//89 163//95 118//90
f 131//92 163//95 119//89
f 54//94 130//97 163//95
f 129//96 163//95 130//97
f 128//99 163//95 129//96
f 118//90 163//95 128//99
f 50//102 124//105 164//103
f 119//89 164//103 124//105
f 122//106 164//103 119//89
f 116//107 164//103 122//106
f 126//109 164//103 116//107
f 125//104 164//103 126//109
f 42//112 117//115 165//113
f 117//115 47//91 118//90
f 165//113 118//90 45//101
f 121//114 165//113 114//116
f 93//30 166//119 134//118
f 29//36 139//120 166//119
f 139//120 58//133 132//121
f 166//119 132//121 57//122
f 62//123 148//126 167//124
f 148//126 60//174 140//127
f 167//124 140//127 38//128
f 142//125 167//124 111//129
f 137//131 168//135 138//132
f 56//134 133//136 168//135
f 133//136 48//175 136//137
f 168//135 136//137 59//138
f 147//139 169//142 141//140
f 62//123 142//125 169//142
f 169//142 142//125 39//130
f 169//142 112//143 40//144
f 132//121 170//146 123//145
f 58//133 138//132 170//146
f 138//132 59//138 135//147
f 170//146 135//147 49//148
f 88//63 171//149 139//120
f 17//66 120//150 171//149
f 120//150 56//134 137//131
f 171//149 137//131 58//133
f 61//141 141//140 172//151
f 141//140 40//144 113//153
f 172//151 113//153 8//70
f 146//152 172//151 98//69
f 35//154 144//157 173//155
f 144//157 61//141 146//152
f 173//155 146//152 32//77
f 108//156 173//155 102//76
f 109//159 174//161 144//157
f 36//160 145//162 174//161
f 145//162 62//123 147//139
f 174//161 147//139 61//141
f 110//163 175//165 145//162
f 37//164 143//166 175//165
f 143//166 60//174 148//126
f 175//165 148//126 62//123
f 117//115 176//167 122//106
f 42//112 115//168 176//167
f 115//168 43//176 127//169
f 176//167 127//169 44//108
