# Blender 5.1.0
# www.blender.org
mtllib vaz 2017 dno .mtl
o Object_6
v 0.503572 0.546674 1.355323
v 0.803385 0.503261 1.219666
v 0.793020 0.359534 1.128531
v 0.773412 0.266663 1.093945
v 0.657832 0.240252 -1.427509
v 0.739287 0.327415 -1.329285
v 0.739287 0.327415 -1.329285
v 0.773239 0.333707 -0.710205
v 0.795131 0.472820 -0.819356
v 0.792799 0.516756 -1.080035
v 0.796949 0.558035 1.426522
v 0.745824 0.190960 1.059499
v 0.750851 0.179644 0.810281
v 0.755944 0.185313 0.035443
v 0.353967 0.333796 -1.393531
v 0.353967 0.333796 -1.393531
v 0.353967 0.333796 -1.393531
v 0.763268 0.400821 -1.294226
v 0.353967 0.419870 -1.327788
v 0.353967 0.419870 -1.327788
v 0.353967 0.419870 -1.327788
v 0.000000 0.225664 1.859266
v 0.147663 0.333776 -1.393513
v 0.353811 0.260697 -1.839725
v 0.155153 0.262518 -1.844169
v 0.627761 0.258208 -1.799374
v 0.593741 0.260559 -1.829752
v 0.697915 0.224527 1.823933
v 0.311339 0.309527 -1.859070
v 0.180404 0.302867 -1.859688
v 0.332286 0.379156 -1.393531
v 0.332286 0.379156 -1.393531
v 0.315422 0.815269 1.209483
v 0.315396 0.825767 1.068672
v 0.256858 0.396175 1.920057
v 0.256884 0.345676 1.906614
v 0.649270 0.247011 -1.686199
v 0.656321 0.246409 -1.675439
v 0.680104 0.242042 -1.394533
v 0.715058 0.279698 -1.354066
v 0.746723 0.212145 -0.645059
v 0.783106 0.517819 1.600736
v 0.769381 0.432961 1.679929
v 0.736188 0.265069 1.750388
v 0.719258 0.228641 1.789059
v 0.503572 0.478855 1.209127
v 0.503960 0.237789 1.068268
v 0.503572 0.544117 1.520275
v 0.503572 0.460319 1.656131
v 0.503572 0.312442 1.732372
v 0.494770 0.226086 1.845757
v 0.351818 0.431238 -0.716715
v 0.000000 0.179555 0.820279
v 0.351818 0.563863 -0.842194
v 0.353967 0.600777 -1.030986
v 0.000000 0.188387 -0.300242
v 0.353967 0.553990 -1.215904
v 0.353967 0.223114 -0.646459
v 0.169637 0.379156 -1.393531
v 0.169637 0.379156 -1.393531
v -0.503572 0.546674 1.355323
v -0.803385 0.503261 1.219666
v -0.793020 0.359534 1.128531
v -0.773412 0.266662 1.093945
v -0.657832 0.240252 -1.427509
v -0.739287 0.327415 -1.329285
v -0.739287 0.327415 -1.329285
v -0.773239 0.333707 -0.710205
v -0.795131 0.472820 -0.819356
v -0.792799 0.516756 -1.080035
v -0.796949 0.558035 1.426522
v -0.745824 0.190960 1.059499
v -0.750851 0.179644 0.810281
v -0.755943 0.185442 0.035369
v -0.353967 0.333796 -1.393531
v -0.353967 0.333796 -1.393531
v -0.353967 0.333796 -1.393531
v -0.763268 0.400821 -1.294226
v -0.353967 0.419870 -1.327788
v -0.353967 0.419870 -1.327788
v -0.353967 0.419870 -1.327788
v -0.353811 0.260697 -1.839725
v -0.627761 0.258208 -1.799374
v -0.593741 0.260559 -1.829752
v -0.147956 0.333796 -1.393531
v -0.153839 0.261985 -1.843790
v -0.697915 0.224527 1.823933
v -0.311339 0.309527 -1.859070
v -0.180404 0.302867 -1.859688
v -0.332286 0.379156 -1.393531
v -0.332286 0.379156 -1.393531
v -0.315355 0.810972 1.209422
v -0.315355 0.823072 1.068749
v -0.256836 0.395941 1.917457
v -0.256836 0.345858 1.902609
v -0.654385 0.243141 -1.678178
v -0.680104 0.242042 -1.394533
v -0.715058 0.279698 -1.354066
v -0.746723 0.212145 -0.645059
v -0.783106 0.517819 1.600736
v -0.769381 0.432961 1.679929
v -0.736188 0.265069 1.750388
v -0.719258 0.228641 1.789059
v -0.503572 0.478855 1.209127
v -0.503960 0.237789 1.068268
v -0.503572 0.544117 1.520275
v -0.503572 0.460319 1.656131
v -0.503572 0.312442 1.732372
v -0.494770 0.226086 1.845757
v -0.351818 0.431238 -0.716715
v -0.351818 0.563863 -0.842194
v -0.353967 0.600777 -1.030986
v -0.353967 0.553990 -1.215904
v -0.353967 0.223114 -0.646459
v -0.169637 0.379156 -1.393531
v -0.169637 0.379156 -1.393531
vn 0.0754 0.5129 0.8551
vn -0.1541 0.9150 0.3728
vn 0.0047 0.8272 0.5619
vn 0.0006 0.8716 0.4902
vn -0.6677 0.4993 0.5521
vn -0.0017 0.5567 0.8307
vn 0.0455 0.7843 -0.6187
vn -0.1404 0.8570 -0.4959
vn 0.0500 0.3616 -0.9310
vn 0.0137 0.9996 -0.0235
vn -0.6669 0.7172 0.2024
vn 0.2156 0.7726 -0.5971
vn 0.2782 0.9531 -0.1191
vn 0.2213 0.9729 -0.0672
vn -0.7235 0.4446 0.5281
vn 0.0860 0.8326 0.5471
vn 0.0480 0.5521 0.8324
vn -0.0080 0.8030 -0.5959
vn -0.6726 0.7244 -0.1512
vn 0.1231 0.9921 -0.0251
vn -0.0230 0.9944 0.1028
vn -0.0072 0.9953 0.0967
vn 0.0015 0.4674 -0.8841
vn -0.6625 0.5493 -0.5093
vn 0.4327 0.7134 0.5512
vn -0.2657 0.9421 0.2046
vn 0.2205 0.9731 -0.0664
vn 0.1646 0.8401 0.5169
vn -0.6323 0.4063 0.6596
vn 0.1577 0.6599 -0.7346
vn -0.5857 0.6939 -0.4189
vn 0.2109 0.9660 -0.1496
vn 0.0916 0.3966 -0.9134
vn -0.6640 0.4497 -0.5974
vn 0.1341 0.5185 -0.8445
vn 0.2204 0.9732 -0.0664
vn -0.6540 0.4580 -0.6021
vn -0.5896 0.7208 0.3645
vn 0.0993 0.4285 -0.8981
vn -0.0004 0.9998 -0.0186
vn -0.0000 0.9990 -0.0440
vn -0.0003 0.9981 0.0613
vn -0.0049 0.9998 0.0193
vn -0.1490 0.9489 0.2781
vn 0.0216 0.9913 0.1301
vn -0.0000 1.0000 -0.0068
vn -0.5866 0.8098 -0.0113
vn -0.4311 0.7163 0.5487
vn 0.3697 0.9150 -0.1618
vn -0.0494 0.9855 -0.1624
vn -0.5287 0.8362 -0.1458
vn -0.4270 0.7161 0.5522
vn -0.6780 0.7227 -0.1340
vn 0.7820 0.6107 -0.1244
vn 0.4197 0.7001 0.5777
vn 0.2266 0.9725 -0.0546
vn -0.0754 0.5129 0.8551
vn 0.1587 0.9151 0.3706
vn 0.6323 0.4063 0.6596
vn -0.0006 0.8716 0.4902
vn 0.0017 0.5567 0.8307
vn 0.6677 0.4993 0.5521
vn -0.0455 0.7843 -0.6187
vn -0.0500 0.3616 -0.9310
vn 0.1404 0.8570 -0.4959
vn -0.0137 0.9996 -0.0235
vn 0.6669 0.7172 0.2024
vn -0.2156 0.7727 -0.5971
vn -0.2258 0.9714 -0.0730
vn -0.2794 0.9523 -0.1230
vn -0.0860 0.8326 0.5471
vn 0.7235 0.4446 0.5281
vn -0.0480 0.5521 0.8324
vn 0.0080 0.8030 -0.5959
vn 0.6726 0.7244 -0.1512
vn 0.5196 0.8417 -0.1467
vn 0.2673 0.9408 0.2086
vn -0.0015 0.4674 -0.8841
vn 0.6625 0.5493 -0.5093
vn -0.4327 0.7134 0.5513
vn -0.2204 0.9732 -0.0665
vn 0.0064 -0.9964 -0.0841
vn 0.0046 -0.9971 -0.0759
vn 0.0068 -0.9963 -0.0857
vn 0.0074 0.2825 -0.9592
vn 0.0050 0.2590 -0.9659
vn 0.0076 0.2842 -0.9587
vn -0.1646 0.8401 0.5169
vn 0.5896 0.7208 0.3645
vn -0.1577 0.6599 -0.7346
vn -0.2109 0.9660 -0.1496
vn 0.5857 0.6939 -0.4189
vn -0.0916 0.3966 -0.9134
vn 0.6640 0.4497 -0.5974
vn -0.1341 0.5185 -0.8445
vn -0.2204 0.9732 -0.0664
vn -0.2165 0.7759 -0.5925
vn 0.5866 0.8098 -0.0113
vn -0.0993 0.4285 -0.8981
vn 0.6540 0.4580 -0.6021
vn 0.0004 0.9998 -0.0185
vn -0.0047 0.8272 0.5618
vn 0.0050 0.9998 0.0193
vn 0.1490 0.9489 0.2781
vn -0.0216 0.9913 0.1301
vn 0.4311 0.7163 0.5487
vn -0.3697 0.9150 -0.1618
vn -0.4197 0.7001 0.5777
vn 0.4290 0.7144 0.5528
vn 0.6659 0.7336 -0.1357
vn -0.7820 0.6107 -0.1244
vn -0.2272 0.9728 -0.0443
vn 0.3222 0.9395 -0.1164
vn 0.0480 0.9985 0.0245
vn 0.2165 0.7759 -0.5925
vn -0.3299 0.9378 -0.1080
vn -0.1433 0.9892 -0.0312
vn 0.0132 0.9928 0.1194
vn 0.0516 0.9896 0.1344
vn 0.0043 -0.9972 -0.0744
vn 0.0048 0.2572 -0.9663
vn 0.0494 0.9855 -0.1624
s 1
usemtl Black
f 8//1 58//2 41//3
f 42//4 49//5 43//6
f 12//7 47//8 4//9
f 11//10 48//11 42//4
f 39//12 5//13 16//14
f 50//15 45//16 44//17
f 2//18 1//19 11//10
f 37//20 26//21 27//22
f 43//6 50//15 44//17
f 3//23 46//24 2//18
f 4//9 47//8 3//23
f 32//25 23//26 16//27
f 9//28 52//29 8//1
f 18//30 57//31 10//32
f 6//33 19//34 18//30
f 40//35 15//36 21//37
f 10//32 54//38 9//28
f 7//39 40//35 20//37
f 13//40 53//41 12//7
f 41//3 56//42 14//43
f 1//19 47//8 50//15
f 51//44 28//45 45//16
f 51//44 47//8 22//46
f 52//29 54//38 55//47
f 59//48 29//49 30//50
f 25//51 60//52 30//53
f 24//54 31//55 17//56
f 68//57 114//58 110//59
f 100//60 101//61 107//62
f 72//63 64//64 105//65
f 71//66 100//60 106//67
f 97//68 76//69 65//70
f 103//71 108//72 102//73
f 62//74 71//66 61//75
f 23//26 86//76 85//77
f 101//61 102//73 108//72
f 63//78 104//79 105//65
f 64//64 63//78 105//65
f 85//77 91//80 76//81
f 93//82 33//83 92//84
f 94//85 36//86 95//87
f 69//88 110//59 111//89
f 78//90 70//91 113//92
f 66//93 78//90 79//94
f 98//95 75//96 97//97
f 70//91 111//89 112//98
f 67//99 80//100 98//95
f 73//101 72//63 53//41
f 99//102 74//103 56//42
f 74//103 14//43 56//42
f 73//101 14//43 74//103
f 105//65 61//75 108//72
f 109//104 103//71 87//105
f 72//63 105//65 53//41
f 23//26 85//77 114//58
f 22//46 105//65 109//104
f 110//59 81//100 112//98
f 115//106 88//107 90//108
f 116//109 86//76 89//110
f 90//108 82//111 77//112
f 8//1 52//29 58//2
f 46//24 1//19 2//18
f 50//15 51//44 45//16
f 1//19 48//11 11//10
f 57//31 55//47 10//32
f 49//5 50//15 43//6
f 24//113 16//14 37//20
f 5//13 38//114 37//20
f 16//14 5//13 37//20
f 27//22 24//113 37//20
f 3//23 47//8 46//24
f 48//11 49//5 42//4
f 32//25 60//52 23//26
f 9//28 54//38 52//29
f 19//34 57//31 18//30
f 40//35 39//115 15//36
f 10//32 55//47 54//38
f 14//43 53//41 13//40
f 1//19 46//24 47//8
f 47//8 51//44 50//15
f 50//15 49//5 48//11
f 48//11 1//19 50//15
f 12//7 53//41 47//8
f 23//26 56//42 58//2
f 58//2 16//27 23//26
f 47//8 53//41 22//46
f 58//2 56//42 41//3
f 57//31 21//37 55//47
f 21//37 15//36 58//2
f 55//47 21//37 52//29
f 58//2 52//29 21//37
f 59//48 31//55 29//49
f 25//51 23//26 60//52
f 24//54 29//49 31//55
f 68//57 99//102 114//58
f 62//74 61//75 104//79
f 103//71 109//104 108//72
f 71//66 106//67 61//75
f 70//91 112//98 113//92
f 101//61 108//72 107//62
f 76//69 82//116 96//117
f 65//70 76//69 96//117
f 82//116 84//118 96//117
f 96//117 84//118 83//119
f 23//26 25//51 86//76
f 63//78 62//74 104//79
f 100//60 107//62 106//67
f 85//77 116//109 91//80
f 93//82 34//120 33//83
f 94//85 35//121 36//86
f 69//88 68//57 110//59
f 78//90 113//92 79//94
f 98//95 81//100 75//96
f 70//91 69//88 111//89
f 73//101 53//41 14//43
f 105//65 104//79 61//75
f 61//75 106//67 108//72
f 106//67 107//62 108//72
f 108//72 109//104 105//65
f 114//58 56//42 23//26
f 85//77 76//81 114//58
f 53//41 105//65 22//46
f 99//102 56//42 114//58
f 75//96 81//100 114//58
f 81//100 113//92 112//98
f 114//58 81//100 110//59
f 112//98 111//89 110//59
f 115//106 89//122 88//107
f 116//109 85//77 86//76
f 90//108 88//107 82//111
